<?xml version="1.0" encoding="UTF-8"?>
<svg xmlns="http://www.w3.org/2000/svg" viewBox="0 0 1920 1080">
  <g id="Layer_2">
    <rect x="-40" y="-27" width="1992" height="1154" fill="#f9f9f9"/>
  </g>
  <g id="SST_First_Floor">
    <rect x="447.66" y="315.4" width="1067.84" height="500.1" fill="#95efcc" stroke="#6d8c7d" stroke-miterlimit="10" stroke-width="3"/>
    <rect x="1675.5" y="-3.5" width="261" height="95" fill="#757575" stroke="#fff" stroke-miterlimit="10" stroke-width="3"/>
    <rect x="1678.5" y="91.5" width="258" height="351" fill="#ddd" stroke="#999" stroke-miterlimit="10" stroke-width="3"/>
    <rect x="168.5" y="950.5" width="942" height="149" fill="#ddd" stroke="#999" stroke-miterlimit="10"/>
    <rect x="363.5" y="950" width="273.5" height="150.5" fill="#2e3a6e"/>
    <rect x="1672.5" y="950.5" width="270" height="151" fill="#e55934" stroke="#fff" stroke-miterlimit="10" stroke-width="3"/>
    <rect x="1110.5" y="1042.5" width="563" height="57" fill="#ddd" stroke="#999" stroke-miterlimit="10"/>
    <rect x="816" y="949" width="294.5" height="150.5" fill="#395e7c"/>
    <rect x="1744" y="578.5" width="190.14" height="187" fill="#71b340" stroke="#fff" stroke-miterlimit="10" stroke-width="3"/>
    <rect x="1674.5" y="765.5" width="258.95" height="86" fill="#757575" stroke="#fff" stroke-miterlimit="10" stroke-width="3"/>
    <rect x="534.5" y="388.5" width="887" height="343" fill="#ddd" stroke="#999" stroke-miterlimit="10" stroke-width="3"/>
    <rect x="-17.65" y="540.5" width="307.15" height="152" fill="#757575" stroke="#fff" stroke-miterlimit="10" stroke-width="3"/>
    <rect x="-18.04" y="447.5" width="306.04" height="91.45" fill="#395e7c" stroke="#fff" stroke-miterlimit="10"/>
    <rect x="-18.04" y="189.45" width="306.04" height="150.5" fill="#395e7c" stroke="#fff" stroke-miterlimit="10"/>
    <rect x="-17.5" y="339.5" width="304" height="108" fill="#ddd" stroke="#999" stroke-miterlimit="10"/>
    <rect x="1678.5" y="195.5" width="258" height="138" fill="#95efcc" stroke="#6d8c7d" stroke-miterlimit="10" stroke-width="3"/>
    <rect x="-17.5" y="690.5" width="307.5" height="136" fill="#fed766" stroke="#fff" stroke-miterlimit="10" stroke-width="3"/>
    <rect x="-17.5" y="94.5" width="1578" height="95" fill="#ddd" stroke="#999" stroke-miterlimit="10" stroke-width="3"/>
    <rect x="289.98" y="94.5" width="161.52" height="95.24" fill="#395e7c"/>
    <rect x="584.98" y="94.5" width="275.02" height="95.24" fill="#395e7c"/>
    <rect x="-16.49" y="-3.43" width="305.99" height="97.93" fill="#395e7c" stroke="#fff" stroke-miterlimit="10"/>
    <rect x="-15.5" y="949" width="216" height="150.5" fill="#2e3a6e" stroke="#fff" stroke-miterlimit="10"/>
    <rect x="-15.5" y="825.5" width="22" height="123.5" fill="#ddd" stroke="#999" stroke-miterlimit="10"/>
    <rect x="1909" y="850.5" width="22" height="101" fill="#ddd" stroke="#999" stroke-miterlimit="10"/>
    <rect x="1675.5" y="442.5" width="263" height="136" fill="#fed766" stroke="#fff" stroke-miterlimit="10" stroke-width="3"/>
    <g>
      <path d="M39.2,1048.43l-11.12-19.65h-4.77v19.65h-10.11v-50.42h18.93c3.9,0,7.22.69,9.97,2.06,2.75,1.37,4.8,3.23,6.18,5.56,1.37,2.34,2.06,4.95,2.06,7.84,0,3.32-.96,6.32-2.89,8.99-1.93,2.67-4.79,4.51-8.6,5.53l12.06,20.44h-11.7ZM23.3,1021.19h8.45c2.74,0,4.79-.66,6.14-1.99,1.35-1.32,2.02-3.17,2.02-5.53s-.67-4.1-2.02-5.38c-1.35-1.28-3.4-1.91-6.14-1.91h-8.45v14.81Z" fill="#fff"/>
      <path d="M114.46,998.01v50.42h-10.11v-32.79l-13.51,32.79h-7.66l-13.58-32.79v32.79h-10.11v-50.42h11.49l16.04,37.49,16.04-37.49h11.41Z" fill="#fff"/>
      <path d="M143.64,1037.01c4.62-3.85,8.31-7.07,11.05-9.64,2.75-2.58,5.03-5.26,6.86-8.05,1.83-2.79,2.74-5.54,2.74-8.24,0-2.46-.58-4.38-1.73-5.78-1.16-1.4-2.94-2.09-5.35-2.09s-4.26.81-5.56,2.42c-1.3,1.61-1.98,3.82-2.02,6.61h-9.82c.19-5.78,1.91-10.16,5.16-13.15,3.25-2.99,7.38-4.48,12.39-4.48,5.49,0,9.7,1.46,12.64,4.37,2.94,2.91,4.41,6.75,4.41,11.52,0,3.76-1.01,7.34-3.03,10.76-2.02,3.42-4.33,6.39-6.93,8.92-2.6,2.53-6,5.57-10.18,9.14h21.31v8.38h-35.68v-7.51l3.76-3.18Z" fill="#fff"/>
    </g>
    <g>
      <path d="M451.85,1048.43l-11.12-19.65h-4.77v19.65h-10.11v-50.42h18.93c3.9,0,7.22.69,9.97,2.06,2.75,1.37,4.8,3.23,6.18,5.56,1.37,2.34,2.06,4.95,2.06,7.84,0,3.32-.96,6.32-2.89,8.99-1.93,2.67-4.79,4.51-8.6,5.53l12.06,20.44h-11.7ZM435.96,1021.19h8.45c2.74,0,4.79-.66,6.14-1.99,1.35-1.32,2.02-3.17,2.02-5.53s-.67-4.1-2.02-5.38c-1.35-1.28-3.4-1.91-6.14-1.91h-8.45v14.81Z" fill="#fff"/>
      <path d="M527.12,998.01v50.42h-10.11v-32.79l-13.51,32.79h-7.66l-13.58-32.79v32.79h-10.11v-50.42h11.49l16.04,37.49,16.04-37.49h11.41Z" fill="#fff"/>
      <path d="M551.89,1005.09v-9.32h17.41v52.66h-10.4v-43.34h-7.01Z" fill="#fff"/>
    </g>
    <g>
      <path d="M877.26,1040.41h16.61v8.02h-26.73v-50.42h10.11v42.4Z" fill="#fff"/>
      <path d="M931.22,1038.82h-20.08l-3.32,9.61h-10.62l18.13-50.49h11.77l18.13,50.49h-10.69l-3.32-9.61ZM928.48,1030.73l-7.3-21.09-7.3,21.09h14.59Z" fill="#fff"/>
      <path d="M987.63,1026.83c1.83,2.31,2.75,4.96,2.75,7.95,0,2.7-.66,5.07-1.99,7.12-1.33,2.05-3.24,3.65-5.74,4.8-2.5,1.16-5.47,1.73-8.88,1.73h-21.74v-50.42h20.8c3.42,0,6.37.55,8.85,1.66,2.48,1.11,4.36,2.65,5.63,4.62,1.28,1.97,1.91,4.21,1.91,6.72,0,2.94-.78,5.39-2.35,7.37-1.57,1.98-3.65,3.37-6.25,4.19,2.84.53,5.18,1.95,7.01,4.26ZM962.14,1018.81h9.25c2.41,0,4.26-.54,5.56-1.62,1.3-1.08,1.95-2.64,1.95-4.66s-.65-3.59-1.95-4.7c-1.3-1.11-3.15-1.66-5.56-1.66h-9.25v12.64ZM978.06,1038.46c1.37-1.16,2.06-2.79,2.06-4.91s-.72-3.86-2.17-5.09c-1.44-1.23-3.4-1.84-5.85-1.84h-9.97v13.58h10.19c2.46,0,4.37-.58,5.74-1.73Z" fill="#fff"/>
      <path d="M1017.68,1037.01c4.62-3.85,8.31-7.07,11.05-9.64,2.75-2.58,5.03-5.26,6.86-8.05,1.83-2.79,2.75-5.54,2.75-8.24,0-2.46-.58-4.38-1.73-5.78-1.16-1.4-2.94-2.09-5.34-2.09s-4.26.81-5.56,2.42c-1.3,1.61-1.98,3.82-2.02,6.61h-9.82c.19-5.78,1.91-10.16,5.17-13.15,3.25-2.99,7.38-4.48,12.39-4.48,5.49,0,9.7,1.46,12.64,4.37,2.94,2.91,4.41,6.75,4.41,11.52,0,3.76-1.01,7.34-3.03,10.76-2.02,3.42-4.33,6.39-6.93,8.92-2.6,2.53-6,5.57-10.19,9.14h21.31v8.38h-35.68v-7.51l3.76-3.18Z" fill="#fff"/>
    </g>
    <g>
      <path d="M1761.83,973.2v5.33h-8.77v27.57h-6.6v-27.57h-8.77v-5.33h24.13Z" fill="#fff"/>
      <path d="M1773.14,973.2v20.36c0,2.23.58,3.93,1.74,5.11,1.16,1.18,2.8,1.77,4.9,1.77s3.79-.59,4.95-1.77c1.16-1.18,1.74-2.88,1.74-5.11v-20.36h6.64v20.31c0,2.8-.61,5.16-1.81,7.09-1.21,1.93-2.83,3.39-4.85,4.36-2.03.97-4.28,1.46-6.76,1.46s-4.67-.49-6.67-1.46-3.57-2.43-4.74-4.36c-1.16-1.93-1.74-4.3-1.74-7.09v-20.31h6.6Z" fill="#fff"/>
      <path d="M1800.07,980.91c1.46-2.56,3.46-4.56,5.99-5.99s5.37-2.14,8.51-2.14c3.68,0,6.9.94,9.66,2.83,2.76,1.88,4.7,4.49,5.8,7.82h-7.59c-.75-1.57-1.81-2.75-3.18-3.54-1.37-.79-2.95-1.18-4.74-1.18-1.92,0-3.62.45-5.11,1.34-1.49.9-2.66,2.16-3.49,3.79-.83,1.63-1.25,3.55-1.25,5.75s.42,4.08,1.25,5.73c.83,1.65,2,2.92,3.49,3.82,1.49.9,3.2,1.34,5.11,1.34,1.79,0,3.37-.4,4.74-1.2,1.37-.8,2.43-1.99,3.18-3.56h7.59c-1.1,3.36-3.02,5.98-5.77,7.85-2.75,1.87-5.98,2.8-9.69,2.8-3.14,0-5.98-.71-8.51-2.14s-4.52-3.42-5.99-5.96-2.19-5.44-2.19-8.67.73-6.13,2.19-8.7Z" fill="#fff"/>
      <path d="M1854.25,1006.1l-11.97-14.66v14.66h-6.6v-32.9h6.6v14.75l11.97-14.75h7.96l-13.57,16.31,13.95,16.59h-8.34Z" fill="#fff"/>
      <path d="M1744.27,1061.8c-1.84-.79-3.29-1.92-4.36-3.39s-1.62-3.22-1.65-5.23h7.07c.09,1.35.57,2.42,1.44,3.2.86.79,2.05,1.18,3.56,1.18s2.75-.37,3.63-1.11c.88-.74,1.32-1.7,1.32-2.9,0-.97-.3-1.78-.9-2.4-.6-.63-1.34-1.12-2.24-1.48-.9-.36-2.13-.76-3.7-1.2-2.14-.63-3.87-1.25-5.21-1.86-1.34-.61-2.48-1.54-3.44-2.78-.96-1.24-1.44-2.9-1.44-4.97,0-1.95.49-3.64,1.46-5.09.97-1.44,2.34-2.55,4.1-3.32,1.76-.77,3.77-1.15,6.03-1.15,3.39,0,6.15.82,8.27,2.47,2.12,1.65,3.29,3.95,3.51,6.91h-7.26c-.06-1.13-.54-2.07-1.44-2.8s-2.08-1.11-3.56-1.11c-1.29,0-2.32.33-3.09.99-.77.66-1.15,1.62-1.15,2.88,0,.88.29,1.61.87,2.19.58.58,1.3,1.05,2.17,1.41.86.36,2.08.78,3.65,1.25,2.14.63,3.88,1.26,5.23,1.88,1.35.63,2.51,1.57,3.49,2.83.97,1.26,1.46,2.91,1.46,4.95,0,1.76-.46,3.39-1.37,4.9-.91,1.51-2.25,2.71-4.01,3.61s-3.85,1.34-6.27,1.34c-2.29,0-4.36-.39-6.2-1.18Z" fill="#fff"/>
      <path d="M1795.1,1029.76v32.9h-6.6v-14h-14.09v14h-6.6v-32.9h6.6v13.53h14.09v-13.53h6.6Z" fill="#fff"/>
      <path d="M1808.39,1060.81c-2.58-1.45-4.62-3.45-6.13-6.01-1.51-2.56-2.26-5.46-2.26-8.7s.75-6.09,2.26-8.65c1.51-2.56,3.55-4.56,6.13-6.01s5.4-2.17,8.48-2.17,5.95.72,8.51,2.17,4.59,3.45,6.08,6.01c1.49,2.56,2.24,5.44,2.24,8.65s-.75,6.13-2.24,8.7c-1.49,2.56-3.53,4.56-6.1,6.01s-5.4,2.17-8.48,2.17-5.91-.72-8.48-2.17ZM1822.1,1055.75c1.51-.9,2.69-2.18,3.54-3.84.85-1.67,1.27-3.6,1.27-5.8s-.42-4.12-1.27-5.77c-.85-1.65-2.03-2.91-3.54-3.79-1.51-.88-3.25-1.32-5.23-1.32s-3.73.44-5.25,1.32c-1.52.88-2.71,2.14-3.56,3.79-.85,1.65-1.27,3.57-1.27,5.77s.42,4.13,1.27,5.8c.85,1.67,2.03,2.95,3.56,3.84,1.52.9,3.28,1.34,5.25,1.34s3.72-.45,5.23-1.34Z" fill="#fff"/>
      <path d="M1861.34,1044.88c-.83,1.54-2.14,2.78-3.91,3.72-1.78.94-4.01,1.41-6.72,1.41h-5.51v12.63h-6.6v-32.9h12.11c2.54,0,4.71.44,6.5,1.32s3.13,2.09,4.03,3.63,1.34,3.28,1.34,5.23c0,1.76-.42,3.41-1.25,4.95ZM1854.48,1043.45c.88-.83,1.32-2,1.32-3.51,0-3.21-1.79-4.81-5.37-4.81h-5.23v9.57h5.23c1.82,0,3.17-.42,4.05-1.25Z" fill="#fff"/>
    </g>
    <g>
      <path d="M36.03,771.73c-2.34-1-4.19-2.44-5.55-4.32-1.36-1.88-2.06-4.1-2.1-6.66h9c.12,1.72.73,3.08,1.83,4.08,1.1,1,2.61,1.5,4.53,1.5s3.5-.47,4.62-1.41c1.12-.94,1.68-2.17,1.68-3.69,0-1.24-.38-2.26-1.14-3.06-.76-.8-1.71-1.43-2.85-1.89-1.14-.46-2.71-.97-4.71-1.53-2.72-.8-4.93-1.59-6.63-2.37-1.7-.78-3.16-1.96-4.38-3.54-1.22-1.58-1.83-3.69-1.83-6.33,0-2.48.62-4.64,1.86-6.48,1.24-1.84,2.98-3.25,5.22-4.23,2.24-.98,4.8-1.47,7.68-1.47,4.32,0,7.83,1.05,10.53,3.15,2.7,2.1,4.19,5.03,4.47,8.79h-9.24c-.08-1.44-.69-2.63-1.83-3.57-1.14-.94-2.65-1.41-4.53-1.41-1.64,0-2.95.42-3.93,1.26-.98.84-1.47,2.06-1.47,3.66,0,1.12.37,2.05,1.11,2.79.74.74,1.66,1.34,2.76,1.8,1.1.46,2.65.99,4.65,1.59,2.72.8,4.94,1.6,6.66,2.4,1.72.8,3.2,2,4.44,3.6,1.24,1.6,1.86,3.7,1.86,6.3,0,2.24-.58,4.32-1.74,6.24-1.16,1.92-2.86,3.45-5.1,4.59-2.24,1.14-4.9,1.71-7.98,1.71-2.92,0-5.55-.5-7.89-1.5Z" fill="#fff"/>
      <path d="M94.5,730.93v6.78h-11.16v35.1h-8.4v-35.1h-11.16v-6.78h30.72Z" fill="#fff"/>
      <path d="M126.3,764.83h-16.68l-2.76,7.98h-8.82l15.06-41.94h9.78l15.06,41.94h-8.88l-2.76-7.98ZM124.02,758.11l-6.06-17.52-6.06,17.52h12.12Z" fill="#fff"/>
      <path d="M151.98,730.93v41.88h-8.4v-41.88h8.4Z" fill="#fff"/>
      <path d="M181.86,772.81l-9.24-16.32h-3.96v16.32h-8.4v-41.88h15.72c3.24,0,6,.57,8.28,1.71,2.28,1.14,3.99,2.68,5.13,4.62,1.14,1.94,1.71,4.11,1.71,6.51,0,2.76-.8,5.25-2.4,7.47-1.6,2.22-3.98,3.75-7.14,4.59l10.02,16.98h-9.72ZM168.66,750.19h7.02c2.28,0,3.98-.55,5.1-1.65,1.12-1.1,1.68-2.63,1.68-4.59s-.56-3.41-1.68-4.47c-1.12-1.06-2.82-1.59-5.1-1.59h-7.02v12.3Z" fill="#fff"/>
      <path d="M205.29,771.73c-2.34-1-4.19-2.44-5.55-4.32-1.36-1.88-2.06-4.1-2.1-6.66h9c.12,1.72.73,3.08,1.83,4.08,1.1,1,2.61,1.5,4.53,1.5s3.5-.47,4.62-1.41c1.12-.94,1.68-2.17,1.68-3.69,0-1.24-.38-2.26-1.14-3.06-.76-.8-1.71-1.43-2.85-1.89-1.14-.46-2.71-.97-4.71-1.53-2.72-.8-4.93-1.59-6.63-2.37-1.7-.78-3.16-1.96-4.38-3.54-1.22-1.58-1.83-3.69-1.83-6.33,0-2.48.62-4.64,1.86-6.48,1.24-1.84,2.98-3.25,5.22-4.23,2.24-.98,4.8-1.47,7.68-1.47,4.32,0,7.83,1.05,10.53,3.15,2.7,2.1,4.19,5.03,4.47,8.79h-9.24c-.08-1.44-.69-2.63-1.83-3.57-1.14-.94-2.65-1.41-4.53-1.41-1.64,0-2.95.42-3.93,1.26-.98.84-1.47,2.06-1.47,3.66,0,1.12.37,2.05,1.11,2.79.74.74,1.66,1.34,2.76,1.8,1.1.46,2.65.99,4.65,1.59,2.72.8,4.94,1.6,6.66,2.4,1.72.8,3.2,2,4.44,3.6,1.24,1.6,1.86,3.7,1.86,6.3,0,2.24-.58,4.32-1.74,6.24-1.16,1.92-2.86,3.45-5.1,4.59-2.24,1.14-4.9,1.71-7.98,1.71-2.92,0-5.55-.5-7.89-1.5Z" fill="#fff"/>
    </g>
    <g>
      <path d="M1808.93,658.61l-6.08-10.75h-2.61v10.75h-5.53v-27.57h10.35c2.13,0,3.95.38,5.45,1.12,1.5.75,2.63,1.77,3.38,3.04.75,1.28,1.13,2.71,1.13,4.29,0,1.82-.53,3.46-1.58,4.92-1.05,1.46-2.62,2.47-4.7,3.02l6.6,11.18h-6.4ZM1800.24,643.72h4.62c1.5,0,2.62-.36,3.36-1.09s1.11-1.73,1.11-3.02-.37-2.25-1.11-2.94c-.74-.7-1.86-1.05-3.36-1.05h-4.62v8.1Z" fill="#fff"/>
      <path d="M1825.56,635.5v6.91h9.28v4.38h-9.28v7.31h10.47v4.5h-16v-27.61h16v4.5h-10.47Z" fill="#fff"/>
      <path d="M1845.37,657.9c-1.54-.66-2.76-1.61-3.65-2.84-.9-1.24-1.36-2.7-1.38-4.38h5.93c.08,1.13.48,2.03,1.2,2.69s1.72.99,2.98.99,2.3-.31,3.04-.93,1.11-1.43,1.11-2.43c0-.82-.25-1.49-.75-2.01-.5-.53-1.13-.94-1.88-1.24-.75-.3-1.79-.64-3.1-1.01-1.79-.53-3.25-1.05-4.36-1.56-1.12-.51-2.08-1.29-2.88-2.33-.8-1.04-1.21-2.43-1.21-4.17,0-1.63.41-3.05,1.22-4.27.82-1.21,1.96-2.14,3.44-2.79,1.47-.64,3.16-.97,5.06-.97,2.84,0,5.16.69,6.93,2.07,1.78,1.38,2.76,3.31,2.94,5.79h-6.08c-.05-.95-.45-1.73-1.21-2.35-.75-.62-1.75-.93-2.98-.93-1.08,0-1.94.28-2.59.83-.65.55-.97,1.36-.97,2.41,0,.74.24,1.35.73,1.84s1.09.88,1.82,1.19c.72.3,1.74.65,3.06,1.05,1.79.53,3.25,1.05,4.38,1.58,1.13.53,2.11,1.32,2.92,2.37s1.22,2.44,1.22,4.15c0,1.48-.38,2.84-1.15,4.11-.76,1.26-1.88,2.27-3.36,3.02-1.48.75-3.23,1.13-5.25,1.13-1.92,0-3.65-.33-5.2-.99Z" fill="#fff"/>
      <path d="M1883.86,631.04v4.46h-7.35v23.11h-5.53v-23.11h-7.35v-4.46h20.23Z" fill="#fff"/>
      <path d="M1794.09,706.01l-6.08-10.75h-2.61v10.75h-5.53v-27.57h10.35c2.13,0,3.95.38,5.45,1.13,1.5.75,2.63,1.76,3.38,3.04.75,1.28,1.13,2.71,1.13,4.29,0,1.82-.53,3.46-1.58,4.92-1.05,1.46-2.62,2.47-4.7,3.02l6.6,11.18h-6.4ZM1785.4,691.12h4.62c1.5,0,2.62-.36,3.36-1.09s1.11-1.73,1.11-3.02-.37-2.25-1.11-2.94c-.74-.7-1.86-1.05-3.36-1.05h-4.62v8.1Z" fill="#fff"/>
      <path d="M1810.88,704.47c-2.16-1.21-3.87-2.89-5.14-5.04-1.26-2.15-1.9-4.58-1.9-7.29s.63-5.1,1.9-7.25c1.26-2.15,2.98-3.83,5.14-5.04,2.16-1.21,4.53-1.82,7.11-1.82s4.98.61,7.13,1.82,3.84,2.89,5.1,5.04c1.25,2.15,1.88,4.56,1.88,7.25s-.63,5.14-1.88,7.29c-1.25,2.15-2.96,3.83-5.12,5.04-2.16,1.21-4.53,1.82-7.11,1.82s-4.95-.61-7.11-1.82ZM1822.38,700.23c1.26-.75,2.25-1.82,2.96-3.22.71-1.4,1.07-3.01,1.07-4.86s-.36-3.46-1.07-4.84c-.71-1.38-1.7-2.44-2.96-3.18-1.26-.74-2.73-1.11-4.38-1.11s-3.13.37-4.4,1.11c-1.28.74-2.27,1.8-2.98,3.18-.71,1.38-1.07,3-1.07,4.84s.36,3.46,1.07,4.86c.71,1.4,1.71,2.47,2.98,3.22s2.75,1.13,4.4,1.13,3.12-.38,4.38-1.13Z" fill="#fff"/>
      <path d="M1841.89,704.47c-2.16-1.21-3.87-2.89-5.14-5.04-1.26-2.15-1.9-4.58-1.9-7.29s.63-5.1,1.9-7.25c1.26-2.15,2.98-3.83,5.14-5.04,2.16-1.21,4.53-1.82,7.11-1.82s4.98.61,7.13,1.82,3.84,2.89,5.1,5.04c1.25,2.15,1.88,4.56,1.88,7.25s-.63,5.14-1.88,7.29c-1.25,2.15-2.96,3.83-5.12,5.04-2.16,1.21-4.53,1.82-7.11,1.82s-4.95-.61-7.11-1.82ZM1853.39,700.23c1.26-.75,2.25-1.82,2.96-3.22.71-1.4,1.07-3.01,1.07-4.86s-.36-3.46-1.07-4.84c-.71-1.38-1.7-2.44-2.96-3.18-1.26-.74-2.73-1.11-4.38-1.11s-3.13.37-4.4,1.11c-1.28.74-2.27,1.8-2.98,3.18-.71,1.38-1.07,3-1.07,4.84s.36,3.46,1.07,4.86c.71,1.4,1.71,2.47,2.98,3.22s2.75,1.13,4.4,1.13,3.12-.38,4.38-1.13Z" fill="#fff"/>
      <path d="M1897.27,678.44v27.57h-5.53v-17.93l-7.39,17.93h-4.19l-7.43-17.93v17.93h-5.53v-27.57h6.28l8.77,20.5,8.77-20.5h6.24Z" fill="#fff"/>
    </g>
    <g>
      <path d="M1706.59,530.22c-2.34-1-4.19-2.44-5.55-4.32-1.36-1.88-2.06-4.1-2.1-6.66h9c.12,1.72.73,3.08,1.83,4.08,1.1,1,2.61,1.5,4.53,1.5s3.5-.47,4.62-1.41c1.12-.94,1.68-2.17,1.68-3.69,0-1.24-.38-2.26-1.14-3.06s-1.71-1.43-2.85-1.89c-1.14-.46-2.71-.97-4.71-1.53-2.72-.8-4.93-1.59-6.63-2.37-1.7-.78-3.16-1.96-4.38-3.54s-1.83-3.69-1.83-6.33c0-2.48.62-4.64,1.86-6.48,1.24-1.84,2.98-3.25,5.22-4.23,2.24-.98,4.8-1.47,7.68-1.47,4.32,0,7.83,1.05,10.53,3.15,2.7,2.1,4.19,5.03,4.47,8.79h-9.24c-.08-1.44-.69-2.63-1.83-3.57-1.14-.94-2.65-1.41-4.53-1.41-1.64,0-2.95.42-3.93,1.26-.98.84-1.47,2.06-1.47,3.66,0,1.12.37,2.05,1.11,2.79s1.66,1.34,2.76,1.8c1.1.46,2.65.99,4.65,1.59,2.72.8,4.94,1.6,6.66,2.4s3.2,2,4.44,3.6c1.24,1.6,1.86,3.7,1.86,6.3,0,2.24-.58,4.32-1.74,6.24-1.16,1.92-2.86,3.45-5.1,4.59s-4.9,1.71-7.98,1.71c-2.92,0-5.55-.5-7.89-1.5Z" fill="#fff"/>
      <path d="M1765.06,489.42v6.78h-11.16v35.1h-8.4v-35.1h-11.16v-6.78h30.72Z" fill="#fff"/>
      <path d="M1796.86,523.32h-16.68l-2.76,7.98h-8.82l15.06-41.94h9.78l15.06,41.94h-8.88l-2.76-7.98ZM1794.58,516.6l-6.06-17.52-6.06,17.52h12.12Z" fill="#fff"/>
      <path d="M1822.54,489.42v41.88h-8.4v-41.88h8.4Z" fill="#fff"/>
      <path d="M1852.42,531.3l-9.24-16.32h-3.96v16.32h-8.4v-41.88h15.72c3.24,0,6,.57,8.28,1.71,2.28,1.14,3.99,2.68,5.13,4.62,1.14,1.94,1.71,4.11,1.71,6.51,0,2.76-.8,5.25-2.4,7.47-1.6,2.22-3.98,3.75-7.14,4.59l10.02,16.98h-9.72ZM1839.22,508.68h7.02c2.28,0,3.98-.55,5.1-1.65,1.12-1.1,1.68-2.63,1.68-4.59s-.56-3.41-1.68-4.47c-1.12-1.06-2.82-1.59-5.1-1.59h-7.02v12.3Z" fill="#fff"/>
      <path d="M1875.85,530.22c-2.34-1-4.19-2.44-5.55-4.32-1.36-1.88-2.06-4.1-2.1-6.66h9c.12,1.72.73,3.08,1.83,4.08,1.1,1,2.61,1.5,4.53,1.5s3.5-.47,4.62-1.41c1.12-.94,1.68-2.17,1.68-3.69,0-1.24-.38-2.26-1.14-3.06-.76-.8-1.71-1.43-2.85-1.89-1.14-.46-2.71-.97-4.71-1.53-2.72-.8-4.93-1.59-6.63-2.37-1.7-.78-3.16-1.96-4.38-3.54-1.22-1.58-1.83-3.69-1.83-6.33,0-2.48.62-4.64,1.86-6.48,1.24-1.84,2.98-3.25,5.22-4.23,2.24-.98,4.8-1.47,7.68-1.47,4.32,0,7.83,1.05,10.53,3.15s4.19,5.03,4.47,8.79h-9.24c-.08-1.44-.69-2.63-1.83-3.57-1.14-.94-2.65-1.41-4.53-1.41-1.64,0-2.95.42-3.93,1.26-.98.84-1.47,2.06-1.47,3.66,0,1.12.37,2.05,1.11,2.79.74.74,1.66,1.34,2.76,1.8,1.1.46,2.65.99,4.65,1.59,2.72.8,4.94,1.6,6.66,2.4,1.72.8,3.2,2,4.44,3.6,1.24,1.6,1.86,3.7,1.86,6.3,0,2.24-.58,4.32-1.74,6.24s-2.86,3.45-5.1,4.59c-2.24,1.14-4.9,1.71-7.98,1.71-2.92,0-5.55-.5-7.89-1.5Z" fill="#fff"/>
    </g>
    <g>
      <path d="M1716.59,825.86c-2.34-1-4.19-2.44-5.55-4.32-1.36-1.88-2.06-4.1-2.1-6.66h9c.12,1.72.73,3.08,1.83,4.08,1.1,1,2.61,1.5,4.53,1.5s3.5-.47,4.62-1.41c1.12-.94,1.68-2.17,1.68-3.69,0-1.24-.38-2.26-1.14-3.06-.76-.8-1.71-1.43-2.85-1.89-1.14-.46-2.71-.97-4.71-1.53-2.72-.8-4.93-1.59-6.63-2.37-1.7-.78-3.16-1.96-4.38-3.54-1.22-1.58-1.83-3.69-1.83-6.33,0-2.48.62-4.64,1.86-6.48,1.24-1.84,2.98-3.25,5.22-4.23,2.24-.98,4.8-1.47,7.68-1.47,4.32,0,7.83,1.05,10.53,3.15s4.19,5.03,4.47,8.79h-9.24c-.08-1.44-.69-2.63-1.83-3.57-1.14-.94-2.65-1.41-4.53-1.41-1.64,0-2.95.42-3.93,1.26-.98.84-1.47,2.06-1.47,3.66,0,1.12.37,2.05,1.11,2.79s1.66,1.34,2.76,1.8,2.65.99,4.65,1.59c2.72.8,4.94,1.6,6.66,2.4,1.72.8,3.2,2,4.44,3.6,1.24,1.6,1.86,3.7,1.86,6.3,0,2.24-.58,4.32-1.74,6.24s-2.86,3.45-5.1,4.59c-2.24,1.14-4.9,1.71-7.98,1.71-2.92,0-5.55-.5-7.89-1.5Z" fill="#fff"/>
      <path d="M1775.06,785.06v6.78h-11.16v35.1h-8.4v-35.1h-11.16v-6.78h30.72Z" fill="#fff"/>
      <path d="M1806.86,818.96h-16.68l-2.76,7.98h-8.82l15.06-41.94h9.78l15.06,41.94h-8.88l-2.76-7.98ZM1804.58,812.24l-6.06-17.52-6.06,17.52h12.12Z" fill="#fff"/>
      <path d="M1850,785.06v6.78h-17.46v10.74h13.38v6.66h-13.38v17.7h-8.4v-41.88h25.86Z" fill="#fff"/>
      <path d="M1881.8,785.06v6.78h-17.46v10.74h13.38v6.66h-13.38v17.7h-8.4v-41.88h25.86Z" fill="#fff"/>
    </g>
    <g>
      <path d="M852.49,375.35c-2.91-1.24-5.22-3.04-6.91-5.38-1.69-2.34-2.57-5.11-2.62-8.29h11.21c.15,2.14.91,3.84,2.28,5.08,1.37,1.25,3.25,1.87,5.64,1.87s4.36-.58,5.75-1.76c1.39-1.17,2.09-2.7,2.09-4.6,0-1.54-.47-2.81-1.42-3.81-.95-1-2.13-1.78-3.55-2.35-1.42-.57-3.38-1.21-5.87-1.91-3.39-1-6.14-1.98-8.26-2.95-2.12-.97-3.94-2.44-5.45-4.41-1.52-1.97-2.28-4.6-2.28-7.88,0-3.09.77-5.78,2.32-8.07,1.54-2.29,3.71-4.05,6.5-5.27,2.79-1.22,5.98-1.83,9.56-1.83,5.38,0,9.75,1.31,13.11,3.92s5.22,6.26,5.57,10.95h-11.51c-.1-1.79-.86-3.27-2.28-4.45-1.42-1.17-3.3-1.76-5.64-1.76-2.04,0-3.67.52-4.89,1.57-1.22,1.05-1.83,2.57-1.83,4.56,0,1.4.46,2.55,1.38,3.47.92.92,2.07,1.67,3.44,2.24,1.37.57,3.3,1.23,5.79,1.98,3.39,1,6.15,1.99,8.29,2.99,2.14,1,3.98,2.49,5.53,4.48,1.54,1.99,2.32,4.61,2.32,7.85,0,2.79-.72,5.38-2.17,7.77-1.45,2.39-3.56,4.3-6.35,5.72-2.79,1.42-6.1,2.13-9.94,2.13-3.64,0-6.91-.62-9.83-1.87Z" fill="#fff"/>
      <path d="M900.27,324.54v52.15h-10.46v-52.15h10.46Z" fill="#fff"/>
      <path d="M946.08,324.54v8.44h-13.9v43.71h-10.46v-43.71h-13.9v-8.44h38.26Z" fill="#fff"/>
      <path d="M989.19,324.54v8.44h-13.9v43.71h-10.46v-43.71h-13.9v-8.44h38.26Z" fill="#fff"/>
      <path d="M1007.27,324.54v52.15h-10.46v-52.15h10.46Z" fill="#fff"/>
      <path d="M1062.19,376.69h-10.46l-23.69-35.79v35.79h-10.46v-52.23h10.46l23.69,35.87v-35.87h10.46v52.23Z" fill="#fff"/>
      <path d="M1108.81,340.23c-1.2-2.19-2.84-3.86-4.93-5.01-2.09-1.15-4.53-1.72-7.32-1.72-3.09,0-5.83.7-8.22,2.09-2.39,1.4-4.26,3.39-5.6,5.98-1.34,2.59-2.02,5.58-2.02,8.97s.68,6.53,2.05,9.12c1.37,2.59,3.27,4.58,5.72,5.98,2.44,1.4,5.28,2.09,8.52,2.09,3.98,0,7.25-1.06,9.79-3.18,2.54-2.12,4.21-5.07,5.01-8.85h-17.93v-8h28.24v9.12c-.7,3.64-2.19,7-4.48,10.09-2.29,3.09-5.24,5.57-8.85,7.43-3.61,1.87-7.66,2.8-12.14,2.8-5.03,0-9.58-1.13-13.64-3.4-4.06-2.27-7.25-5.42-9.56-9.45-2.32-4.04-3.47-8.62-3.47-13.75s1.16-9.73,3.47-13.79c2.32-4.06,5.5-7.22,9.56-9.49,4.06-2.27,8.58-3.4,13.56-3.4,5.88,0,10.98,1.43,15.32,4.3,4.33,2.87,7.32,6.89,8.97,12.07h-12.03Z" fill="#fff"/>
    </g>
    <g>
      <path d="M921.81,789.92h-20.77l-3.44,9.94h-10.98l18.75-52.23h12.18l18.75,52.23h-11.06l-3.44-9.94ZM918.97,781.55l-7.55-21.82-7.55,21.82h15.09Z" fill="#fff"/>
      <path d="M970.23,799.85l-11.51-20.32h-4.93v20.32h-10.46v-52.15h19.58c4.04,0,7.47.71,10.31,2.13,2.84,1.42,4.97,3.34,6.39,5.75,1.42,2.42,2.13,5.12,2.13,8.11,0,3.44-1,6.54-2.99,9.3-1.99,2.76-4.96,4.67-8.89,5.72l12.48,21.15h-12.11ZM953.79,771.68h8.74c2.84,0,4.96-.68,6.35-2.05s2.09-3.28,2.09-5.72-.7-4.25-2.09-5.57c-1.39-1.32-3.51-1.98-6.35-1.98h-8.74v15.32Z" fill="#fff"/>
      <path d="M1001.68,756.14v13.08h17.56v8.29h-17.56v13.82h19.8v8.52h-30.26v-52.23h30.26v8.52h-19.8Z" fill="#fff"/>
      <path d="M1062.95,789.92h-20.77l-3.44,9.94h-10.98l18.75-52.23h12.18l18.75,52.23h-11.06l-3.44-9.94ZM1060.11,781.55l-7.55-21.82-7.55,21.82h15.09Z" fill="#fff"/>
    </g>
    <g>
      <path d="M1727.36,251.51c-1.88-.8-3.37-1.96-4.46-3.47-1.09-1.51-1.66-3.29-1.69-5.35h7.23c.1,1.38.59,2.48,1.47,3.28.88.8,2.1,1.21,3.64,1.21s2.81-.38,3.71-1.13c.9-.75,1.35-1.74,1.35-2.96,0-1-.31-1.82-.92-2.46-.61-.64-1.37-1.15-2.29-1.52-.92-.37-2.18-.78-3.78-1.23-2.19-.64-3.96-1.28-5.33-1.9-1.37-.63-2.54-1.57-3.52-2.84-.98-1.27-1.47-2.96-1.47-5.09,0-1.99.5-3.73,1.5-5.21,1-1.48,2.39-2.61,4.19-3.4,1.8-.79,3.86-1.18,6.17-1.18,3.47,0,6.29.84,8.46,2.53,2.17,1.69,3.37,4.04,3.59,7.06h-7.42c-.06-1.16-.55-2.11-1.47-2.87-.92-.75-2.13-1.13-3.64-1.13-1.32,0-2.37.34-3.16,1.01-.79.67-1.18,1.66-1.18,2.94,0,.9.3,1.65.89,2.24.59.6,1.33,1.08,2.22,1.45.88.37,2.13.8,3.74,1.28,2.18.64,3.97,1.29,5.35,1.93,1.38.64,2.57,1.61,3.57,2.89,1,1.29,1.5,2.97,1.5,5.06,0,1.8-.47,3.47-1.4,5.01-.93,1.54-2.3,2.77-4.1,3.69-1.8.92-3.94,1.37-6.41,1.37-2.35,0-4.46-.4-6.34-1.21Z" fill="#fff"/>
      <path d="M1758.18,218.73v33.65h-6.75v-33.65h6.75Z" fill="#fff"/>
      <path d="M1787.74,218.73v5.45h-8.97v28.2h-6.75v-28.2h-8.97v-5.45h24.68Z" fill="#fff"/>
      <path d="M1815.55,218.73v5.45h-8.97v28.2h-6.75v-28.2h-8.97v-5.45h24.68Z" fill="#fff"/>
      <path d="M1827.22,218.73v33.65h-6.75v-33.65h6.75Z" fill="#fff"/>
      <path d="M1862.65,252.38h-6.75l-15.28-23.09v23.09h-6.75v-33.7h6.75l15.28,23.14v-23.14h6.75v33.7Z" fill="#fff"/>
      <path d="M1892.73,228.85c-.77-1.41-1.83-2.49-3.18-3.23-1.35-.74-2.92-1.11-4.72-1.11-1.99,0-3.76.45-5.3,1.35-1.54.9-2.75,2.19-3.62,3.86-.87,1.67-1.3,3.6-1.3,5.79s.44,4.21,1.33,5.88c.88,1.67,2.11,2.96,3.69,3.86,1.58.9,3.41,1.35,5.5,1.35,2.57,0,4.68-.68,6.32-2.05,1.64-1.37,2.72-3.27,3.23-5.71h-11.57v-5.16h18.22v5.88c-.45,2.35-1.42,4.52-2.89,6.51-1.48,1.99-3.38,3.59-5.71,4.8s-4.94,1.81-7.83,1.81c-3.25,0-6.18-.73-8.8-2.19-2.62-1.46-4.68-3.5-6.17-6.1-1.49-2.6-2.24-5.56-2.24-8.87s.75-6.27,2.24-8.89c1.5-2.62,3.55-4.66,6.17-6.12,2.62-1.46,5.54-2.19,8.75-2.19,3.79,0,7.09.92,9.88,2.77,2.8,1.85,4.72,4.44,5.79,7.79h-7.76Z" fill="#fff"/>
      <path d="M1772.04,303.82h-13.4l-2.22,6.41h-7.09l12.1-33.7h7.86l12.1,33.7h-7.14l-2.22-6.41ZM1770.21,298.42l-4.87-14.08-4.87,14.08h9.74Z" fill="#fff"/>
      <path d="M1803.28,310.23l-7.42-13.11h-3.18v13.11h-6.75v-33.65h12.63c2.6,0,4.82.46,6.65,1.37,1.83.92,3.21,2.15,4.12,3.71.92,1.56,1.37,3.3,1.37,5.23,0,2.22-.64,4.22-1.93,6s-3.2,3.01-5.74,3.69l8.05,13.64h-7.81ZM1792.68,292.05h5.64c1.83,0,3.2-.44,4.1-1.33.9-.88,1.35-2.11,1.35-3.69s-.45-2.74-1.35-3.59c-.9-.85-2.27-1.28-4.1-1.28h-5.64v9.88Z" fill="#fff"/>
      <path d="M1823.58,282.03v8.44h11.33v5.35h-11.33v8.92h12.78v5.5h-19.52v-33.7h19.52v5.5h-12.78Z" fill="#fff"/>
      <path d="M1863.11,303.82h-13.4l-2.22,6.41h-7.09l12.1-33.7h7.86l12.1,33.7h-7.14l-2.22-6.41ZM1861.28,298.42l-4.87-14.08-4.87,14.08h9.74Z" fill="#fff"/>
    </g>
    <g>
      <path d="M23.88,610.83c-1.45-.62-2.59-1.51-3.43-2.67-.84-1.16-1.27-2.53-1.3-4.12h5.56c.07,1.06.45,1.9,1.13,2.52.68.62,1.61.93,2.8.93s2.16-.29,2.86-.87c.69-.58,1.04-1.34,1.04-2.28,0-.77-.24-1.4-.71-1.89-.47-.5-1.06-.88-1.76-1.17-.7-.28-1.68-.6-2.91-.95-1.68-.5-3.05-.98-4.1-1.47-1.05-.48-1.95-1.21-2.71-2.19-.75-.98-1.13-2.28-1.13-3.91,0-1.53.38-2.87,1.15-4,.77-1.14,1.84-2.01,3.23-2.62,1.38-.61,2.97-.91,4.75-.91,2.67,0,4.84.65,6.51,1.95,1.67,1.3,2.59,3.11,2.76,5.43h-5.71c-.05-.89-.43-1.63-1.13-2.21-.7-.58-1.64-.87-2.8-.87-1.01,0-1.82.26-2.43.78-.61.52-.91,1.27-.91,2.26,0,.69.23,1.27.69,1.72.46.46,1.03.83,1.71,1.11.68.29,1.64.61,2.87.98,1.68.49,3.05.99,4.12,1.48,1.06.5,1.98,1.24,2.74,2.23.77.99,1.15,2.29,1.15,3.89,0,1.38-.36,2.67-1.08,3.86-.72,1.19-1.77,2.13-3.15,2.84-1.38.71-3.03,1.06-4.93,1.06-1.81,0-3.43-.31-4.88-.93Z" fill="#fff"/>
      <path d="M46.47,610.83c-1.45-.62-2.59-1.51-3.43-2.67-.84-1.16-1.27-2.53-1.3-4.12h5.56c.07,1.06.45,1.9,1.13,2.52.68.62,1.61.93,2.8.93s2.16-.29,2.86-.87c.69-.58,1.04-1.34,1.04-2.28,0-.77-.24-1.4-.71-1.89-.47-.5-1.06-.88-1.76-1.17-.7-.28-1.68-.6-2.91-.95-1.68-.5-3.05-.98-4.1-1.47-1.05-.48-1.95-1.21-2.71-2.19-.75-.98-1.13-2.28-1.13-3.91,0-1.53.38-2.87,1.15-4,.77-1.14,1.84-2.01,3.23-2.62,1.38-.61,2.97-.91,4.75-.91,2.67,0,4.84.65,6.51,1.95,1.67,1.3,2.59,3.11,2.76,5.43h-5.71c-.05-.89-.43-1.63-1.13-2.21-.7-.58-1.64-.87-2.8-.87-1.01,0-1.82.26-2.43.78-.61.52-.91,1.27-.91,2.26,0,.69.23,1.27.69,1.72.46.46,1.03.83,1.71,1.11.68.29,1.64.61,2.87.98,1.68.49,3.05.99,4.12,1.48,1.06.5,1.98,1.24,2.74,2.23.77.99,1.15,2.29,1.15,3.89,0,1.38-.36,2.67-1.08,3.86-.72,1.19-1.77,2.13-3.15,2.84-1.38.71-3.03,1.06-4.93,1.06-1.81,0-3.43-.31-4.88-.93Z" fill="#fff"/>
      <path d="M82.61,585.61v4.19h-6.9v21.7h-5.19v-21.7h-6.9v-4.19h18.99Z" fill="#fff"/>
      <path d="M111.21,585.61v4.19h-10.79v6.64h8.27v4.12h-8.27v10.94h-5.19v-25.89h15.99Z" fill="#fff"/>
      <path d="M130.76,606.56h-10.31l-1.71,4.93h-5.45l9.31-25.93h6.05l9.31,25.93h-5.49l-1.71-4.93ZM129.35,602.41l-3.75-10.83-3.75,10.83h7.49Z" fill="#fff"/>
      <path d="M141.9,591.67c1.15-2.01,2.72-3.58,4.71-4.71,1.99-1.12,4.22-1.69,6.69-1.69,2.89,0,5.43.74,7.6,2.23,2.18,1.48,3.7,3.54,4.56,6.16h-5.97c-.59-1.24-1.43-2.16-2.5-2.78-1.08-.62-2.32-.93-3.73-.93-1.51,0-2.85.35-4.02,1.06-1.17.71-2.09,1.7-2.75,2.99-.66,1.29-.98,2.79-.98,4.53s.33,3.21.98,4.51c.66,1.3,1.57,2.3,2.75,3,1.17.7,2.52,1.06,4.02,1.06,1.41,0,2.65-.32,3.73-.95,1.08-.63,1.91-1.56,2.5-2.8h5.97c-.87,2.65-2.38,4.71-4.54,6.18-2.16,1.47-4.71,2.21-7.62,2.21-2.47,0-4.7-.56-6.69-1.69-1.99-1.12-3.56-2.69-4.71-4.69s-1.72-4.28-1.72-6.82.57-4.83,1.72-6.84Z" fill="#fff"/>
      <path d="M175.04,585.61v16.02c0,1.76.46,3.1,1.37,4.02.91.93,2.2,1.39,3.86,1.39s2.98-.46,3.89-1.39c.91-.93,1.37-2.27,1.37-4.02v-16.02h5.23v15.99c0,2.2-.48,4.06-1.43,5.58-.95,1.52-2.23,2.67-3.82,3.43-1.6.77-3.37,1.15-5.32,1.15s-3.68-.38-5.25-1.15c-1.57-.77-2.81-1.91-3.73-3.43-.92-1.52-1.37-3.38-1.37-5.58v-15.99h5.19Z" fill="#fff"/>
      <path d="M200.97,607.38h8.53v4.12h-13.72v-25.89h5.19v21.77Z" fill="#fff"/>
      <path d="M230.42,585.61v4.19h-6.9v21.7h-5.19v-21.7h-6.9v-4.19h18.99Z" fill="#fff"/>
      <path d="M254.79,585.61l-8.75,16.88v9.01h-5.19v-9.01l-8.79-16.88h5.86l5.56,11.83,5.53-11.83h5.79Z" fill="#fff"/>
      <path d="M69.56,651.89h8.53v4.12h-13.72v-25.89h5.19v21.77Z" fill="#fff"/>
      <path d="M86.58,630.12v25.89h-5.19v-25.89h5.19Z" fill="#fff"/>
      <path d="M109.99,644.92c.94,1.19,1.41,2.55,1.41,4.08,0,1.38-.34,2.6-1.02,3.65-.68,1.05-1.66,1.87-2.95,2.47-1.29.59-2.81.89-4.56.89h-11.16v-25.89h10.68c1.76,0,3.27.28,4.54.85,1.27.57,2.24,1.36,2.89,2.37.65,1.01.98,2.16.98,3.45,0,1.51-.4,2.77-1.21,3.78-.8,1.01-1.87,1.73-3.21,2.15,1.46.27,2.66,1,3.6,2.19ZM96.89,640.8h4.75c1.24,0,2.19-.28,2.86-.83.67-.56,1-1.35,1-2.39s-.33-1.84-1-2.41c-.67-.57-1.62-.85-2.86-.85h-4.75v6.49ZM105.07,650.89c.7-.59,1.06-1.43,1.06-2.52s-.37-1.98-1.11-2.62c-.74-.63-1.74-.95-3-.95h-5.12v6.97h5.23c1.26,0,2.24-.3,2.95-.89Z" fill="#fff"/>
      <path d="M128.9,656l-5.71-10.09h-2.45v10.09h-5.19v-25.89h9.72c2,0,3.71.35,5.12,1.06,1.41.7,2.47,1.66,3.17,2.86.7,1.2,1.06,2.54,1.06,4.02,0,1.71-.5,3.25-1.48,4.62-.99,1.37-2.46,2.32-4.41,2.84l6.19,10.5h-6.01ZM120.74,642.02h4.34c1.41,0,2.46-.34,3.15-1.02.69-.68,1.04-1.63,1.04-2.84s-.35-2.11-1.04-2.76c-.69-.65-1.74-.98-3.15-.98h-4.34v7.6Z" fill="#fff"/>
      <path d="M155.2,651.07h-10.31l-1.71,4.93h-5.45l9.31-25.93h6.05l9.31,25.93h-5.49l-1.71-4.93ZM153.79,646.92l-3.75-10.83-3.75,10.83h7.49Z" fill="#fff"/>
      <path d="M179.23,656l-5.71-10.09h-2.45v10.09h-5.19v-25.89h9.72c2,0,3.71.35,5.12,1.06,1.41.7,2.47,1.66,3.17,2.86.7,1.2,1.06,2.54,1.06,4.02,0,1.71-.5,3.25-1.48,4.62-.99,1.37-2.46,2.32-4.41,2.84l6.19,10.5h-6.01ZM171.07,642.02h4.34c1.41,0,2.46-.34,3.15-1.02.69-.68,1.04-1.63,1.04-2.84s-.35-2.11-1.04-2.76c-.69-.65-1.74-.98-3.15-.98h-4.34v7.6Z" fill="#fff"/>
      <path d="M210.24,630.12l-8.75,16.88v9.01h-5.19v-9.01l-8.79-16.88h5.86l5.56,11.83,5.53-11.83h5.79Z" fill="#fff"/>
    </g>
    <g>
      <path d="M1723.59,68.9c-2.34-1-4.19-2.44-5.55-4.32-1.36-1.88-2.06-4.1-2.1-6.66h9c.12,1.72.73,3.08,1.83,4.08,1.1,1,2.61,1.5,4.53,1.5s3.5-.47,4.62-1.41c1.12-.94,1.68-2.17,1.68-3.69,0-1.24-.38-2.26-1.14-3.06-.76-.8-1.71-1.43-2.85-1.89-1.14-.46-2.71-.97-4.71-1.53-2.72-.8-4.93-1.59-6.63-2.37-1.7-.78-3.16-1.96-4.38-3.54-1.22-1.58-1.83-3.69-1.83-6.33,0-2.48.62-4.64,1.86-6.48,1.24-1.84,2.98-3.25,5.22-4.23,2.24-.98,4.8-1.47,7.68-1.47,4.32,0,7.83,1.05,10.53,3.15s4.19,5.03,4.47,8.79h-9.24c-.08-1.44-.69-2.63-1.83-3.57-1.14-.94-2.65-1.41-4.53-1.41-1.64,0-2.95.42-3.93,1.26-.98.84-1.47,2.06-1.47,3.66,0,1.12.37,2.05,1.11,2.79s1.66,1.34,2.76,1.8,2.65.99,4.65,1.59c2.72.8,4.94,1.6,6.66,2.4,1.72.8,3.2,2,4.44,3.6,1.24,1.6,1.86,3.7,1.86,6.3,0,2.24-.58,4.32-1.74,6.24s-2.86,3.45-5.1,4.59c-2.24,1.14-4.9,1.71-7.98,1.71-2.92,0-5.55-.5-7.89-1.5Z" fill="#fff"/>
      <path d="M1782.06,28.1v6.78h-11.16v35.1h-8.4v-35.1h-11.16v-6.78h30.72Z" fill="#fff"/>
      <path d="M1813.86,62h-16.68l-2.76,7.98h-8.82l15.06-41.94h9.78l15.06,41.94h-8.88l-2.76-7.98ZM1811.58,55.28l-6.06-17.52-6.06,17.52h12.12Z" fill="#fff"/>
      <path d="M1857,28.1v6.78h-17.46v10.74h13.38v6.66h-13.38v17.7h-8.4V28.1h25.86Z" fill="#fff"/>
      <path d="M1888.8,28.1v6.78h-17.46v10.74h13.38v6.66h-13.38v17.7h-8.4V28.1h25.86Z" fill="#fff"/>
    </g>
    <g>
      <path d="M45.44,465.83v21.06h-4.22v-13.7l-5.64,13.7h-3.2l-5.67-13.7v13.7h-4.23v-21.06h4.8l6.7,15.66,6.7-15.66h4.77Z" fill="#fff"/>
      <path d="M53.83,469.24v5.28h7.09v3.35h-7.09v5.58h8v3.44h-12.22v-21.09h12.22v3.44h-8Z" fill="#fff"/>
      <path d="M66.04,470.76c.94-1.64,2.21-2.92,3.83-3.83,1.62-.92,3.44-1.37,5.45-1.37,2.35,0,4.42.6,6.19,1.81,1.77,1.21,3.01,2.88,3.71,5.01h-4.86c-.48-1.01-1.16-1.76-2.04-2.26-.88-.5-1.89-.75-3.03-.75-1.23,0-2.32.29-3.27.86-.96.57-1.7,1.38-2.23,2.43-.53,1.05-.8,2.27-.8,3.68s.27,2.61.8,3.67,1.28,1.87,2.23,2.44c.96.57,2.05.86,3.27.86,1.15,0,2.16-.26,3.03-.77.88-.51,1.55-1.27,2.04-2.28h4.86c-.7,2.15-1.94,3.83-3.7,5.02-1.76,1.2-3.83,1.8-6.2,1.8-2.01,0-3.83-.46-5.45-1.37-1.62-.92-2.9-2.19-3.83-3.82-.94-1.63-1.4-3.48-1.4-5.55s.47-3.93,1.4-5.57Z" fill="#fff"/>
      <path d="M106.31,465.83v21.06h-4.22v-8.96h-9.02v8.96h-4.23v-21.06h4.23v8.66h9.02v-8.66h4.22Z" fill="#fff"/>
      <path d="M123.39,482.88h-8.39l-1.39,4.01h-4.44l7.57-21.09h4.92l7.57,21.09h-4.47l-1.39-4.01ZM122.24,479.5l-3.05-8.81-3.05,8.81h6.1Z" fill="#fff"/>
      <path d="M150.1,486.89h-4.23l-9.57-14.46v14.46h-4.23v-21.09h4.23l9.57,14.48v-14.48h4.23v21.09Z" fill="#fff"/>
      <path d="M158.48,465.83v21.06h-4.23v-21.06h4.23Z" fill="#fff"/>
      <path d="M163.03,470.76c.94-1.64,2.21-2.92,3.83-3.83,1.62-.92,3.44-1.37,5.45-1.37,2.35,0,4.42.6,6.19,1.81,1.77,1.21,3.01,2.88,3.71,5.01h-4.86c-.48-1.01-1.16-1.76-2.04-2.26-.88-.5-1.89-.75-3.03-.75-1.23,0-2.32.29-3.27.86-.96.57-1.7,1.38-2.23,2.43-.53,1.05-.8,2.27-.8,3.68s.27,2.61.8,3.67,1.28,1.87,2.23,2.44c.96.57,2.05.86,3.27.86,1.15,0,2.16-.26,3.03-.77.88-.51,1.55-1.27,2.04-2.28h4.86c-.7,2.15-1.94,3.83-3.7,5.02-1.76,1.2-3.83,1.8-6.2,1.8-2.01,0-3.83-.46-5.45-1.37-1.62-.92-2.9-2.19-3.83-3.82-.94-1.63-1.4-3.48-1.4-5.55s.47-3.93,1.4-5.57Z" fill="#fff"/>
      <path d="M189.13,486.35c-1.18-.5-2.11-1.23-2.79-2.17-.68-.95-1.04-2.06-1.06-3.35h4.53c.06.87.37,1.55.92,2.05.55.5,1.31.75,2.28.75s1.76-.24,2.32-.71c.56-.47.85-1.09.85-1.86,0-.62-.19-1.14-.57-1.54-.38-.4-.86-.72-1.43-.95-.57-.23-1.36-.49-2.37-.77-1.37-.4-2.48-.8-3.33-1.19-.86-.39-1.59-.99-2.2-1.78-.61-.79-.92-1.86-.92-3.18,0-1.25.31-2.33.94-3.26.62-.93,1.5-1.63,2.63-2.13,1.13-.49,2.41-.74,3.86-.74,2.17,0,3.94.53,5.3,1.58,1.36,1.06,2.11,2.53,2.25,4.42h-4.65c-.04-.72-.35-1.32-.92-1.8-.57-.47-1.33-.71-2.28-.71-.83,0-1.48.21-1.98.63-.49.42-.74,1.04-.74,1.84,0,.56.19,1.03.56,1.4.37.37.83.67,1.39.91.55.23,1.33.5,2.34.8,1.37.4,2.48.81,3.35,1.21.86.4,1.61,1.01,2.23,1.81s.94,1.86.94,3.17c0,1.13-.29,2.17-.88,3.14-.58.97-1.44,1.74-2.56,2.31-1.13.57-2.46.86-4.01.86-1.47,0-2.79-.25-3.97-.75Z" fill="#fff"/>
      <path d="M215.73,485.72c-1.65-.93-2.96-2.21-3.92-3.85-.97-1.64-1.45-3.5-1.45-5.57s.48-3.9,1.45-5.54c.97-1.64,2.27-2.92,3.92-3.85,1.65-.93,3.46-1.39,5.43-1.39s3.81.46,5.45,1.39c1.64.93,2.94,2.21,3.89,3.85.96,1.64,1.43,3.49,1.43,5.54s-.48,3.93-1.43,5.57-2.26,2.92-3.91,3.85c-1.65.93-3.46,1.39-5.43,1.39s-3.78-.46-5.43-1.39ZM224.51,482.47c.97-.57,1.72-1.39,2.26-2.46.54-1.07.81-2.3.81-3.71s-.27-2.64-.81-3.7c-.54-1.06-1.3-1.87-2.26-2.43-.97-.56-2.08-.84-3.35-.84s-2.39.28-3.36.84c-.98.56-1.73,1.37-2.28,2.43-.54,1.06-.81,2.29-.81,3.7s.27,2.65.81,3.71c.54,1.07,1.3,1.89,2.28,2.46s2.1.86,3.36.86,2.38-.29,3.35-.86Z" fill="#fff"/>
      <path d="M248.08,465.83v3.41h-8.78v5.4h6.73v3.35h-6.73v8.9h-4.23v-21.06h13.01Z" fill="#fff"/>
      <path d="M49.44,502.04v21.06h-4.22v-13.7l-5.64,13.7h-3.2l-5.67-13.7v13.7h-4.23v-21.06h4.8l6.7,15.66,6.7-15.66h4.77Z" fill="#fff"/>
      <path d="M66.52,519.09h-8.39l-1.39,4.01h-4.44l7.57-21.09h4.92l7.57,21.09h-4.47l-1.39-4.01ZM65.37,515.71l-3.05-8.81-3.05,8.81h6.1Z" fill="#fff"/>
      <path d="M75.59,506.98c.94-1.64,2.21-2.92,3.83-3.83,1.62-.92,3.44-1.37,5.45-1.37,2.35,0,4.42.6,6.19,1.81,1.77,1.21,3.01,2.88,3.71,5.01h-4.86c-.48-1.01-1.16-1.76-2.04-2.26-.88-.5-1.89-.75-3.03-.75-1.23,0-2.32.29-3.27.86-.96.57-1.7,1.38-2.23,2.43-.53,1.05-.8,2.27-.8,3.68s.27,2.61.8,3.67,1.28,1.87,2.23,2.44c.96.57,2.05.86,3.27.86,1.15,0,2.16-.26,3.03-.77.88-.51,1.55-1.27,2.04-2.28h4.86c-.7,2.15-1.94,3.83-3.7,5.02-1.76,1.2-3.83,1.8-6.2,1.8-2.01,0-3.83-.46-5.45-1.37-1.62-.92-2.9-2.19-3.83-3.82-.94-1.63-1.4-3.48-1.4-5.55s.47-3.93,1.4-5.57Z" fill="#fff"/>
      <path d="M115.86,502.04v21.06h-4.22v-8.96h-9.02v8.96h-4.23v-21.06h4.23v8.66h9.02v-8.66h4.22Z" fill="#fff"/>
      <path d="M124.25,502.04v21.06h-4.23v-21.06h4.23Z" fill="#fff"/>
      <path d="M146.43,523.1h-4.23l-9.57-14.46v14.46h-4.23v-21.09h4.23l9.57,14.48v-14.48h4.23v21.09Z" fill="#fff"/>
      <path d="M154.82,505.45v5.28h7.09v3.35h-7.09v5.58h8v3.44h-12.22v-21.09h12.22v3.44h-8Z" fill="#fff"/>
      <path d="M169.95,522.56c-1.18-.5-2.11-1.23-2.79-2.17-.68-.95-1.04-2.06-1.06-3.35h4.53c.06.87.37,1.55.92,2.05.55.5,1.31.75,2.28.75s1.76-.24,2.32-.71c.56-.47.85-1.09.85-1.86,0-.62-.19-1.14-.57-1.54-.38-.4-.86-.72-1.43-.95-.57-.23-1.36-.49-2.37-.77-1.37-.4-2.48-.8-3.33-1.19-.86-.39-1.59-.99-2.2-1.78-.61-.79-.92-1.86-.92-3.18,0-1.25.31-2.33.94-3.26.62-.93,1.5-1.63,2.63-2.13,1.13-.49,2.41-.74,3.86-.74,2.17,0,3.94.53,5.3,1.58,1.36,1.06,2.11,2.53,2.25,4.42h-4.65c-.04-.72-.35-1.32-.92-1.8-.57-.47-1.33-.71-2.28-.71-.83,0-1.48.21-1.98.63-.49.42-.74,1.04-.74,1.84,0,.56.19,1.03.56,1.4.37.37.83.67,1.39.91.55.23,1.33.5,2.34.8,1.37.4,2.48.81,3.35,1.21.86.4,1.61,1.01,2.23,1.81s.94,1.86.94,3.17c0,1.13-.29,2.17-.88,3.14-.58.97-1.44,1.74-2.56,2.31-1.13.57-2.46.86-4.01.86-1.47,0-2.79-.25-3.97-.75Z" fill="#fff"/>
      <path d="M196.43,519.76h6.94v3.35h-11.17v-21.06h4.23v17.71Z" fill="#fff"/>
      <path d="M218.97,519.09h-8.39l-1.39,4.01h-4.44l7.57-21.09h4.92l7.57,21.09h-4.47l-1.39-4.01ZM217.83,515.71l-3.05-8.81-3.05,8.81h6.1Z" fill="#fff"/>
      <path d="M242.54,514.08c.76.97,1.15,2.07,1.15,3.32,0,1.13-.28,2.12-.83,2.97-.55.86-1.35,1.52-2.4,2.01-1.05.48-2.28.72-3.71.72h-9.08v-21.06h8.69c1.43,0,2.66.23,3.7.69,1.04.46,1.82,1.11,2.35,1.93.53.82.8,1.76.8,2.81,0,1.23-.33,2.25-.98,3.08-.65.83-1.52,1.41-2.61,1.75,1.19.22,2.16.81,2.93,1.78ZM231.89,510.73h3.86c1.01,0,1.78-.23,2.32-.68.54-.45.81-1.1.81-1.95s-.27-1.5-.81-1.96c-.54-.46-1.32-.69-2.32-.69h-3.86v5.28ZM238.54,518.94c.57-.48.86-1.17.86-2.05s-.3-1.61-.91-2.13c-.6-.51-1.42-.77-2.44-.77h-4.16v5.67h4.25c1.03,0,1.83-.24,2.4-.72Z" fill="#fff"/>
    </g>
    <g>
      <path d="M28.27,230.95v4.22h-6.95v21.85h-5.23v-21.85h-6.95v-4.22h19.13Z" fill="#fff"/>
      <path d="M53.71,230.95v26.07h-5.23v-11.09h-11.17v11.09h-5.23v-26.07h5.23v10.72h11.17v-10.72h5.23Z" fill="#fff"/>
      <path d="M64.09,235.17v6.54h8.78v4.15h-8.78v6.91h9.9v4.26h-15.13v-26.11h15.13v4.26h-9.9Z" fill="#fff"/>
      <path d="M92.19,257.02l-5.75-10.16h-2.47v10.16h-5.23v-26.07h9.79c2.02,0,3.74.35,5.16,1.06,1.42.71,2.48,1.67,3.19,2.88.71,1.21,1.06,2.56,1.06,4.05,0,1.72-.5,3.27-1.49,4.65-1,1.38-2.48,2.33-4.45,2.86l6.24,10.57h-6.05ZM83.97,242.94h4.37c1.42,0,2.48-.34,3.18-1.03.7-.68,1.05-1.64,1.05-2.86s-.35-2.12-1.05-2.78c-.7-.66-1.76-.99-3.18-.99h-4.37v7.66Z" fill="#fff"/>
      <path d="M131.11,230.95v26.07h-5.23v-16.96l-6.99,16.96h-3.96l-7.02-16.96v16.96h-5.23v-26.07h5.94l8.29,19.39,8.29-19.39h5.9Z" fill="#fff"/>
      <path d="M141.65,255.56c-2.04-1.15-3.66-2.73-4.86-4.76s-1.79-4.33-1.79-6.89.6-4.82,1.79-6.85,2.81-3.62,4.86-4.76c2.04-1.15,4.28-1.72,6.72-1.72s4.71.57,6.74,1.72c2.03,1.15,3.64,2.73,4.82,4.76,1.18,2.03,1.77,4.31,1.77,6.85s-.59,4.86-1.77,6.89c-1.18,2.03-2.8,3.62-4.84,4.76-2.04,1.15-4.28,1.72-6.72,1.72s-4.68-.57-6.72-1.72ZM152.52,251.55c1.2-.71,2.13-1.72,2.8-3.04.67-1.32,1.01-2.85,1.01-4.6s-.34-3.27-1.01-4.58c-.67-1.31-1.61-2.31-2.8-3.01s-2.58-1.05-4.15-1.05-2.96.35-4.17,1.05-2.15,1.7-2.82,3.01c-.67,1.31-1.01,2.83-1.01,4.58s.34,3.28,1.01,4.6c.67,1.32,1.61,2.33,2.82,3.04,1.21.71,2.6,1.06,4.17,1.06s2.95-.35,4.15-1.06Z" fill="#fff"/>
      <path d="M181.69,230.95v4.22h-10.87v6.69h8.33v4.15h-8.33v11.02h-5.23v-26.07h16.1Z" fill="#fff"/>
      <path d="M190.62,252.87h8.59v4.15h-13.82v-26.07h5.23v21.93Z" fill="#fff"/>
      <path d="M207.69,230.95v16.14c0,1.77.46,3.12,1.38,4.05.92.93,2.22,1.4,3.89,1.4s3-.47,3.92-1.4c.92-.93,1.38-2.28,1.38-4.05v-16.14h5.27v16.1c0,2.22-.48,4.09-1.44,5.62-.96,1.53-2.24,2.68-3.85,3.46-1.61.77-3.39,1.16-5.36,1.16s-3.7-.39-5.29-1.16c-1.58-.77-2.83-1.92-3.75-3.46-.92-1.53-1.38-3.41-1.38-5.62v-16.1h5.23Z" fill="#fff"/>
      <path d="M233.8,230.95v26.07h-5.23v-26.07h5.23Z" fill="#fff"/>
      <path d="M255.3,232.55c2.08,1.07,3.69,2.6,4.82,4.58,1.13,1.98,1.7,4.28,1.7,6.89s-.57,4.9-1.7,6.85c-1.13,1.96-2.74,3.47-4.82,4.54-2.08,1.07-4.49,1.61-7.23,1.61h-9.11v-26.07h9.11c2.74,0,5.15.54,7.23,1.61ZM254.24,250.33c1.49-1.49,2.24-3.6,2.24-6.31s-.75-4.84-2.24-6.37c-1.49-1.53-3.61-2.3-6.35-2.3h-3.7v17.22h3.7c2.74,0,4.86-.75,6.35-2.24Z" fill="#fff"/>
      <path d="M109.41,297.7h8.59v4.15h-13.82v-26.07h5.23v21.93Z" fill="#fff"/>
      <path d="M137.31,296.88h-10.38l-1.72,4.97h-5.49l9.38-26.11h6.09l9.38,26.11h-5.53l-1.72-4.97ZM135.89,292.7l-3.77-10.91-3.77,10.91h7.55Z" fill="#fff"/>
      <path d="M166.49,290.68c.95,1.2,1.42,2.57,1.42,4.11,0,1.4-.34,2.62-1.03,3.68-.69,1.06-1.68,1.89-2.97,2.48s-2.83.9-4.59.9h-11.24v-26.07h10.76c1.77,0,3.29.29,4.58.86,1.28.57,2.25,1.37,2.91,2.39.66,1.02.99,2.18.99,3.47,0,1.52-.4,2.79-1.21,3.81-.81,1.02-1.89,1.74-3.23,2.17,1.47.27,2.68,1.01,3.62,2.2ZM153.3,286.53h4.78c1.24,0,2.2-.28,2.88-.84.67-.56,1.01-1.36,1.01-2.41s-.34-1.85-1.01-2.43c-.67-.57-1.63-.86-2.88-.86h-4.78v6.54ZM161.54,296.69c.71-.6,1.06-1.44,1.06-2.54s-.37-2-1.12-2.63c-.75-.63-1.76-.95-3.03-.95h-5.16v7.02h5.27c1.27,0,2.26-.3,2.97-.9Z" fill="#fff"/>
    </g>
    <g>
      <path d="M61.68,27.19l-3.37-5.95h-1.44v5.95h-3.06v-15.27h5.73c1.18,0,2.19.21,3.02.62s1.45.98,1.87,1.68c.42.71.62,1.5.62,2.37,0,1.01-.29,1.91-.88,2.72-.58.81-1.45,1.37-2.6,1.67l3.65,6.19h-3.54ZM56.87,18.95h2.56c.83,0,1.45-.2,1.86-.6.41-.4.61-.96.61-1.67s-.2-1.24-.61-1.63c-.41-.39-1.03-.58-1.86-.58h-2.56v4.48Z" fill="#fff"/>
      <path d="M70.97,26.34c-1.2-.67-2.14-1.6-2.84-2.79-.7-1.19-1.05-2.53-1.05-4.04s.35-2.83,1.05-4.01c.7-1.19,1.65-2.12,2.84-2.79,1.2-.67,2.51-1.01,3.94-1.01s2.76.34,3.95,1.01c1.19.67,2.13,1.6,2.82,2.79.69,1.19,1.04,2.53,1.04,4.01s-.35,2.85-1.04,4.04c-.69,1.19-1.64,2.12-2.83,2.79-1.2.67-2.51,1.01-3.94,1.01s-2.74-.34-3.94-1.01ZM77.34,23.99c.7-.42,1.25-1.01,1.64-1.78.39-.77.59-1.67.59-2.69s-.2-1.91-.59-2.68c-.39-.77-.94-1.35-1.64-1.76-.7-.41-1.51-.61-2.43-.61s-1.73.2-2.44.61c-.71.41-1.26,1-1.65,1.76-.39.77-.59,1.66-.59,2.68s.2,1.92.59,2.69c.39.77.94,1.37,1.65,1.78.71.42,1.52.62,2.44.62s1.73-.21,2.43-.62Z" fill="#fff"/>
      <path d="M95.78,20.65c.55.7.83,1.5.83,2.41,0,.82-.2,1.54-.6,2.15-.4.62-.98,1.1-1.74,1.45s-1.66.52-2.69.52h-6.58v-15.27h6.3c1.04,0,1.93.17,2.68.5s1.32.8,1.71,1.4c.39.6.58,1.28.58,2.03,0,.89-.24,1.63-.71,2.23-.47.6-1.1,1.02-1.89,1.27.86.16,1.57.59,2.12,1.29ZM88.06,18.22h2.8c.73,0,1.29-.16,1.68-.49.39-.33.59-.8.59-1.41s-.2-1.09-.59-1.42c-.39-.34-.96-.5-1.68-.5h-2.8v3.83ZM92.88,24.17c.42-.35.62-.85.62-1.49s-.22-1.17-.66-1.54c-.44-.37-1.03-.56-1.77-.56h-3.02v4.11h3.08c.74,0,1.32-.17,1.74-.52Z" fill="#fff"/>
      <path d="M102.21,26.34c-1.2-.67-2.14-1.6-2.84-2.79-.7-1.19-1.05-2.53-1.05-4.04s.35-2.83,1.05-4.01c.7-1.19,1.65-2.12,2.84-2.79,1.2-.67,2.51-1.01,3.94-1.01s2.76.34,3.95,1.01c1.19.67,2.13,1.6,2.82,2.79.69,1.19,1.04,2.53,1.04,4.01s-.35,2.85-1.04,4.04c-.69,1.19-1.64,2.12-2.83,2.79-1.2.67-2.51,1.01-3.94,1.01s-2.74-.34-3.94-1.01ZM108.58,23.99c.7-.42,1.25-1.01,1.64-1.78.39-.77.59-1.67.59-2.69s-.2-1.91-.59-2.68c-.39-.77-.94-1.35-1.64-1.76-.7-.41-1.51-.61-2.43-.61s-1.73.2-2.44.61c-.71.41-1.26,1-1.65,1.76-.39.77-.59,1.66-.59,2.68s.2,1.92.59,2.69c.39.77.94,1.37,1.65,1.78.71.42,1.52.62,2.44.62s1.73-.21,2.43-.62Z" fill="#fff"/>
      <path d="M126.62,11.92v2.47h-4.07v12.8h-3.06v-12.8h-4.07v-2.47h11.2Z" fill="#fff"/>
      <path d="M131.91,11.92v15.27h-3.06v-15.27h3.06Z" fill="#fff"/>
      <path d="M135.21,15.5c.68-1.19,1.6-2.11,2.78-2.78,1.17-.66,2.49-1,3.95-1,1.71,0,3.2.44,4.48,1.31,1.28.88,2.18,2.09,2.69,3.63h-3.52c-.35-.73-.84-1.28-1.48-1.64-.63-.36-1.37-.55-2.2-.55-.89,0-1.68.21-2.37.62-.69.42-1.23,1-1.62,1.76-.39.76-.58,1.65-.58,2.67s.19,1.89.58,2.66c.39.77.93,1.36,1.62,1.77.69.42,1.48.62,2.37.62.83,0,1.56-.19,2.2-.56.63-.37,1.13-.92,1.48-1.65h3.52c-.51,1.56-1.4,2.77-2.68,3.64-1.28.87-2.77,1.3-4.5,1.3-1.46,0-2.77-.33-3.95-1-1.17-.66-2.1-1.59-2.78-2.77s-1.02-2.52-1.02-4.02.34-2.85,1.02-4.04Z" fill="#fff"/>
      <path d="M154.13,26.8c-.85-.36-1.53-.89-2.02-1.58-.5-.69-.75-1.49-.77-2.43h3.28c.04.63.27,1.12.67,1.49.4.36.95.55,1.65.55s1.28-.17,1.68-.51c.41-.34.61-.79.61-1.35,0-.45-.14-.82-.42-1.12-.28-.29-.62-.52-1.04-.69-.42-.17-.99-.35-1.72-.56-.99-.29-1.8-.58-2.42-.86-.62-.28-1.15-.71-1.6-1.29-.45-.58-.67-1.35-.67-2.31,0-.9.23-1.69.68-2.36.45-.67,1.09-1.18,1.9-1.54s1.75-.54,2.8-.54c1.58,0,2.85.38,3.84,1.15.98.77,1.53,1.83,1.63,3.2h-3.37c-.03-.52-.25-.96-.67-1.3s-.97-.51-1.65-.51c-.6,0-1.08.15-1.43.46-.36.31-.54.75-.54,1.33,0,.41.13.75.4,1.02.27.27.6.49,1.01.66.4.17.97.36,1.7.58.99.29,1.8.58,2.43.88.63.29,1.17.73,1.62,1.31.45.58.68,1.35.68,2.3,0,.82-.21,1.57-.63,2.27-.42.7-1.04,1.26-1.86,1.67s-1.79.62-2.91.62c-1.06,0-2.02-.18-2.88-.55Z" fill="#fff"/>
      <path d="M179.62,24.28h-6.08l-1.01,2.91h-3.22l5.49-15.29h3.57l5.49,15.29h-3.24l-1.01-2.91ZM178.79,21.83l-2.21-6.39-2.21,6.39h4.42Z" fill="#fff"/>
      <path d="M198.98,27.19h-3.06l-6.93-10.48v10.48h-3.06v-15.29h3.06l6.93,10.5v-10.5h3.06v15.29Z" fill="#fff"/>
      <path d="M211.57,12.87c1.22.63,2.16,1.52,2.82,2.68.66,1.16,1,2.5,1,4.04s-.33,2.87-1,4.01c-.66,1.15-1.6,2.03-2.82,2.66-1.22.63-2.63.94-4.23.94h-5.34v-15.27h5.34c1.6,0,3.01.31,4.23.94ZM210.94,23.28c.88-.88,1.31-2.11,1.31-3.7s-.44-2.83-1.31-3.73c-.88-.9-2.11-1.35-3.72-1.35h-2.17v10.08h2.17c1.6,0,2.84-.44,3.72-1.31Z" fill="#fff"/>
      <path d="M64.62,38.17v15.27h-3.06v-9.93l-4.09,9.93h-2.32l-4.11-9.93v9.93h-3.06v-15.27h3.48l4.86,11.35,4.86-11.35h3.46Z" fill="#fff"/>
      <path d="M70.7,40.64v3.83h5.14v2.43h-5.14v4.05h5.8v2.49h-8.86v-15.29h8.86v2.49h-5.8Z" fill="#fff"/>
      <path d="M79.55,41.75c.68-1.19,1.6-2.11,2.78-2.78,1.17-.66,2.49-1,3.95-1,1.71,0,3.2.44,4.48,1.31,1.28.88,2.18,2.09,2.69,3.63h-3.52c-.35-.73-.84-1.28-1.48-1.64-.63-.36-1.37-.55-2.2-.55-.89,0-1.68.21-2.37.62-.69.42-1.23,1-1.62,1.76-.39.76-.58,1.65-.58,2.67s.19,1.89.58,2.66c.39.77.93,1.36,1.62,1.77.69.42,1.48.62,2.37.62.83,0,1.56-.19,2.2-.56.63-.37,1.13-.92,1.48-1.65h3.52c-.51,1.56-1.4,2.77-2.68,3.64-1.28.87-2.77,1.3-4.5,1.3-1.46,0-2.77-.33-3.95-1-1.17-.66-2.1-1.59-2.78-2.77s-1.02-2.52-1.02-4.02.34-2.85,1.02-4.04Z" fill="#fff"/>
      <path d="M108.74,38.17v15.27h-3.06v-6.5h-6.54v6.5h-3.06v-15.27h3.06v6.28h6.54v-6.28h3.06Z" fill="#fff"/>
      <path d="M121.12,50.53h-6.08l-1.01,2.91h-3.22l5.49-15.29h3.57l5.49,15.29h-3.24l-1.01-2.91ZM120.29,48.08l-2.21-6.39-2.21,6.39h4.42Z" fill="#fff"/>
      <path d="M137.81,38.17v2.47h-4.07v12.8h-3.06v-12.8h-4.07v-2.47h11.2Z" fill="#fff"/>
      <path d="M147.91,53.44l-3.37-5.95h-1.44v5.95h-3.06v-15.27h5.73c1.18,0,2.19.21,3.02.62s1.45.98,1.87,1.68c.42.71.62,1.5.62,2.37,0,1.01-.29,1.91-.88,2.72-.58.81-1.45,1.37-2.6,1.67l3.65,6.19h-3.54ZM143.1,45.19h2.56c.83,0,1.45-.2,1.86-.6.41-.4.61-.96.61-1.67s-.2-1.24-.61-1.63c-.41-.39-1.03-.58-1.86-.58h-2.56v4.48Z" fill="#fff"/>
      <path d="M157.21,52.59c-1.2-.67-2.14-1.6-2.84-2.79-.7-1.19-1.05-2.53-1.05-4.04s.35-2.83,1.05-4.01c.7-1.19,1.65-2.12,2.84-2.79,1.2-.67,2.51-1.01,3.94-1.01s2.76.34,3.95,1.01c1.19.67,2.13,1.6,2.82,2.79.69,1.19,1.04,2.53,1.04,4.01s-.35,2.85-1.04,4.04c-.69,1.19-1.64,2.12-2.83,2.79-1.2.67-2.51,1.01-3.94,1.01s-2.74-.34-3.94-1.01ZM163.58,50.24c.7-.42,1.25-1.01,1.64-1.78.39-.77.59-1.67.59-2.69s-.2-1.91-.59-2.68c-.39-.77-.94-1.35-1.64-1.76-.7-.41-1.51-.61-2.43-.61s-1.73.2-2.44.61c-.71.41-1.26,1-1.65,1.76-.39.77-.59,1.66-.59,2.68s.2,1.92.59,2.69c.39.77.94,1.37,1.65,1.78.71.42,1.52.62,2.44.62s1.73-.21,2.43-.62Z" fill="#fff"/>
      <path d="M184.29,53.44h-3.06l-6.93-10.48v10.48h-3.06v-15.29h3.06l6.93,10.5v-10.5h3.06v15.29Z" fill="#fff"/>
      <path d="M190.37,38.17v15.27h-3.06v-15.27h3.06Z" fill="#fff"/>
      <path d="M193.66,41.75c.68-1.19,1.6-2.11,2.78-2.78,1.17-.66,2.49-1,3.95-1,1.71,0,3.2.44,4.48,1.31,1.28.88,2.18,2.09,2.69,3.63h-3.52c-.35-.73-.84-1.28-1.48-1.64-.63-.36-1.37-.55-2.2-.55-.89,0-1.68.21-2.37.62-.69.42-1.23,1-1.62,1.76-.39.76-.58,1.65-.58,2.67s.19,1.89.58,2.66c.39.77.93,1.36,1.62,1.77.69.42,1.48.62,2.37.62.83,0,1.56-.19,2.2-.56.63-.37,1.13-.92,1.48-1.65h3.52c-.51,1.56-1.4,2.77-2.68,3.64-1.28.87-2.77,1.3-4.5,1.3-1.46,0-2.77-.33-3.95-1-1.17-.66-2.1-1.59-2.78-2.77s-1.02-2.52-1.02-4.02.34-2.85,1.02-4.04Z" fill="#fff"/>
      <path d="M212.58,53.05c-.85-.36-1.53-.89-2.02-1.58-.5-.69-.75-1.49-.77-2.43h3.28c.04.63.27,1.12.67,1.49.4.36.95.55,1.65.55s1.28-.17,1.68-.51c.41-.34.61-.79.61-1.35,0-.45-.14-.82-.42-1.12-.28-.29-.62-.52-1.04-.69-.42-.17-.99-.35-1.72-.56-.99-.29-1.8-.58-2.42-.86-.62-.28-1.15-.71-1.6-1.29-.45-.58-.67-1.35-.67-2.31,0-.9.23-1.69.68-2.36.45-.67,1.09-1.18,1.9-1.54s1.75-.54,2.8-.54c1.58,0,2.85.38,3.84,1.15.98.77,1.53,1.83,1.63,3.2h-3.37c-.03-.52-.25-.96-.67-1.3s-.97-.51-1.65-.51c-.6,0-1.08.15-1.43.46-.36.31-.54.75-.54,1.33,0,.41.13.75.4,1.02.27.27.6.49,1.01.66.4.17.97.36,1.7.58.99.29,1.8.58,2.43.88.63.29,1.17.73,1.62,1.31.45.58.68,1.35.68,2.3,0,.82-.21,1.57-.63,2.27-.42.7-1.04,1.26-1.86,1.67s-1.79.62-2.91.62c-1.06,0-2.02-.18-2.88-.55Z" fill="#fff"/>
      <path d="M66.63,77.26h5.03v2.43h-8.09v-15.27h3.06v12.84Z" fill="#fff"/>
      <path d="M82.97,76.78h-6.08l-1.01,2.91h-3.22l5.49-15.29h3.57l5.49,15.29h-3.24l-1.01-2.91ZM82.14,74.33l-2.21-6.39-2.21,6.39h4.42Z" fill="#fff"/>
      <path d="M100.06,73.15c.55.7.83,1.5.83,2.41,0,.82-.2,1.54-.6,2.15-.4.62-.98,1.1-1.74,1.45s-1.66.52-2.69.52h-6.58v-15.27h6.3c1.04,0,1.93.17,2.68.5s1.32.8,1.71,1.4c.39.6.58,1.28.58,2.03,0,.89-.24,1.63-.71,2.23-.47.6-1.1,1.02-1.89,1.27.86.16,1.57.59,2.12,1.29ZM92.33,70.72h2.8c.73,0,1.29-.16,1.68-.49.39-.33.59-.8.59-1.41s-.2-1.09-.59-1.42c-.39-.34-.96-.5-1.68-.5h-2.8v3.83ZM97.16,76.67c.42-.35.62-.85.62-1.49s-.22-1.17-.66-1.54c-.44-.37-1.03-.56-1.77-.56h-3.02v4.11h3.08c.74,0,1.32-.17,1.74-.52Z" fill="#fff"/>
      <path d="M106.49,78.84c-1.2-.67-2.14-1.6-2.84-2.79-.7-1.19-1.05-2.53-1.05-4.04s.35-2.83,1.05-4.01c.7-1.19,1.65-2.12,2.84-2.79,1.2-.67,2.51-1.01,3.94-1.01s2.76.34,3.95,1.01c1.19.67,2.13,1.6,2.82,2.79.69,1.19,1.04,2.53,1.04,4.01s-.35,2.85-1.04,4.04c-.69,1.19-1.64,2.12-2.83,2.79-1.2.67-2.51,1.01-3.94,1.01s-2.74-.34-3.94-1.01ZM112.85,76.48c.7-.42,1.25-1.01,1.64-1.78.39-.77.59-1.67.59-2.69s-.2-1.91-.59-2.68c-.39-.77-.94-1.35-1.64-1.76-.7-.41-1.51-.61-2.43-.61s-1.73.2-2.44.61c-.71.41-1.26,1-1.65,1.76-.39.77-.59,1.66-.59,2.68s.2,1.92.59,2.69c.39.77.94,1.37,1.65,1.78.71.42,1.52.62,2.44.62s1.73-.21,2.43-.62Z" fill="#fff"/>
      <path d="M128.38,79.69l-3.37-5.95h-1.44v5.95h-3.06v-15.27h5.73c1.18,0,2.19.21,3.02.62s1.45.98,1.87,1.68c.42.71.62,1.5.62,2.37,0,1.01-.29,1.91-.88,2.72-.58.81-1.45,1.37-2.6,1.67l3.65,6.19h-3.54ZM123.57,71.44h2.56c.83,0,1.45-.2,1.86-.6.41-.4.61-.96.61-1.67s-.2-1.24-.61-1.63c-.41-.39-1.03-.58-1.86-.58h-2.56v4.48Z" fill="#fff"/>
      <path d="M143.89,76.78h-6.08l-1.01,2.91h-3.22l5.49-15.29h3.57l5.49,15.29h-3.24l-1.01-2.91ZM143.06,74.33l-2.21-6.39-2.21,6.39h4.42Z" fill="#fff"/>
      <path d="M160.58,64.42v2.47h-4.07v12.8h-3.06v-12.8h-4.07v-2.47h11.2Z" fill="#fff"/>
      <path d="M165.96,78.84c-1.2-.67-2.14-1.6-2.84-2.79-.7-1.19-1.05-2.53-1.05-4.04s.35-2.83,1.05-4.01c.7-1.19,1.65-2.12,2.84-2.79,1.2-.67,2.51-1.01,3.94-1.01s2.76.34,3.95,1.01c1.19.67,2.13,1.6,2.82,2.79.69,1.19,1.04,2.53,1.04,4.01s-.35,2.85-1.04,4.04c-.69,1.19-1.64,2.12-2.83,2.79-1.2.67-2.51,1.01-3.94,1.01s-2.74-.34-3.94-1.01ZM172.33,76.48c.7-.42,1.25-1.01,1.64-1.78.39-.77.59-1.67.59-2.69s-.2-1.91-.59-2.68c-.39-.77-.94-1.35-1.64-1.76-.7-.41-1.51-.61-2.43-.61s-1.73.2-2.44.61c-.71.41-1.26,1-1.65,1.76-.39.77-.59,1.66-.59,2.68s.2,1.92.59,2.69c.39.77.94,1.37,1.65,1.78.71.42,1.52.62,2.44.62s1.73-.21,2.43-.62Z" fill="#fff"/>
      <path d="M187.86,79.69l-3.37-5.95h-1.44v5.95h-3.06v-15.27h5.73c1.18,0,2.19.21,3.02.62s1.45.98,1.87,1.68c.42.71.62,1.5.62,2.37,0,1.01-.29,1.91-.88,2.72-.58.81-1.45,1.37-2.6,1.67l3.65,6.19h-3.54ZM183.04,71.44h2.56c.83,0,1.45-.2,1.86-.6.41-.4.61-.96.61-1.67s-.2-1.24-.61-1.63c-.41-.39-1.03-.58-1.86-.58h-2.56v4.48Z" fill="#fff"/>
      <path d="M206.14,64.42l-5.16,9.95v5.32h-3.06v-5.32l-5.18-9.95h3.46l3.28,6.98,3.26-6.98h3.41Z" fill="#fff"/>
    </g>
    <g>
      <path d="M664.19,153.46h13.31v6.42h-21.41v-40.39h8.1v33.96Z" fill="#fff"/>
      <path d="M707.41,152.19h-16.09l-2.66,7.7h-8.51l14.52-40.45h9.43l14.52,40.45h-8.56l-2.66-7.7ZM705.21,145.71l-5.84-16.9-5.84,16.9h11.69Z" fill="#fff"/>
      <path d="M752.6,142.58c1.47,1.85,2.2,3.97,2.2,6.36,0,2.16-.53,4.06-1.59,5.7-1.06,1.64-2.59,2.92-4.6,3.85-2.01.93-4.38,1.39-7.12,1.39h-17.42v-40.39h16.66c2.74,0,5.1.44,7.09,1.33,1.99.89,3.49,2.12,4.51,3.7,1.02,1.58,1.53,3.38,1.53,5.38,0,2.35-.63,4.32-1.88,5.9-1.25,1.58-2.92,2.7-5,3.36,2.28.42,4.15,1.56,5.61,3.41ZM732.17,136.16h7.41c1.93,0,3.41-.43,4.46-1.3,1.04-.87,1.56-2.11,1.56-3.73s-.52-2.87-1.56-3.76c-1.04-.89-2.53-1.33-4.46-1.33h-7.41v10.13ZM744.93,151.9c1.1-.93,1.65-2.24,1.65-3.93s-.58-3.1-1.74-4.08c-1.16-.98-2.72-1.48-4.69-1.48h-7.98v10.88h8.16c1.97,0,3.5-.46,4.6-1.39Z" fill="#fff"/>
      <path d="M773.14,125.17v-7.46h13.94v42.18h-8.33v-34.72h-5.61Z" fill="#fff"/>
    </g>
    <g>
      <path d="M316.33,127.19h-3.64l-.6,1.98h-1.92l3.28-10.43h2.13l3.28,10.43h-1.94l-.6-1.98ZM315.83,125.52l-1.32-4.36-1.32,4.36h2.64Z" fill="#fff"/>
      <path d="M321.93,118.76v10.42h-1.83v-10.42h1.83Z" fill="#fff"/>
      <path d="M328.45,129.17l-2.02-4.06h-.86v4.06h-1.83v-10.42h3.43c.71,0,1.31.14,1.81.43.5.28.87.67,1.12,1.15.25.48.37,1.02.37,1.62,0,.69-.17,1.31-.52,1.86-.35.55-.87.93-1.56,1.14l2.19,4.22h-2.12ZM325.57,123.55h1.53c.5,0,.87-.14,1.11-.41.24-.27.37-.65.37-1.14s-.12-.85-.37-1.11c-.24-.26-.62-.4-1.11-.4h-1.53v3.06Z" fill="#fff"/>
      <path d="M335.4,121.2c.41-.81.96-1.44,1.66-1.9s1.49-.68,2.36-.68c1.02,0,1.92.3,2.68.9.77.6,1.3,1.42,1.61,2.48h-2.11c-.21-.5-.5-.87-.88-1.12-.38-.25-.82-.37-1.32-.37-.53,0-1.01.14-1.42.43-.41.28-.74.68-.97,1.2-.23.52-.35,1.12-.35,1.82s.12,1.29.35,1.81c.23.52.55.93.97,1.21s.89.43,1.42.43c.5,0,.94-.13,1.32-.38.38-.25.67-.63.88-1.13h2.11c-.31,1.06-.84,1.89-1.6,2.48-.76.59-1.66.89-2.69.89-.87,0-1.66-.23-2.36-.68s-1.26-1.08-1.66-1.89c-.41-.81-.61-1.72-.61-2.75s.2-1.94.61-2.75Z" fill="#fff"/>
      <path d="M347.17,128.59c-.72-.46-1.28-1.09-1.7-1.9-.42-.81-.63-1.73-.63-2.75s.21-1.93.63-2.74c.42-.81.99-1.44,1.7-1.9.72-.46,1.5-.69,2.36-.69s1.65.23,2.36.69c.71.46,1.27,1.09,1.69,1.9.41.81.62,1.72.62,2.74s-.21,1.94-.62,2.75c-.41.81-.98,1.45-1.69,1.9s-1.5.69-2.36.69-1.64-.23-2.36-.69ZM350.98,126.99c.42-.28.75-.69.98-1.22.24-.53.35-1.14.35-1.84s-.12-1.31-.35-1.83c-.24-.52-.56-.92-.98-1.2-.42-.28-.9-.42-1.45-.42s-1.04.14-1.46.42c-.42.28-.75.68-.99,1.2-.24.52-.35,1.13-.35,1.83s.12,1.31.35,1.84c.24.53.56.93.99,1.22.42.28.91.43,1.46.43s1.03-.14,1.45-.43Z" fill="#fff"/>
      <path d="M363.37,129.17h-1.83l-4.15-7.15v7.15h-1.83v-10.43h1.83l4.15,7.16v-7.16h1.83v10.43Z" fill="#fff"/>
      <path d="M370.91,119.4c.73.43,1.29,1.04,1.69,1.83.4.79.6,1.71.6,2.75s-.2,1.96-.6,2.74c-.4.78-.96,1.39-1.69,1.81s-1.57.64-2.53.64h-3.19v-10.42h3.19c.96,0,1.8.21,2.53.64ZM370.53,126.5c.52-.6.79-1.44.79-2.52s-.26-1.93-.79-2.54-1.27-.92-2.22-.92h-1.3v6.88h1.3c.96,0,1.7-.3,2.22-.9Z" fill="#fff"/>
      <path d="M376.4,118.76v10.42h-1.83v-10.42h1.83Z" fill="#fff"/>
      <path d="M384.42,118.76v1.69h-2.43v8.73h-1.83v-8.73h-2.43v-1.69h6.7Z" fill="#fff"/>
      <path d="M387.58,118.76v10.42h-1.83v-10.42h1.83Z" fill="#fff"/>
      <path d="M391.28,128.59c-.72-.46-1.28-1.09-1.7-1.9-.42-.81-.63-1.73-.63-2.75s.21-1.93.63-2.74c.42-.81.99-1.44,1.7-1.9.72-.46,1.5-.69,2.36-.69s1.65.23,2.36.69c.71.46,1.27,1.09,1.69,1.9.41.81.62,1.72.62,2.74s-.21,1.94-.62,2.75c-.41.81-.98,1.45-1.69,1.9s-1.5.69-2.36.69-1.64-.23-2.36-.69ZM395.08,126.99c.42-.28.75-.69.98-1.22.24-.53.35-1.14.35-1.84s-.12-1.31-.35-1.83c-.24-.52-.56-.92-.98-1.2-.42-.28-.9-.42-1.45-.42s-1.04.14-1.46.42c-.42.28-.75.68-.99,1.2-.24.52-.35,1.13-.35,1.83s.12,1.31.35,1.84c.24.53.56.93.99,1.22.42.28.91.43,1.46.43s1.03-.14,1.45-.43Z" fill="#fff"/>
      <path d="M407.48,129.17h-1.83l-4.15-7.15v7.15h-1.83v-10.43h1.83l4.15,7.16v-7.16h1.83v10.43Z" fill="#fff"/>
      <path d="M411.11,118.76v10.42h-1.83v-10.42h1.83Z" fill="#fff"/>
      <path d="M420.73,129.17h-1.83l-4.15-7.15v7.15h-1.83v-10.43h1.83l4.15,7.16v-7.16h1.83v10.43Z" fill="#fff"/>
      <path d="M428.9,121.89c-.21-.44-.5-.77-.86-1-.37-.23-.79-.34-1.28-.34-.54,0-1.02.14-1.44.42-.42.28-.75.68-.98,1.19-.24.52-.35,1.11-.35,1.79s.12,1.3.36,1.82c.24.52.57.92,1,1.19.43.28.92.42,1.49.42.7,0,1.27-.21,1.71-.63.45-.42.74-1.01.88-1.77h-3.14v-1.6h4.95v1.82c-.12.73-.38,1.4-.79,2.01-.4.62-.92,1.11-1.55,1.48-.63.37-1.34.56-2.13.56-.88,0-1.68-.23-2.39-.68-.71-.45-1.27-1.08-1.68-1.89-.41-.81-.61-1.72-.61-2.75s.2-1.94.61-2.75c.41-.81.96-1.44,1.68-1.9.71-.45,1.5-.68,2.38-.68,1.03,0,1.92.29,2.68.86.76.57,1.28,1.38,1.57,2.41h-2.11Z" fill="#fff"/>
      <path d="M305.01,145.1h-3.64l-.6,1.98h-1.92l3.28-10.43h2.13l3.28,10.43h-1.94l-.6-1.98ZM304.52,143.43l-1.32-4.36-1.32,4.36h2.64Z" fill="#fff"/>
      <path d="M316.6,147.08h-1.83l-4.15-7.15v7.15h-1.83v-10.43h1.83l4.15,7.16v-7.16h1.83v10.43Z" fill="#fff"/>
      <path d="M324.13,137.31c.73.43,1.29,1.04,1.69,1.83.4.79.6,1.71.6,2.75s-.2,1.96-.6,2.74c-.4.78-.96,1.39-1.69,1.81s-1.57.64-2.53.64h-3.19v-10.42h3.19c.96,0,1.8.21,2.53.64ZM323.75,144.41c.52-.6.79-1.44.79-2.52s-.26-1.93-.79-2.54-1.27-.92-2.22-.92h-1.3v6.88h1.3c.96,0,1.7-.3,2.22-.9Z" fill="#fff"/>
      <path d="M335.61,147.08l-2.02-4.06h-.86v4.06h-1.83v-10.42h3.43c.71,0,1.31.14,1.81.43.5.28.87.67,1.12,1.15.25.48.37,1.02.37,1.62,0,.69-.17,1.31-.52,1.86-.35.55-.87.93-1.56,1.14l2.19,4.22h-2.12ZM332.73,141.46h1.53c.5,0,.87-.14,1.11-.41.24-.27.37-.65.37-1.14s-.12-.85-.37-1.11c-.24-.26-.62-.4-1.11-.4h-1.53v3.06Z" fill="#fff"/>
      <path d="M341.12,138.35v2.61h3.08v1.66h-3.08v2.76h3.47v1.7h-5.3v-10.43h5.3v1.7h-3.47Z" fill="#fff"/>
      <path d="M351.89,136.67v1.69h-3.81v2.67h2.92v1.66h-2.92v4.4h-1.83v-10.42h5.64Z" fill="#fff"/>
      <path d="M357.9,147.08l-2.02-4.06h-.86v4.06h-1.83v-10.42h3.43c.71,0,1.31.14,1.81.43.5.28.87.67,1.12,1.15.25.48.37,1.02.37,1.62,0,.69-.17,1.31-.52,1.86-.35.55-.87.93-1.56,1.14l2.19,4.22h-2.12ZM355.02,141.46h1.53c.5,0,.87-.14,1.11-.41.24-.27.37-.65.37-1.14s-.12-.85-.37-1.11c-.24-.26-.62-.4-1.11-.4h-1.53v3.06Z" fill="#fff"/>
      <path d="M363.41,136.67v10.42h-1.83v-10.42h1.83Z" fill="#fff"/>
      <path d="M370.94,137.31c.73.43,1.29,1.04,1.69,1.83.4.79.6,1.71.6,2.75s-.2,1.96-.6,2.74c-.4.78-.96,1.39-1.69,1.81s-1.57.64-2.53.64h-3.19v-10.42h3.19c.96,0,1.8.21,2.53.64ZM370.57,144.41c.52-.6.79-1.44.79-2.52s-.26-1.93-.79-2.54-1.27-.92-2.22-.92h-1.3v6.88h1.3c.96,0,1.7-.3,2.22-.9Z" fill="#fff"/>
      <path d="M380.96,139.8c-.21-.44-.5-.77-.86-1-.37-.23-.79-.34-1.28-.34-.54,0-1.02.14-1.44.42-.42.28-.75.68-.98,1.19-.24.52-.35,1.11-.35,1.79s.12,1.3.36,1.82c.24.52.57.92,1,1.19.43.28.92.42,1.49.42.7,0,1.27-.21,1.71-.63.45-.42.74-1.01.88-1.77h-3.14v-1.6h4.95v1.82c-.12.73-.38,1.4-.79,2.01-.4.62-.92,1.11-1.55,1.48-.63.37-1.34.56-2.13.56-.88,0-1.68-.23-2.39-.68-.71-.45-1.27-1.08-1.68-1.89-.41-.81-.61-1.72-.61-2.75s.2-1.94.61-2.75c.41-.81.96-1.44,1.68-1.9.71-.45,1.5-.68,2.38-.68,1.03,0,1.92.29,2.68.86.76.57,1.28,1.38,1.57,2.41h-2.11Z" fill="#fff"/>
      <path d="M386.48,138.35v2.61h3.08v1.66h-3.08v2.76h3.47v1.7h-5.3v-10.43h5.3v1.7h-3.47Z" fill="#fff"/>
      <path d="M396.32,147.08l-2.02-4.06h-.86v4.06h-1.83v-10.42h3.43c.71,0,1.31.14,1.81.43.5.28.87.67,1.12,1.15.25.48.37,1.02.37,1.62,0,.69-.17,1.31-.52,1.86-.35.55-.87.93-1.56,1.14l2.19,4.22h-2.12ZM393.44,141.46h1.53c.5,0,.87-.14,1.11-.41.24-.27.37-.65.37-1.14s-.12-.85-.37-1.11c-.24-.26-.62-.4-1.11-.4h-1.53v3.06Z" fill="#fff"/>
      <path d="M405.6,145.1h-3.64l-.6,1.98h-1.92l3.28-10.43h2.13l3.28,10.43h-1.94l-.6-1.98ZM405.1,143.43l-1.32-4.36-1.32,4.36h2.64Z" fill="#fff"/>
      <path d="M415.58,136.67v1.69h-2.43v8.73h-1.83v-8.73h-2.43v-1.69h6.7Z" fill="#fff"/>
      <path d="M418.8,146.5c-.72-.46-1.28-1.09-1.7-1.9-.42-.81-.63-1.73-.63-2.75s.21-1.93.63-2.74c.42-.81.99-1.44,1.7-1.9.72-.46,1.5-.69,2.36-.69s1.65.23,2.36.69c.71.46,1.27,1.09,1.69,1.9.41.81.62,1.72.62,2.74s-.21,1.94-.62,2.75c-.41.81-.98,1.45-1.69,1.9s-1.5.69-2.36.69-1.64-.23-2.36-.69ZM422.61,144.9c.42-.28.75-.69.98-1.22.24-.53.35-1.14.35-1.84s-.12-1.31-.35-1.83c-.24-.52-.56-.92-.98-1.2-.42-.28-.9-.42-1.45-.42s-1.04.14-1.46.42c-.42.28-.75.68-.99,1.2-.24.52-.35,1.13-.35,1.83s.12,1.31.35,1.84c.24.53.56.93.99,1.22.42.28.91.43,1.46.43s1.03-.14,1.45-.43Z" fill="#fff"/>
      <path d="M431.9,147.08l-2.02-4.06h-.86v4.06h-1.83v-10.42h3.43c.71,0,1.31.14,1.81.43.5.28.87.67,1.12,1.15.25.48.37,1.02.37,1.62,0,.69-.17,1.31-.52,1.86-.35.55-.87.93-1.56,1.14l2.19,4.22h-2.12ZM429.02,141.46h1.53c.5,0,.87-.14,1.11-.41.24-.27.37-.65.37-1.14s-.12-.85-.37-1.11c-.24-.26-.62-.4-1.11-.4h-1.53v3.06Z" fill="#fff"/>
      <path d="M442.84,136.67l-3.09,6.79v3.63h-1.83v-3.63l-3.1-6.79h2.07l1.96,4.76,1.95-4.76h2.04Z" fill="#fff"/>
      <path d="M330.31,163.33h3.01v1.66h-4.84v-10.42h1.83v8.76Z" fill="#fff"/>
      <path d="M340.09,163h-3.64l-.6,1.98h-1.92l3.28-10.43h2.13l3.28,10.43h-1.94l-.6-1.98ZM339.59,161.33l-1.32-4.36-1.32,4.36h2.64Z" fill="#fff"/>
      <path d="M350.31,160.53c.33.48.5,1.02.5,1.64,0,.56-.12,1.05-.36,1.47-.24.42-.59.75-1.04.99s-.99.36-1.61.36h-3.94v-10.42h3.77c.62,0,1.15.11,1.6.34.45.23.79.55,1.02.96.23.41.35.87.35,1.39,0,.61-.14,1.11-.43,1.52-.28.41-.66.7-1.13.87.51.11.94.4,1.27.88ZM345.69,158.87h1.67c.44,0,.77-.11,1.01-.34.24-.22.35-.54.35-.96s-.12-.74-.35-.97-.57-.34-1.01-.34h-1.67v2.61ZM348.57,162.93c.25-.24.37-.58.37-1.01s-.13-.8-.39-1.05c-.26-.25-.61-.38-1.06-.38h-1.81v2.81h1.85c.44,0,.79-.12,1.04-.36Z" fill="#fff"/>
      <path d="M354.16,164.41c-.72-.46-1.28-1.09-1.7-1.9-.42-.81-.63-1.73-.63-2.75s.21-1.93.63-2.74c.42-.81.99-1.44,1.7-1.9.72-.46,1.5-.69,2.36-.69s1.65.23,2.36.69c.71.46,1.27,1.09,1.69,1.9.41.81.62,1.72.62,2.74s-.21,1.94-.62,2.75c-.41.81-.98,1.45-1.69,1.9s-1.5.69-2.36.69-1.64-.23-2.36-.69ZM357.96,162.8c.42-.28.75-.69.98-1.22.24-.53.35-1.14.35-1.84s-.12-1.31-.35-1.83c-.24-.52-.56-.92-.98-1.2-.42-.28-.9-.42-1.45-.42s-1.04.14-1.46.42c-.42.28-.75.68-.99,1.2-.24.52-.35,1.13-.35,1.83s.12,1.31.35,1.84c.24.53.56.93.99,1.22.42.28.91.43,1.46.43s1.03-.14,1.45-.43Z" fill="#fff"/>
      <path d="M367.25,164.99l-2.02-4.06h-.86v4.06h-1.83v-10.42h3.43c.71,0,1.31.14,1.81.43.5.28.87.67,1.12,1.15.25.48.37,1.02.37,1.62,0,.69-.17,1.31-.52,1.86-.35.55-.87.93-1.56,1.14l2.19,4.22h-2.12ZM364.38,159.36h1.53c.5,0,.87-.14,1.11-.41.24-.27.37-.65.37-1.14s-.12-.85-.37-1.11c-.24-.26-.62-.4-1.11-.4h-1.53v3.06Z" fill="#fff"/>
      <path d="M376.53,163h-3.64l-.6,1.98h-1.92l3.28-10.43h2.13l3.28,10.43h-1.94l-.6-1.98ZM376.04,161.33l-1.32-4.36-1.32,4.36h2.64Z" fill="#fff"/>
      <path d="M386.52,154.57v1.69h-2.43v8.73h-1.83v-8.73h-2.43v-1.69h6.7Z" fill="#fff"/>
      <path d="M389.74,164.41c-.72-.46-1.28-1.09-1.7-1.9-.42-.81-.63-1.73-.63-2.75s.21-1.93.63-2.74c.42-.81.99-1.44,1.7-1.9.72-.46,1.5-.69,2.36-.69s1.65.23,2.36.69c.71.46,1.27,1.09,1.69,1.9.41.81.62,1.72.62,2.74s-.21,1.94-.62,2.75c-.41.81-.98,1.45-1.69,1.9s-1.5.69-2.36.69-1.64-.23-2.36-.69ZM393.55,162.8c.42-.28.75-.69.98-1.22.24-.53.35-1.14.35-1.84s-.12-1.31-.35-1.83c-.24-.52-.56-.92-.98-1.2-.42-.28-.9-.42-1.45-.42s-1.04.14-1.46.42c-.42.28-.75.68-.99,1.2-.24.52-.35,1.13-.35,1.83s.12,1.31.35,1.84c.24.53.56.93.99,1.22.42.28.91.43,1.46.43s1.03-.14,1.45-.43Z" fill="#fff"/>
      <path d="M402.84,164.99l-2.02-4.06h-.86v4.06h-1.83v-10.42h3.43c.71,0,1.31.14,1.81.43.5.28.87.67,1.12,1.15.25.48.37,1.02.37,1.62,0,.69-.17,1.31-.52,1.86-.35.55-.87.93-1.56,1.14l2.19,4.22h-2.12ZM399.96,159.36h1.53c.5,0,.87-.14,1.11-.41.24-.27.37-.65.37-1.14s-.12-.85-.37-1.11c-.24-.26-.62-.4-1.11-.4h-1.53v3.06Z" fill="#fff"/>
      <path d="M413.78,154.57l-3.09,6.79v3.63h-1.83v-3.63l-3.1-6.79h2.07l1.96,4.76,1.95-4.76h2.04Z" fill="#fff"/>
    </g>
  </g>
</svg>