<?xml version="1.0" encoding="UTF-8"?>
<svg xmlns="http://www.w3.org/2000/svg" viewBox="0 0 1920 1080">
  <g id="Layer_2">
    <rect x="-40" y="-27" width="1992" height="1154" fill="#f9f9f9"/>
  </g>
  <g id="SST_Ground_Floor">
    <rect x="849.5" y="949" width="220" height="150.5" fill="#ddd" stroke="#999" stroke-miterlimit="10" stroke-width="3"/>
    <rect x="-6.5" y="949" width="856" height="150.5" fill="#395e7c"/>
    <rect x="-17.5" y="690.5" width="307.5" height="136" fill="#fed766" stroke="#fff" stroke-miterlimit="10" stroke-width="3"/>
    <rect x="-17.5" y="163.5" width="307.5" height="527" fill="#757575" stroke="#fff" stroke-miterlimit="10" stroke-width="3"/>
    <rect x="741.5" y="-8.5" width="769" height="168" fill="#ddd" stroke="#999" stroke-miterlimit="10" stroke-width="3"/>
    <rect x="1675" y="765.5" width="259.96" height="184" fill="#757575" stroke="#fff" stroke-miterlimit="10" stroke-width="3"/>
    <rect x="1677.36" y="947.5" width="256.41" height="152" fill="#ddd" stroke="#999" stroke-miterlimit="10" stroke-width="3"/>
    <rect x="1679.5" y="221.5" width="258.74" height="221" fill="#ddd" stroke="#999" stroke-miterlimit="10" stroke-width="3"/>
    <rect x="288" y="-16.52" width="178.5" height="30.02" fill="#757575" stroke="#fff" stroke-miterlimit="10" stroke-width="2"/>
    <rect x="467.31" y="-5" width="290.69" height="166" fill="#395e7c"/>
    <rect x="-16" y="-5" width="303.21" height="166" fill="#395e7c"/>
    <g>
      <path d="M58.19,1014.72v8.23h11.04v5.22h-11.04v8.69h12.45v5.36h-19.03v-32.85h19.03v5.36h-12.45Z" fill="#fff"/>
      <path d="M104.67,1042.21h-6.58l-14.9-22.51v22.51h-6.58v-32.85h6.58l14.9,22.56v-22.56h6.58v32.85Z" fill="#fff"/>
      <path d="M134,1019.28c-.75-1.38-1.79-2.43-3.1-3.15s-2.85-1.08-4.61-1.08c-1.94,0-3.67.44-5.17,1.32s-2.68,2.13-3.52,3.76c-.85,1.63-1.27,3.51-1.27,5.64s.43,4.11,1.29,5.73c.86,1.63,2.06,2.88,3.6,3.76,1.54.88,3.32,1.32,5.36,1.32,2.51,0,4.56-.67,6.16-2,1.6-1.33,2.65-3.19,3.15-5.57h-11.28v-5.03h17.77v5.73c-.44,2.29-1.38,4.4-2.82,6.34-1.44,1.94-3.3,3.5-5.57,4.68-2.27,1.17-4.82,1.76-7.64,1.76-3.17,0-6.02-.71-8.58-2.14-2.55-1.43-4.56-3.41-6.02-5.95s-2.19-5.42-2.19-8.65.73-6.12,2.19-8.67,3.46-4.54,6.02-5.97c2.55-1.42,5.4-2.14,8.53-2.14,3.7,0,6.91.9,9.64,2.7,2.73,1.8,4.61,4.33,5.64,7.59h-7.57Z" fill="#fff"/>
      <path d="M153.83,1009.41v32.81h-6.58v-32.81h6.58Z" fill="#fff"/>
      <path d="M188.37,1042.21h-6.58l-14.9-22.51v22.51h-6.58v-32.85h6.58l14.9,22.56v-22.56h6.58v32.85Z" fill="#fff"/>
      <path d="M201.44,1014.72v8.23h11.04v5.22h-11.04v8.69h12.45v5.36h-19.03v-32.85h19.03v5.36h-12.45Z" fill="#fff"/>
      <path d="M226.44,1014.72v8.23h11.04v5.22h-11.04v8.69h12.45v5.36h-19.03v-32.85h19.03v5.36h-12.45Z" fill="#fff"/>
      <path d="M261.79,1042.21l-7.24-12.78h-3.1v12.78h-6.58v-32.81h12.31c2.54,0,4.7.45,6.49,1.34,1.79.89,3.13,2.1,4.02,3.62.89,1.52,1.34,3.22,1.34,5.1,0,2.16-.63,4.11-1.88,5.85-1.25,1.74-3.12,2.94-5.59,3.6l7.85,13.3h-7.61ZM251.45,1024.49h5.5c1.79,0,3.12-.43,4-1.29.88-.86,1.32-2.06,1.32-3.6s-.44-2.67-1.32-3.5c-.88-.83-2.21-1.25-4-1.25h-5.5v9.63Z" fill="#fff"/>
      <path d="M281.57,1009.41v32.81h-6.58v-32.81h6.58Z" fill="#fff"/>
      <path d="M316.12,1042.21h-6.58l-14.9-22.51v22.51h-6.58v-32.85h6.58l14.9,22.56v-22.56h6.58v32.85Z" fill="#fff"/>
      <path d="M345.45,1019.28c-.75-1.38-1.79-2.43-3.1-3.15s-2.85-1.08-4.61-1.08c-1.94,0-3.67.44-5.17,1.32s-2.68,2.13-3.52,3.76c-.85,1.63-1.27,3.51-1.27,5.64s.43,4.11,1.29,5.73c.86,1.63,2.06,2.88,3.6,3.76,1.54.88,3.32,1.32,5.36,1.32,2.51,0,4.56-.67,6.16-2,1.6-1.33,2.65-3.19,3.15-5.57h-11.28v-5.03h17.77v5.73c-.44,2.29-1.38,4.4-2.82,6.34-1.44,1.94-3.3,3.5-5.57,4.68-2.27,1.17-4.82,1.76-7.64,1.76-3.17,0-6.02-.71-8.58-2.14-2.55-1.43-4.56-3.41-6.02-5.95s-2.19-5.42-2.19-8.65.73-6.12,2.19-8.67,3.46-4.54,6.02-5.97c2.55-1.42,5.4-2.14,8.53-2.14,3.7,0,6.91.9,9.64,2.7,2.73,1.8,4.61,4.33,5.64,7.59h-7.57Z" fill="#fff"/>
      <path d="M390.45,1011.43c2.62,1.35,4.64,3.27,6.06,5.76,1.43,2.49,2.14,5.38,2.14,8.67s-.71,6.17-2.14,8.62c-1.43,2.46-3.45,4.36-6.06,5.71-2.62,1.35-5.65,2.02-9.09,2.02h-11.47v-32.81h11.47c3.45,0,6.48.67,9.09,2.02ZM389.11,1033.8c1.88-1.88,2.82-4.53,2.82-7.94s-.94-6.09-2.82-8.01c-1.88-1.93-4.54-2.89-7.99-2.89h-4.65v21.67h4.65c3.45,0,6.11-.94,7.99-2.82Z" fill="#fff"/>
      <path d="M420.5,1042.21l-7.24-12.78h-3.1v12.78h-6.58v-32.81h12.31c2.54,0,4.7.45,6.49,1.34,1.79.89,3.13,2.1,4.02,3.62.89,1.52,1.34,3.22,1.34,5.1,0,2.16-.63,4.11-1.88,5.85-1.25,1.74-3.12,2.94-5.59,3.6l7.85,13.3h-7.61ZM410.16,1024.49h5.5c1.79,0,3.12-.43,4-1.29.88-.86,1.32-2.06,1.32-3.6s-.44-2.67-1.32-3.5c-.88-.83-2.21-1.25-4-1.25h-5.5v9.63Z" fill="#fff"/>
      <path d="M453.83,1035.96h-13.07l-2.16,6.25h-6.91l11.8-32.85h7.66l11.8,32.85h-6.96l-2.16-6.25ZM452.04,1030.7l-4.75-13.72-4.75,13.72h9.49Z" fill="#fff"/>
      <path d="M511.21,1009.41l-9.17,32.81h-7.76l-6.16-23.36-6.44,23.36-7.71.05-8.84-32.85h7.05l5.78,25.47,6.67-25.47h7.33l6.3,25.33,5.83-25.33h7.1Z" fill="#fff"/>
      <path d="M522.07,1009.41v32.81h-6.58v-32.81h6.58Z" fill="#fff"/>
      <path d="M556.61,1042.21h-6.58l-14.9-22.51v22.51h-6.58v-32.85h6.58l14.9,22.56v-22.56h6.58v32.85Z" fill="#fff"/>
      <path d="M585.94,1019.28c-.75-1.38-1.79-2.43-3.1-3.15s-2.85-1.08-4.61-1.08c-1.94,0-3.67.44-5.17,1.32s-2.68,2.13-3.52,3.76c-.85,1.63-1.27,3.51-1.27,5.64s.43,4.11,1.29,5.73c.86,1.63,2.06,2.88,3.6,3.76,1.54.88,3.32,1.32,5.36,1.32,2.51,0,4.56-.67,6.16-2,1.6-1.33,2.65-3.19,3.15-5.57h-11.28v-5.03h17.77v5.73c-.44,2.29-1.38,4.4-2.82,6.34-1.44,1.94-3.3,3.5-5.57,4.68-2.27,1.17-4.82,1.76-7.64,1.76-3.17,0-6.02-.71-8.58-2.14-2.55-1.43-4.56-3.41-6.02-5.95s-2.19-5.42-2.19-8.65.73-6.12,2.19-8.67,3.46-4.54,6.02-5.97c2.55-1.42,5.4-2.14,8.53-2.14,3.7,0,6.91.9,9.64,2.7,2.73,1.8,4.61,4.33,5.64,7.59h-7.57Z" fill="#fff"/>
      <path d="M615.53,1041.37c-1.83-.78-3.28-1.91-4.35-3.38-1.07-1.47-1.61-3.21-1.65-5.22h7.05c.09,1.35.57,2.41,1.43,3.2.86.78,2.04,1.17,3.55,1.17s2.74-.37,3.62-1.1c.88-.74,1.32-1.7,1.32-2.89,0-.97-.3-1.77-.89-2.4-.6-.63-1.34-1.12-2.23-1.48-.89-.36-2.12-.76-3.69-1.2-2.13-.63-3.86-1.25-5.19-1.86-1.33-.61-2.48-1.53-3.43-2.77-.96-1.24-1.43-2.89-1.43-4.96,0-1.94.49-3.63,1.46-5.08.97-1.44,2.33-2.55,4.09-3.31,1.75-.77,3.76-1.15,6.02-1.15,3.38,0,6.13.82,8.25,2.47,2.12,1.65,3.28,3.94,3.5,6.89h-7.24c-.06-1.13-.54-2.06-1.43-2.8-.89-.74-2.08-1.1-3.55-1.1-1.29,0-2.31.33-3.08.99-.77.66-1.15,1.61-1.15,2.87,0,.88.29,1.61.87,2.19.58.58,1.3,1.05,2.16,1.41s2.08.78,3.64,1.25c2.13.63,3.87,1.25,5.22,1.88,1.35.63,2.51,1.57,3.48,2.82.97,1.25,1.46,2.9,1.46,4.93,0,1.75-.45,3.38-1.36,4.89-.91,1.5-2.24,2.7-4,3.6-1.75.89-3.84,1.34-6.25,1.34-2.29,0-4.35-.39-6.18-1.17Z" fill="#fff"/>
      <path d="M661.33,1009.41v5.31h-8.74v27.5h-6.58v-27.5h-8.74v-5.31h24.06Z" fill="#fff"/>
      <path d="M672.61,1009.41v20.3c0,2.23.58,3.92,1.74,5.1s2.79,1.76,4.89,1.76,3.78-.59,4.94-1.76c1.16-1.17,1.74-2.87,1.74-5.1v-20.3h6.63v20.26c0,2.79-.6,5.15-1.81,7.07-1.21,1.93-2.82,3.38-4.84,4.35-2.02.97-4.27,1.46-6.74,1.46s-4.66-.49-6.65-1.46c-1.99-.97-3.56-2.42-4.72-4.35-1.16-1.93-1.74-4.28-1.74-7.07v-20.26h6.58Z" fill="#fff"/>
      <path d="M719.44,1011.43c2.62,1.35,4.64,3.27,6.06,5.76,1.43,2.49,2.14,5.38,2.14,8.67s-.71,6.17-2.14,8.62c-1.43,2.46-3.45,4.36-6.06,5.71-2.62,1.35-5.65,2.02-9.09,2.02h-11.47v-32.81h11.47c3.45,0,6.48.67,9.09,2.02ZM718.1,1033.8c1.88-1.88,2.82-4.53,2.82-7.94s-.94-6.09-2.82-8.01c-1.88-1.93-4.54-2.89-7.99-2.89h-4.65v21.67h4.65c3.45,0,6.11-.94,7.99-2.82Z" fill="#fff"/>
      <path d="M739.16,1009.41v32.81h-6.58v-32.81h6.58Z" fill="#fff"/>
      <path d="M752.41,1040.38c-2.57-1.44-4.61-3.44-6.11-5.99s-2.26-5.44-2.26-8.67.75-6.07,2.26-8.62,3.54-4.55,6.11-5.99c2.57-1.44,5.39-2.16,8.46-2.16s5.93.72,8.48,2.16c2.55,1.44,4.57,3.44,6.06,5.99,1.49,2.55,2.23,5.43,2.23,8.62s-.74,6.12-2.23,8.67c-1.49,2.55-3.52,4.55-6.09,5.99-2.57,1.44-5.39,2.16-8.46,2.16s-5.89-.72-8.46-2.16ZM766.09,1035.33c1.5-.89,2.68-2.17,3.52-3.83.85-1.66,1.27-3.59,1.27-5.78s-.42-4.11-1.27-5.76c-.85-1.64-2.02-2.91-3.52-3.78-1.5-.88-3.24-1.32-5.22-1.32s-3.72.44-5.24,1.32c-1.52.88-2.7,2.14-3.55,3.78-.85,1.65-1.27,3.57-1.27,5.76s.42,4.12,1.27,5.78c.85,1.66,2.03,2.94,3.55,3.83,1.52.89,3.27,1.34,5.24,1.34s3.71-.45,5.22-1.34Z" fill="#fff"/>
    </g>
    <g>
      <path d="M36.03,771.73c-2.34-1-4.19-2.44-5.55-4.32-1.36-1.88-2.06-4.1-2.1-6.66h9c.12,1.72.73,3.08,1.83,4.08,1.1,1,2.61,1.5,4.53,1.5s3.5-.47,4.62-1.41c1.12-.94,1.68-2.17,1.68-3.69,0-1.24-.38-2.26-1.14-3.06-.76-.8-1.71-1.43-2.85-1.89-1.14-.46-2.71-.97-4.71-1.53-2.72-.8-4.93-1.59-6.63-2.37-1.7-.78-3.16-1.96-4.38-3.54-1.22-1.58-1.83-3.69-1.83-6.33,0-2.48.62-4.64,1.86-6.48,1.24-1.84,2.98-3.25,5.22-4.23,2.24-.98,4.8-1.47,7.68-1.47,4.32,0,7.83,1.05,10.53,3.15,2.7,2.1,4.19,5.03,4.47,8.79h-9.24c-.08-1.44-.69-2.63-1.83-3.57-1.14-.94-2.65-1.41-4.53-1.41-1.64,0-2.95.42-3.93,1.26-.98.84-1.47,2.06-1.47,3.66,0,1.12.37,2.05,1.11,2.79.74.74,1.66,1.34,2.76,1.8,1.1.46,2.65.99,4.65,1.59,2.72.8,4.94,1.6,6.66,2.4,1.72.8,3.2,2,4.44,3.6,1.24,1.6,1.86,3.7,1.86,6.3,0,2.24-.58,4.32-1.74,6.24-1.16,1.92-2.86,3.45-5.1,4.59-2.24,1.14-4.9,1.71-7.98,1.71-2.92,0-5.55-.5-7.89-1.5Z" fill="#fff"/>
      <path d="M94.5,730.93v6.78h-11.16v35.1h-8.4v-35.1h-11.16v-6.78h30.72Z" fill="#fff"/>
      <path d="M126.3,764.83h-16.68l-2.76,7.98h-8.82l15.06-41.94h9.78l15.06,41.94h-8.88l-2.76-7.98ZM124.02,758.11l-6.06-17.52-6.06,17.52h12.12Z" fill="#fff"/>
      <path d="M151.98,730.93v41.88h-8.4v-41.88h8.4Z" fill="#fff"/>
      <path d="M181.86,772.81l-9.24-16.32h-3.96v16.32h-8.4v-41.88h15.72c3.24,0,6,.57,8.28,1.71,2.28,1.14,3.99,2.68,5.13,4.62,1.14,1.94,1.71,4.11,1.71,6.51,0,2.76-.8,5.25-2.4,7.47-1.6,2.22-3.98,3.75-7.14,4.59l10.02,16.98h-9.72ZM168.66,750.19h7.02c2.28,0,3.98-.55,5.1-1.65,1.12-1.1,1.68-2.63,1.68-4.59s-.56-3.41-1.68-4.47c-1.12-1.06-2.82-1.59-5.1-1.59h-7.02v12.3Z" fill="#fff"/>
      <path d="M205.29,771.73c-2.34-1-4.19-2.44-5.55-4.32-1.36-1.88-2.06-4.1-2.1-6.66h9c.12,1.72.73,3.08,1.83,4.08,1.1,1,2.61,1.5,4.53,1.5s3.5-.47,4.62-1.41c1.12-.94,1.68-2.17,1.68-3.69,0-1.24-.38-2.26-1.14-3.06-.76-.8-1.71-1.43-2.85-1.89-1.14-.46-2.71-.97-4.71-1.53-2.72-.8-4.93-1.59-6.63-2.37-1.7-.78-3.16-1.96-4.38-3.54-1.22-1.58-1.83-3.69-1.83-6.33,0-2.48.62-4.64,1.86-6.48,1.24-1.84,2.98-3.25,5.22-4.23,2.24-.98,4.8-1.47,7.68-1.47,4.32,0,7.83,1.05,10.53,3.15,2.7,2.1,4.19,5.03,4.47,8.79h-9.24c-.08-1.44-.69-2.63-1.83-3.57-1.14-.94-2.65-1.41-4.53-1.41-1.64,0-2.95.42-3.93,1.26-.98.84-1.47,2.06-1.47,3.66,0,1.12.37,2.05,1.11,2.79.74.74,1.66,1.34,2.76,1.8,1.1.46,2.65.99,4.65,1.59,2.72.8,4.94,1.6,6.66,2.4,1.72.8,3.2,2,4.44,3.6,1.24,1.6,1.86,3.7,1.86,6.3,0,2.24-.58,4.32-1.74,6.24-1.16,1.92-2.86,3.45-5.1,4.59-2.24,1.14-4.9,1.71-7.98,1.71-2.92,0-5.55-.5-7.89-1.5Z" fill="#fff"/>
    </g>
    <g>
      <path d="M53.3,17.49v5.25h7.05v3.33h-7.05v5.55h7.95v3.42h-12.15V14.07h12.15v3.42h-7.95Z" fill="#fff"/>
      <path d="M69.26,31.7h6.9v3.33h-11.1V14.1h4.2v17.6Z" fill="#fff"/>
      <path d="M83.02,17.49v5.25h7.05v3.33h-7.05v5.55h7.95v3.42h-12.15V14.07h12.15v3.42h-7.95Z" fill="#fff"/>
      <path d="M95.15,19c.93-1.63,2.2-2.9,3.81-3.81,1.61-.91,3.41-1.36,5.41-1.36,2.34,0,4.39.6,6.15,1.8,1.76,1.2,2.99,2.86,3.69,4.98h-4.83c-.48-1-1.15-1.75-2.02-2.25-.87-.5-1.87-.75-3.01-.75-1.22,0-2.3.29-3.25.85-.95.57-1.69,1.37-2.22,2.41-.53,1.04-.79,2.26-.79,3.66s.26,2.59.79,3.64c.53,1.05,1.27,1.86,2.22,2.43.95.57,2.03.85,3.25.85,1.14,0,2.14-.25,3.01-.76.87-.51,1.54-1.26,2.02-2.26h4.83c-.7,2.14-1.92,3.8-3.67,4.99-1.75,1.19-3.8,1.78-6.16,1.78-2,0-3.8-.45-5.41-1.36-1.61-.91-2.88-2.17-3.81-3.79-.93-1.62-1.39-3.46-1.39-5.52s.46-3.9,1.39-5.53Z" fill="#fff"/>
      <path d="M132.05,14.1v3.39h-5.58v17.54h-4.2v-17.54h-5.58v-3.39h15.35Z" fill="#fff"/>
      <path d="M145.91,35.03l-4.62-8.16h-1.98v8.16h-4.2V14.1h7.86c1.62,0,3,.28,4.14.85s1.99,1.34,2.56,2.31.85,2.05.85,3.25c0,1.38-.4,2.62-1.2,3.73-.8,1.11-1.99,1.87-3.57,2.29l5.01,8.49h-4.86ZM139.31,23.72h3.51c1.14,0,1.99-.27,2.55-.82.56-.55.84-1.31.84-2.29s-.28-1.7-.84-2.23c-.56-.53-1.41-.79-2.55-.79h-3.51v6.15Z" fill="#fff"/>
      <path d="M158.54,14.1v20.93h-4.2V14.1h4.2Z" fill="#fff"/>
      <path d="M163.05,19c.93-1.63,2.2-2.9,3.81-3.81,1.61-.91,3.41-1.36,5.41-1.36,2.34,0,4.39.6,6.15,1.8,1.76,1.2,2.99,2.86,3.69,4.98h-4.83c-.48-1-1.15-1.75-2.02-2.25-.87-.5-1.87-.75-3.01-.75-1.22,0-2.3.29-3.25.85-.95.57-1.69,1.37-2.22,2.41-.53,1.04-.79,2.26-.79,3.66s.26,2.59.79,3.64c.53,1.05,1.27,1.86,2.22,2.43.95.57,2.03.85,3.25.85,1.14,0,2.14-.25,3.01-.76.87-.51,1.54-1.26,2.02-2.26h4.83c-.7,2.14-1.92,3.8-3.67,4.99-1.75,1.19-3.8,1.78-6.16,1.78-2,0-3.8-.45-5.41-1.36-1.61-.91-2.88-2.17-3.81-3.79-.93-1.62-1.39-3.46-1.39-5.52s.46-3.9,1.39-5.53Z" fill="#fff"/>
      <path d="M198.54,31.04h-8.34l-1.38,3.99h-4.41l7.53-20.96h4.89l7.53,20.96h-4.44l-1.38-3.99ZM197.4,27.68l-3.03-8.76-3.03,8.76h6.06Z" fill="#fff"/>
      <path d="M211.38,31.7h6.9v3.33h-11.1V14.1h4.2v17.6Z" fill="#fff"/>
      <path d="M59.58,59.71c-.53.98-1.36,1.77-2.49,2.37-1.13.6-2.55.9-4.27.9h-3.51v8.04h-4.2v-20.93h7.71c1.62,0,3,.28,4.14.84,1.14.56,1.99,1.33,2.56,2.31.57.98.85,2.09.85,3.33,0,1.12-.27,2.17-.79,3.15ZM55.22,58.8c.56-.53.84-1.27.84-2.23,0-2.04-1.14-3.06-3.42-3.06h-3.33v6.09h3.33c1.16,0,2.02-.26,2.58-.79Z" fill="#fff"/>
      <path d="M67.67,69.85c-1.64-.92-2.94-2.19-3.9-3.82-.96-1.63-1.44-3.47-1.44-5.53s.48-3.87,1.44-5.5c.96-1.63,2.26-2.9,3.9-3.82,1.64-.92,3.44-1.38,5.4-1.38s3.78.46,5.41,1.38c1.63.92,2.92,2.19,3.87,3.82.95,1.63,1.42,3.46,1.42,5.5s-.48,3.9-1.42,5.53-2.24,2.9-3.88,3.82c-1.64.92-3.44,1.38-5.4,1.38s-3.76-.46-5.4-1.38ZM76.39,66.62c.96-.57,1.71-1.38,2.25-2.44.54-1.06.81-2.29.81-3.69s-.27-2.62-.81-3.67c-.54-1.05-1.29-1.85-2.25-2.41-.96-.56-2.07-.84-3.33-.84s-2.37.28-3.34.84c-.97.56-1.72,1.36-2.26,2.41-.54,1.05-.81,2.27-.81,3.67s.27,2.63.81,3.69c.54,1.06,1.29,1.87,2.26,2.44.97.57,2.08.85,3.34.85s2.37-.28,3.33-.85Z" fill="#fff"/>
      <path d="M114.87,50.09l-5.85,20.93h-4.95l-3.93-14.91-4.11,14.91-4.92.03-5.64-20.96h4.5l3.69,16.25,4.26-16.25h4.68l4.02,16.16,3.72-16.16h4.53Z" fill="#fff"/>
      <path d="M121.8,53.47v5.25h7.05v3.33h-7.05v5.55h7.95v3.42h-12.15v-20.96h12.15v3.42h-7.95Z" fill="#fff"/>
      <path d="M144.35,71.02l-4.62-8.16h-1.98v8.16h-4.2v-20.93h7.86c1.62,0,3,.28,4.14.85s1.99,1.34,2.56,2.31.85,2.05.85,3.25c0,1.38-.4,2.62-1.2,3.73-.8,1.11-1.99,1.87-3.57,2.29l5.01,8.49h-4.86ZM137.75,59.71h3.51c1.14,0,1.99-.27,2.55-.82.56-.55.84-1.31.84-2.29s-.28-1.7-.84-2.23c-.56-.53-1.41-.79-2.55-.79h-3.51v6.15Z" fill="#fff"/>
      <path d="M172.75,67.03h-8.34l-1.38,3.99h-4.41l7.53-20.96h4.89l7.53,20.96h-4.44l-1.38-3.99ZM171.61,63.67l-3.03-8.76-3.03,8.76h6.06Z" fill="#fff"/>
      <path d="M199.29,71.02h-4.2l-9.51-14.37v14.37h-4.2v-20.96h4.2l9.51,14.4v-14.4h4.2v20.96Z" fill="#fff"/>
      <path d="M216.55,51.38c1.67.86,2.96,2.08,3.87,3.67s1.36,3.43,1.36,5.53-.46,3.93-1.36,5.5c-.91,1.57-2.2,2.78-3.87,3.64-1.67.86-3.6,1.29-5.8,1.29h-7.32v-20.93h7.32c2.2,0,4.13.43,5.8,1.29ZM215.7,65.65c1.2-1.2,1.8-2.89,1.8-5.07s-.6-3.88-1.8-5.11c-1.2-1.23-2.9-1.84-5.1-1.84h-2.97v13.83h2.97c2.2,0,3.9-.6,5.1-1.8Z" fill="#fff"/>
      <path d="M79.06,86.07v20.93h-4.2v-13.62l-5.61,13.62h-3.18l-5.64-13.62v13.62h-4.2v-20.93h4.77l6.66,15.56,6.66-15.56h4.74Z" fill="#fff"/>
      <path d="M96.04,103.02h-8.34l-1.38,3.99h-4.41l7.53-20.96h4.89l7.53,20.96h-4.44l-1.38-3.99ZM94.9,99.66l-3.03-8.76-3.03,8.76h6.06Z" fill="#fff"/>
      <path d="M105.05,90.98c.93-1.63,2.2-2.9,3.81-3.81,1.61-.91,3.41-1.36,5.41-1.36,2.34,0,4.39.6,6.15,1.8,1.76,1.2,2.99,2.86,3.69,4.98h-4.83c-.48-1-1.15-1.75-2.02-2.25-.87-.5-1.87-.75-3.01-.75-1.22,0-2.3.29-3.25.85-.95.57-1.69,1.37-2.22,2.41-.53,1.04-.79,2.26-.79,3.66s.26,2.59.79,3.64c.53,1.05,1.27,1.86,2.22,2.43.95.57,2.03.85,3.25.85,1.14,0,2.14-.25,3.01-.76.87-.51,1.54-1.26,2.02-2.26h4.83c-.7,2.14-1.92,3.8-3.67,4.99-1.75,1.19-3.8,1.78-6.16,1.78-2,0-3.8-.45-5.41-1.36-1.61-.91-2.88-2.17-3.81-3.79-.93-1.62-1.39-3.46-1.39-5.52s.46-3.9,1.39-5.53Z" fill="#fff"/>
      <path d="M145.07,86.07v20.93h-4.2v-8.91h-8.97v8.91h-4.2v-20.93h4.2v8.61h8.97v-8.61h4.2Z" fill="#fff"/>
      <path d="M153.41,86.07v20.93h-4.2v-20.93h4.2Z" fill="#fff"/>
      <path d="M175.45,107.01h-4.2l-9.51-14.37v14.37h-4.2v-20.96h4.2l9.51,14.4v-14.4h4.2v20.96Z" fill="#fff"/>
      <path d="M183.79,89.46v5.25h7.05v3.33h-7.05v5.55h7.95v3.42h-12.15v-20.96h12.15v3.42h-7.95Z" fill="#fff"/>
      <path d="M198.83,106.47c-1.17-.5-2.09-1.22-2.77-2.16-.68-.94-1.03-2.05-1.05-3.33h4.5c.06.86.36,1.54.92,2.04.55.5,1.3.75,2.26.75s1.75-.23,2.31-.71c.56-.47.84-1.08.84-1.84,0-.62-.19-1.13-.57-1.53-.38-.4-.85-.71-1.42-.94-.57-.23-1.35-.48-2.35-.76-1.36-.4-2.46-.79-3.31-1.18-.85-.39-1.58-.98-2.19-1.77-.61-.79-.92-1.84-.92-3.16,0-1.24.31-2.32.93-3.24.62-.92,1.49-1.62,2.61-2.11,1.12-.49,2.4-.73,3.84-.73,2.16,0,3.91.52,5.26,1.57,1.35,1.05,2.09,2.51,2.23,4.39h-4.62c-.04-.72-.35-1.31-.91-1.78-.57-.47-1.33-.7-2.26-.7-.82,0-1.47.21-1.96.63-.49.42-.73,1.03-.73,1.83,0,.56.18,1.02.55,1.39.37.37.83.67,1.38.9.55.23,1.32.49,2.32.79,1.36.4,2.47.8,3.33,1.2.86.4,1.6,1,2.22,1.8.62.8.93,1.85.93,3.15,0,1.12-.29,2.16-.87,3.12-.58.96-1.43,1.72-2.55,2.29-1.12.57-2.45.85-3.99.85-1.46,0-2.77-.25-3.94-.75Z" fill="#fff"/>
      <path d="M115.53,139.67h6.9v3.33h-11.1v-20.93h4.2v17.6Z" fill="#fff"/>
      <path d="M137.93,139.01h-8.34l-1.38,3.99h-4.41l7.53-20.96h4.89l7.53,20.96h-4.44l-1.38-3.99ZM136.79,135.65l-3.03-8.76-3.03,8.76h6.06Z" fill="#fff"/>
      <path d="M161.35,134.03c.76.96,1.14,2.06,1.14,3.3,0,1.12-.27,2.1-.82,2.95-.55.85-1.34,1.51-2.38,1.99-1.04.48-2.27.72-3.69.72h-9.03v-20.93h8.64c1.42,0,2.64.23,3.67.69,1.03.46,1.81,1.1,2.34,1.92.53.82.79,1.75.79,2.79,0,1.22-.33,2.24-.97,3.06-.65.82-1.51,1.4-2.59,1.74,1.18.22,2.15.81,2.91,1.77ZM150.77,130.7h3.84c1,0,1.77-.23,2.31-.67.54-.45.81-1.09.81-1.93s-.27-1.49-.81-1.95c-.54-.46-1.31-.69-2.31-.69h-3.84v5.25ZM157.38,138.86c.57-.48.85-1.16.85-2.04s-.3-1.6-.9-2.11c-.6-.51-1.41-.76-2.43-.76h-4.14v5.64h4.23c1.02,0,1.81-.24,2.38-.72Z" fill="#fff"/>
    </g>
    <g>
      <path d="M509.67,21.7v5.94h7.97v3.76h-7.97v6.27h8.99v3.87h-13.74v-23.71h13.74v3.87h-8.99Z" fill="#fff"/>
      <path d="M527.71,37.77h7.8v3.76h-12.55v-23.67h4.75v19.91Z" fill="#fff"/>
      <path d="M543.28,21.7v5.94h7.97v3.76h-7.97v6.27h8.99v3.87h-13.74v-23.71h13.74v3.87h-8.99Z" fill="#fff"/>
      <path d="M557,23.41c1.05-1.84,2.49-3.28,4.31-4.31,1.82-1.03,3.86-1.54,6.12-1.54,2.65,0,4.96.68,6.95,2.03,1.99,1.36,3.38,3.23,4.17,5.63h-5.46c-.54-1.13-1.31-1.98-2.29-2.54s-2.12-.85-3.41-.85c-1.38,0-2.61.32-3.68.97-1.07.64-1.91,1.55-2.51,2.73-.6,1.18-.9,2.56-.9,4.14s.3,2.93.9,4.12,1.44,2.1,2.51,2.75c1.07.64,2.3.97,3.68.97,1.29,0,2.42-.29,3.41-.86.98-.58,1.75-1.43,2.29-2.56h5.46c-.79,2.42-2.18,4.3-4.15,5.65-1.98,1.35-4.3,2.02-6.97,2.02-2.26,0-4.3-.51-6.12-1.54-1.82-1.03-3.26-2.46-4.31-4.29-1.05-1.83-1.58-3.91-1.58-6.24s.53-4.41,1.58-6.26Z" fill="#fff"/>
      <path d="M598.73,17.87v3.83h-6.31v19.84h-4.75v-19.84h-6.31v-3.83h17.36Z" fill="#fff"/>
      <path d="M614.39,41.54l-5.22-9.22h-2.24v9.22h-4.75v-23.67h8.89c1.83,0,3.39.32,4.68.97,1.29.64,2.26,1.52,2.9,2.61.64,1.1.97,2.32.97,3.68,0,1.56-.45,2.97-1.36,4.22-.9,1.25-2.25,2.12-4.04,2.59l5.66,9.6h-5.49ZM606.93,28.75h3.97c1.29,0,2.25-.31,2.88-.93.63-.62.95-1.49.95-2.59s-.32-1.93-.95-2.53c-.63-.6-1.59-.9-2.88-.9h-3.97v6.95Z" fill="#fff"/>
      <path d="M628.81,40.22c-1.85-1.04-3.32-2.48-4.41-4.32-1.09-1.84-1.63-3.93-1.63-6.26s.54-4.38,1.63-6.22c1.08-1.84,2.55-3.28,4.41-4.32,1.85-1.04,3.89-1.56,6.1-1.56s4.28.52,6.12,1.56c1.84,1.04,3.3,2.48,4.38,4.32,1.07,1.84,1.61,3.92,1.61,6.22s-.54,4.41-1.61,6.26c-1.07,1.84-2.54,3.28-4.39,4.32-1.85,1.04-3.89,1.56-6.1,1.56s-4.25-.52-6.1-1.56ZM638.68,36.57c1.08-.64,1.93-1.57,2.54-2.76.61-1.2.92-2.59.92-4.17s-.31-2.97-.92-4.15-1.46-2.1-2.54-2.73c-1.09-.63-2.34-.95-3.76-.95s-2.69.32-3.78.95c-1.1.63-1.95,1.54-2.56,2.73s-.92,2.57-.92,4.15.31,2.97.92,4.17c.61,1.2,1.46,2.12,2.56,2.76,1.1.64,2.36.97,3.78.97s2.68-.32,3.76-.97Z" fill="#fff"/>
      <path d="M670.79,41.54h-4.75l-10.75-16.24v16.24h-4.75v-23.71h4.75l10.75,16.28v-16.28h4.75v23.71Z" fill="#fff"/>
      <path d="M680.22,17.87v23.67h-4.75v-23.67h4.75Z" fill="#fff"/>
      <path d="M685.32,23.41c1.05-1.84,2.49-3.28,4.31-4.31,1.82-1.03,3.86-1.54,6.12-1.54,2.65,0,4.96.68,6.95,2.03,1.99,1.36,3.38,3.23,4.17,5.63h-5.46c-.54-1.13-1.31-1.98-2.29-2.54s-2.12-.85-3.41-.85c-1.38,0-2.61.32-3.68.97-1.07.64-1.91,1.55-2.51,2.73-.6,1.18-.9,2.56-.9,4.14s.3,2.93.9,4.12,1.44,2.1,2.51,2.75c1.07.64,2.3.97,3.68.97,1.29,0,2.42-.29,3.41-.86.98-.58,1.75-1.43,2.29-2.56h5.46c-.79,2.42-2.18,4.3-4.15,5.65-1.98,1.35-4.3,2.02-6.97,2.02-2.26,0-4.3-.51-6.12-1.54-1.82-1.03-3.26-2.46-4.31-4.29-1.05-1.83-1.58-3.91-1.58-6.24s.53-4.41,1.58-6.26Z" fill="#fff"/>
      <path d="M581.65,77.72h-9.43l-1.56,4.51h-4.99l8.51-23.71h5.53l8.51,23.71h-5.02l-1.56-4.51ZM580.36,73.93l-3.43-9.9-3.43,9.9h6.85Z" fill="#fff"/>
      <path d="M611.66,82.23h-4.75l-10.75-16.24v16.24h-4.75v-23.71h4.75l10.75,16.28v-16.28h4.75v23.71Z" fill="#fff"/>
      <path d="M631.18,60.02c1.89.97,3.35,2.36,4.38,4.15s1.54,3.88,1.54,6.26-.51,4.45-1.54,6.22-2.49,3.15-4.38,4.12c-1.89.97-4.08,1.46-6.56,1.46h-8.28v-23.67h8.28c2.49,0,4.67.49,6.56,1.46ZM630.21,76.16c1.36-1.36,2.03-3.27,2.03-5.73s-.68-4.39-2.03-5.78-3.28-2.09-5.77-2.09h-3.36v15.63h3.36c2.49,0,4.41-.68,5.77-2.04Z" fill="#fff"/>
      <path d="M492.95,104.8c1.05-1.84,2.49-3.28,4.31-4.31,1.82-1.03,3.86-1.54,6.12-1.54,2.65,0,4.96.68,6.95,2.03,1.99,1.36,3.38,3.23,4.17,5.63h-5.46c-.54-1.13-1.31-1.98-2.29-2.54s-2.12-.85-3.41-.85c-1.38,0-2.61.32-3.68.97-1.07.64-1.91,1.55-2.51,2.73-.6,1.18-.9,2.56-.9,4.14s.3,2.93.9,4.12,1.44,2.1,2.51,2.75c1.07.64,2.3.97,3.68.97,1.29,0,2.42-.29,3.41-.86.98-.58,1.75-1.43,2.29-2.56h5.46c-.79,2.42-2.18,4.3-4.15,5.65-1.98,1.35-4.3,2.02-6.97,2.02-2.26,0-4.3-.51-6.12-1.54-1.82-1.03-3.26-2.46-4.31-4.29-1.05-1.83-1.58-3.91-1.58-6.24s.53-4.41,1.58-6.26Z" fill="#fff"/>
      <path d="M523.45,121.61c-1.85-1.04-3.32-2.48-4.41-4.32-1.09-1.84-1.63-3.93-1.63-6.26s.54-4.38,1.63-6.22c1.08-1.84,2.55-3.28,4.41-4.32,1.85-1.04,3.89-1.56,6.1-1.56s4.28.52,6.12,1.56c1.84,1.04,3.3,2.48,4.38,4.32,1.07,1.84,1.61,3.92,1.61,6.22s-.54,4.41-1.61,6.26c-1.07,1.84-2.54,3.28-4.39,4.32-1.85,1.04-3.89,1.56-6.1,1.56s-4.25-.52-6.1-1.56ZM533.32,117.96c1.08-.64,1.93-1.57,2.54-2.76.61-1.2.92-2.59.92-4.17s-.31-2.97-.92-4.15-1.46-2.1-2.54-2.73c-1.09-.63-2.34-.95-3.76-.95s-2.69.32-3.78.95c-1.1.63-1.95,1.54-2.56,2.73s-.92,2.57-.92,4.15.31,2.97.92,4.17c.61,1.2,1.46,2.12,2.56,2.76,1.1.64,2.36.97,3.78.97s2.68-.32,3.76-.97Z" fill="#fff"/>
      <path d="M565.44,122.93h-4.75l-10.75-16.24v16.24h-4.75v-23.71h4.75l10.75,16.28v-16.28h4.75v23.71Z" fill="#fff"/>
      <path d="M586.23,99.26v3.83h-6.31v19.84h-4.75v-19.84h-6.31v-3.83h17.36Z" fill="#fff"/>
      <path d="M601.9,122.93l-5.22-9.22h-2.24v9.22h-4.75v-23.67h8.89c1.83,0,3.39.32,4.68.97,1.29.64,2.26,1.52,2.9,2.61.64,1.1.97,2.32.97,3.68,0,1.56-.45,2.97-1.36,4.22-.9,1.25-2.25,2.12-4.04,2.59l5.66,9.6h-5.49ZM594.44,110.15h3.97c1.29,0,2.25-.31,2.88-.93.63-.62.95-1.49.95-2.59s-.32-1.93-.95-2.53c-.63-.6-1.59-.9-2.88-.9h-3.97v6.95Z" fill="#fff"/>
      <path d="M616.31,121.61c-1.85-1.04-3.32-2.48-4.41-4.32-1.09-1.84-1.63-3.93-1.63-6.26s.54-4.38,1.63-6.22c1.08-1.84,2.55-3.28,4.41-4.32,1.85-1.04,3.89-1.56,6.1-1.56s4.28.52,6.12,1.56c1.84,1.04,3.3,2.48,4.38,4.32,1.07,1.84,1.61,3.92,1.61,6.22s-.54,4.41-1.61,6.26c-1.07,1.84-2.54,3.28-4.39,4.32-1.85,1.04-3.89,1.56-6.1,1.56s-4.25-.52-6.1-1.56ZM626.18,117.96c1.08-.64,1.93-1.57,2.54-2.76.61-1.2.92-2.59.92-4.17s-.31-2.97-.92-4.15-1.46-2.1-2.54-2.73c-1.09-.63-2.34-.95-3.76-.95s-2.69.32-3.78.95c-1.1.63-1.95,1.54-2.56,2.73s-.92,2.57-.92,4.15.31,2.97.92,4.17c.61,1.2,1.46,2.12,2.56,2.76,1.1.64,2.36.97,3.78.97s2.68-.32,3.76-.97Z" fill="#fff"/>
      <path d="M642.8,119.17h7.8v3.76h-12.55v-23.67h4.75v19.91Z" fill="#fff"/>
      <path d="M666.43,119.17h7.8v3.76h-12.55v-23.67h4.75v19.91Z" fill="#fff"/>
      <path d="M691.77,118.42h-9.43l-1.56,4.51h-4.99l8.51-23.71h5.53l8.51,23.71h-5.02l-1.56-4.51ZM690.48,114.62l-3.43-9.9-3.43,9.9h6.85Z" fill="#fff"/>
      <path d="M718.25,112.79c.86,1.08,1.29,2.33,1.29,3.73,0,1.27-.31,2.38-.93,3.34-.62.96-1.52,1.71-2.7,2.26-1.18.54-2.57.81-4.17.81h-10.21v-23.67h9.77c1.6,0,2.99.26,4.15.78,1.16.52,2.05,1.24,2.65,2.17.6.93.9,1.98.9,3.15,0,1.38-.37,2.53-1.1,3.46-.73.93-1.71,1.58-2.93,1.97,1.33.25,2.43.92,3.29,2ZM706.28,109.03h4.34c1.13,0,2-.25,2.61-.76s.92-1.24.92-2.19-.31-1.68-.92-2.2-1.48-.78-2.61-.78h-4.34v5.94ZM713.76,118.25c.64-.54.97-1.31.97-2.31s-.34-1.81-1.02-2.39c-.68-.58-1.59-.86-2.75-.86h-4.68v6.38h4.78c1.15,0,2.05-.27,2.7-.81Z" fill="#fff"/>
    </g>
    <g>
      <path d="M1720.74,879c-2.34-1-4.19-2.44-5.55-4.32-1.36-1.88-2.06-4.1-2.1-6.66h9c.12,1.72.73,3.08,1.83,4.08,1.1,1,2.61,1.5,4.53,1.5s3.5-.47,4.62-1.41c1.12-.94,1.68-2.17,1.68-3.69,0-1.24-.38-2.26-1.14-3.06-.76-.8-1.71-1.43-2.85-1.89-1.14-.46-2.71-.97-4.71-1.53-2.72-.8-4.93-1.59-6.63-2.37-1.7-.78-3.16-1.96-4.38-3.54-1.22-1.58-1.83-3.69-1.83-6.33,0-2.48.62-4.64,1.86-6.48,1.24-1.84,2.98-3.25,5.22-4.23,2.24-.98,4.8-1.47,7.68-1.47,4.32,0,7.83,1.05,10.53,3.15s4.19,5.03,4.47,8.79h-9.24c-.08-1.44-.69-2.63-1.83-3.57-1.14-.94-2.65-1.41-4.53-1.41-1.64,0-2.95.42-3.93,1.26-.98.84-1.47,2.06-1.47,3.66,0,1.12.37,2.05,1.11,2.79s1.66,1.34,2.76,1.8,2.65.99,4.65,1.59c2.72.8,4.94,1.6,6.66,2.4,1.72.8,3.2,2,4.44,3.6,1.24,1.6,1.86,3.7,1.86,6.3,0,2.24-.58,4.32-1.74,6.24s-2.86,3.45-5.1,4.59c-2.24,1.14-4.9,1.71-7.98,1.71-2.92,0-5.55-.5-7.89-1.5Z" fill="#fff"/>
      <path d="M1779.21,838.21v6.78h-11.16v35.1h-8.4v-35.1h-11.16v-6.78h30.72Z" fill="#fff"/>
      <path d="M1811.01,872.1h-16.68l-2.76,7.98h-8.82l15.06-41.94h9.78l15.06,41.94h-8.88l-2.76-7.98ZM1808.73,865.38l-6.06-17.52-6.06,17.52h12.12Z" fill="#fff"/>
      <path d="M1854.15,838.21v6.78h-17.46v10.74h13.38v6.66h-13.38v17.7h-8.4v-41.88h25.86Z" fill="#fff"/>
      <path d="M1885.95,838.21v6.78h-17.46v10.74h13.38v6.66h-13.38v17.7h-8.4v-41.88h25.86Z" fill="#fff"/>
    </g>
    <g>
      <g>
        <path d="M76.42,373.48c1.02-1.79,2.41-3.18,4.18-4.18,1.77-1,3.74-1.5,5.94-1.5,2.57,0,4.81.66,6.74,1.97,1.93,1.32,3.28,3.14,4.05,5.46h-5.3c-.53-1.1-1.27-1.92-2.22-2.47-.95-.55-2.06-.82-3.31-.82-1.34,0-2.53.31-3.57.94-1.04.63-1.85,1.51-2.43,2.65-.58,1.14-.87,2.48-.87,4.01s.29,2.85.87,4c.58,1.15,1.39,2.04,2.43,2.67,1.04.62,2.23.94,3.57.94,1.25,0,2.35-.28,3.31-.84.95-.56,1.69-1.39,2.22-2.48h5.3c-.77,2.35-2.11,4.17-4.03,5.48-1.92,1.31-4.17,1.96-6.76,1.96-2.19,0-4.17-.5-5.94-1.5-1.77-1-3.16-2.39-4.18-4.16-1.02-1.78-1.53-3.79-1.53-6.05s.51-4.28,1.53-6.07Z" fill="#fff"/>
        <path d="M106.01,389.78c-1.8-1.01-3.22-2.41-4.28-4.19s-1.58-3.81-1.58-6.07.53-4.25,1.58-6.04c1.05-1.79,2.48-3.19,4.28-4.19s3.77-1.51,5.92-1.51,4.15.5,5.94,1.51,3.2,2.41,4.24,4.19c1.04,1.79,1.56,3.8,1.56,6.04s-.52,4.28-1.56,6.07c-1.04,1.79-2.46,3.19-4.26,4.19-1.8,1.01-3.77,1.51-5.92,1.51s-4.12-.5-5.92-1.51ZM115.58,386.25c1.05-.62,1.88-1.52,2.47-2.68.59-1.16.89-2.51.89-4.05s-.3-2.88-.89-4.03-1.41-2.03-2.47-2.65c-1.05-.61-2.27-.92-3.65-.92s-2.6.31-3.67.92c-1.06.61-1.89,1.5-2.48,2.65-.59,1.15-.89,2.5-.89,4.03s.3,2.88.89,4.05c.59,1.16,1.42,2.06,2.48,2.68,1.06.62,2.29.94,3.67.94s2.6-.31,3.65-.94Z" fill="#fff"/>
        <path d="M131.64,368.1v14.21c0,1.56.41,2.75,1.22,3.57.81.82,1.95,1.23,3.42,1.23s2.64-.41,3.45-1.23c.81-.82,1.22-2.01,1.22-3.57v-14.21h4.64v14.18c0,1.95-.42,3.6-1.27,4.95-.84,1.35-1.97,2.36-3.39,3.04-1.41.68-2.99,1.02-4.72,1.02s-3.26-.34-4.65-1.02c-1.39-.68-2.5-1.69-3.31-3.04-.81-1.35-1.22-3-1.22-4.95v-14.18h4.61Z" fill="#fff"/>
        <path d="M161.87,391.07l-5.07-8.95h-2.17v8.95h-4.61v-22.96h8.62c1.78,0,3.29.31,4.54.94,1.25.63,2.19,1.47,2.81,2.53.62,1.06.94,2.25.94,3.57,0,1.51-.44,2.88-1.32,4.1-.88,1.22-2.18,2.06-3.92,2.52l5.49,9.31h-5.33ZM154.63,378.66h3.85c1.25,0,2.18-.3,2.8-.9.61-.6.92-1.44.92-2.52s-.31-1.87-.92-2.45c-.61-.58-1.55-.87-2.8-.87h-3.85v6.74Z" fill="#fff"/>
        <path d="M174.72,390.47c-1.28-.55-2.3-1.34-3.04-2.37-.75-1.03-1.13-2.25-1.15-3.65h4.94c.07.94.4,1.69,1,2.24.6.55,1.43.82,2.48.82s1.92-.26,2.53-.77c.61-.52.92-1.19.92-2.02,0-.68-.21-1.24-.62-1.68-.42-.44-.94-.78-1.56-1.04-.63-.25-1.49-.53-2.58-.84-1.49-.44-2.7-.87-3.64-1.3s-1.73-1.07-2.4-1.94c-.67-.87-1-2.02-1-3.47,0-1.36.34-2.54,1.02-3.55.68-1.01,1.63-1.78,2.86-2.32,1.23-.54,2.63-.81,4.21-.81,2.37,0,4.29.58,5.77,1.73,1.48,1.15,2.3,2.76,2.45,4.82h-5.07c-.04-.79-.38-1.44-1-1.96-.62-.51-1.45-.77-2.48-.77-.9,0-1.62.23-2.15.69-.54.46-.81,1.13-.81,2.01,0,.61.2,1.12.61,1.53.41.41.91.73,1.51.99.6.25,1.45.54,2.55.87,1.49.44,2.71.88,3.65,1.32.94.44,1.75,1.1,2.43,1.97.68.88,1.02,2.03,1.02,3.45,0,1.23-.32,2.37-.95,3.42-.64,1.05-1.57,1.89-2.8,2.52-1.23.63-2.69.94-4.38.94-1.6,0-3.04-.27-4.33-.82Z" fill="#fff"/>
        <path d="M195.76,371.82v5.76h7.73v3.65h-7.73v6.09h8.72v3.75h-13.32v-23h13.32v3.75h-8.72Z" fill="#fff"/>
      </g>
      <g>
        <path d="M11.3,414.65c1.02-1.79,2.41-3.18,4.18-4.18,1.77-1,3.74-1.5,5.94-1.5,2.57,0,4.81.66,6.74,1.97,1.93,1.32,3.28,3.14,4.05,5.46h-5.3c-.53-1.1-1.27-1.92-2.22-2.47-.95-.55-2.06-.82-3.31-.82-1.34,0-2.53.31-3.57.94s-1.85,1.51-2.43,2.65c-.58,1.14-.87,2.48-.87,4.01s.29,2.85.87,4c.58,1.15,1.39,2.04,2.43,2.66s2.23.94,3.57.94c1.25,0,2.35-.28,3.31-.84.95-.56,1.69-1.39,2.22-2.48h5.3c-.77,2.35-2.11,4.17-4.03,5.48s-4.17,1.96-6.76,1.96c-2.19,0-4.17-.5-5.94-1.5-1.77-1-3.16-2.39-4.18-4.16-1.02-1.78-1.53-3.79-1.53-6.05s.51-4.28,1.53-6.07Z" fill="#fff"/>
        <path d="M40.89,430.95c-1.8-1.01-3.22-2.41-4.28-4.19s-1.58-3.81-1.58-6.07.53-4.25,1.58-6.04c1.05-1.79,2.48-3.19,4.28-4.19,1.8-1.01,3.77-1.51,5.92-1.51s4.15.5,5.94,1.51c1.79,1.01,3.2,2.41,4.24,4.19,1.04,1.79,1.56,3.8,1.56,6.04s-.52,4.28-1.56,6.07c-1.04,1.79-2.46,3.19-4.26,4.19-1.8,1.01-3.77,1.51-5.92,1.51s-4.12-.5-5.92-1.51ZM50.46,427.41c1.05-.62,1.88-1.52,2.47-2.68.59-1.16.89-2.51.89-4.05s-.3-2.88-.89-4.03-1.41-2.03-2.47-2.65c-1.05-.61-2.27-.92-3.65-.92s-2.6.31-3.67.92c-1.06.61-1.89,1.5-2.48,2.65-.59,1.15-.89,2.49-.89,4.03s.3,2.88.89,4.05c.59,1.16,1.42,2.06,2.48,2.68,1.06.62,2.29.94,3.67.94s2.6-.31,3.65-.94Z" fill="#fff"/>
        <path d="M66.71,430.95c-1.8-1.01-3.22-2.41-4.28-4.19s-1.58-3.81-1.58-6.07.53-4.25,1.58-6.04c1.05-1.79,2.48-3.19,4.28-4.19,1.8-1.01,3.77-1.51,5.92-1.51s4.15.5,5.94,1.51c1.79,1.01,3.2,2.41,4.24,4.19,1.04,1.79,1.56,3.8,1.56,6.04s-.52,4.28-1.56,6.07c-1.04,1.79-2.46,3.19-4.26,4.19-1.8,1.01-3.77,1.51-5.92,1.51s-4.12-.5-5.92-1.51ZM76.28,427.41c1.05-.62,1.88-1.52,2.47-2.68.59-1.16.89-2.51.89-4.05s-.3-2.88-.89-4.03-1.41-2.03-2.47-2.65c-1.05-.61-2.27-.92-3.65-.92s-2.6.31-3.67.92c-1.06.61-1.89,1.5-2.48,2.65-.59,1.15-.89,2.49-.89,4.03s.3,2.88.89,4.05c.59,1.16,1.42,2.06,2.48,2.68,1.06.62,2.29.94,3.67.94s2.6-.31,3.65-.94Z" fill="#fff"/>
        <path d="M99.64,432.23l-5.07-8.95h-2.17v8.95h-4.61v-22.96h8.62c1.78,0,3.29.31,4.54.94s2.19,1.47,2.81,2.53c.62,1.06.94,2.25.94,3.57,0,1.51-.44,2.88-1.32,4.1-.88,1.22-2.18,2.06-3.91,2.52l5.49,9.31h-5.33ZM92.4,419.83h3.85c1.25,0,2.18-.3,2.8-.9.61-.6.92-1.44.92-2.52s-.31-1.87-.92-2.45c-.61-.58-1.55-.87-2.8-.87h-3.85v6.74Z" fill="#fff"/>
        <path d="M123.27,410.68c1.83.94,3.25,2.29,4.24,4.03,1,1.74,1.5,3.77,1.5,6.07s-.5,4.31-1.5,6.04c-1,1.72-2.41,3.05-4.24,4-1.83.94-3.95,1.41-6.37,1.41h-8.03v-22.96h8.03c2.41,0,4.53.47,6.37,1.41ZM122.34,426.34c1.32-1.32,1.97-3.17,1.97-5.56s-.66-4.26-1.97-5.61c-1.32-1.35-3.18-2.02-5.59-2.02h-3.26v15.17h3.26c2.41,0,4.28-.66,5.59-1.97Z" fill="#fff"/>
        <path d="M137.07,409.27v22.96h-4.61v-22.96h4.61Z" fill="#fff"/>
        <path d="M161.25,432.23h-4.61l-10.43-15.76v15.76h-4.61v-22.99h4.61l10.43,15.79v-15.79h4.61v22.99Z" fill="#fff"/>
        <path d="M179.87,427.85h-9.15l-1.51,4.38h-4.84l8.26-22.99h5.36l8.26,22.99h-4.87l-1.51-4.38ZM178.62,424.17l-3.32-9.61-3.32,9.61h6.65Z" fill="#fff"/>
        <path d="M204.97,409.27v3.72h-6.12v19.24h-4.61v-19.24h-6.12v-3.72h16.84Z" fill="#fff"/>
        <path d="M213.06,430.95c-1.8-1.01-3.22-2.41-4.28-4.19s-1.58-3.81-1.58-6.07.53-4.25,1.58-6.04c1.05-1.79,2.48-3.19,4.28-4.19,1.8-1.01,3.77-1.51,5.92-1.51s4.15.5,5.94,1.51c1.79,1.01,3.2,2.41,4.24,4.19,1.04,1.79,1.56,3.8,1.56,6.04s-.52,4.28-1.56,6.07c-1.04,1.79-2.46,3.19-4.26,4.19-1.8,1.01-3.77,1.51-5.92,1.51s-4.12-.5-5.92-1.51ZM222.64,427.41c1.05-.62,1.88-1.52,2.47-2.68.59-1.16.89-2.51.89-4.05s-.3-2.88-.89-4.03-1.41-2.03-2.47-2.65c-1.05-.61-2.27-.92-3.65-.92s-2.6.31-3.67.92c-1.06.61-1.89,1.5-2.48,2.65-.59,1.15-.89,2.49-.89,4.03s.3,2.88.89,4.05c.59,1.16,1.42,2.06,2.48,2.68,1.06.62,2.29.94,3.67.94s2.6-.31,3.65-.94Z" fill="#fff"/>
        <path d="M245.99,432.23l-5.07-8.95h-2.17v8.95h-4.61v-22.96h8.62c1.78,0,3.29.31,4.54.94s2.19,1.47,2.81,2.53c.62,1.06.94,2.25.94,3.57,0,1.51-.44,2.88-1.32,4.1-.88,1.22-2.18,2.06-3.91,2.52l5.49,9.31h-5.33ZM238.76,419.83h3.85c1.25,0,2.18-.3,2.8-.9.61-.6.92-1.44.92-2.52s-.31-1.87-.92-2.45c-.61-.58-1.55-.87-2.8-.87h-3.85v6.74Z" fill="#fff"/>
        <path d="M258.84,431.64c-1.28-.55-2.3-1.34-3.04-2.37-.75-1.03-1.13-2.25-1.15-3.65h4.93c.07.94.4,1.69,1,2.24.6.55,1.43.82,2.48.82s1.92-.26,2.53-.77c.61-.52.92-1.19.92-2.02,0-.68-.21-1.24-.62-1.68-.42-.44-.94-.78-1.56-1.04-.62-.25-1.49-.53-2.58-.84-1.49-.44-2.7-.87-3.63-1.3-.93-.43-1.73-1.07-2.4-1.94-.67-.87-1-2.02-1-3.47,0-1.36.34-2.54,1.02-3.55.68-1.01,1.63-1.78,2.86-2.32,1.23-.54,2.63-.81,4.21-.81,2.37,0,4.29.58,5.77,1.73s2.3,2.76,2.45,4.82h-5.07c-.04-.79-.38-1.44-1-1.96-.62-.52-1.45-.77-2.48-.77-.9,0-1.62.23-2.15.69-.54.46-.81,1.13-.81,2.01,0,.61.2,1.12.61,1.53.41.41.91.74,1.51.99.6.25,1.45.54,2.55.87,1.49.44,2.71.88,3.65,1.32.94.44,1.75,1.1,2.43,1.97.68.88,1.02,2.03,1.02,3.45,0,1.23-.32,2.37-.95,3.42-.64,1.05-1.57,1.89-2.8,2.52-1.23.62-2.69.94-4.38.94-1.6,0-3.04-.27-4.33-.82Z" fill="#fff"/>
      </g>
      <g>
        <path d="M85.59,465.72c-1.8-1.01-3.22-2.41-4.28-4.19s-1.58-3.81-1.58-6.07.53-4.25,1.58-6.04c1.05-1.79,2.48-3.19,4.28-4.19s3.77-1.51,5.92-1.51,4.15.5,5.94,1.51,3.2,2.41,4.24,4.19c1.04,1.79,1.56,3.8,1.56,6.04s-.52,4.28-1.56,6.07c-1.04,1.79-2.46,3.19-4.26,4.19-1.8,1.01-3.77,1.51-5.92,1.51s-4.12-.5-5.92-1.51ZM95.16,462.18c1.05-.62,1.88-1.52,2.47-2.68.59-1.16.89-2.51.89-4.05s-.3-2.88-.89-4.03-1.41-2.03-2.47-2.65c-1.05-.61-2.27-.92-3.65-.92s-2.6.31-3.67.92c-1.06.61-1.89,1.5-2.48,2.65-.59,1.15-.89,2.5-.89,4.03s.3,2.88.89,4.05c.59,1.16,1.42,2.06,2.48,2.68,1.06.62,2.29.94,3.67.94s2.6-.31,3.65-.94Z" fill="#fff"/>
        <path d="M120.86,444.04v3.72h-9.57v5.89h7.34v3.65h-7.34v9.71h-4.61v-22.96h14.18Z" fill="#fff"/>
        <path d="M138.29,444.04v3.72h-9.57v5.89h7.34v3.65h-7.34v9.71h-4.61v-22.96h14.18Z" fill="#fff"/>
        <path d="M146.16,444.04v22.96h-4.61v-22.96h4.61Z" fill="#fff"/>
        <path d="M151.11,449.41c1.02-1.79,2.41-3.18,4.18-4.18,1.77-1,3.74-1.5,5.94-1.5,2.57,0,4.81.66,6.74,1.97,1.93,1.32,3.28,3.14,4.05,5.46h-5.3c-.53-1.1-1.27-1.92-2.22-2.47-.95-.55-2.06-.82-3.31-.82-1.34,0-2.53.31-3.57.94-1.04.63-1.85,1.51-2.43,2.65-.58,1.14-.87,2.48-.87,4.01s.29,2.85.87,4c.58,1.15,1.39,2.04,2.43,2.67,1.04.62,2.23.94,3.57.94,1.25,0,2.35-.28,3.31-.84.95-.56,1.69-1.39,2.22-2.48h5.3c-.77,2.35-2.11,4.17-4.03,5.48-1.92,1.31-4.17,1.96-6.76,1.96-2.19,0-4.17-.5-5.94-1.5-1.77-1-3.16-2.39-4.18-4.16-1.02-1.78-1.53-3.79-1.53-6.05s.51-4.28,1.53-6.07Z" fill="#fff"/>
        <path d="M180.57,447.75v5.76h7.73v3.65h-7.73v6.09h8.72v3.75h-13.32v-23h13.32v3.75h-8.72Z" fill="#fff"/>
      </g>
    </g>
    <rect x="447.66" y="315.4" width="1067.84" height="500.1" fill="#95efcc" stroke="#6d8c7d" stroke-miterlimit="10" stroke-width="3"/>
    <g>
      <path d="M872.49,507.3c-5.85-2.5-10.48-6.1-13.88-10.8-3.4-4.7-5.15-10.25-5.25-16.65h22.5c.3,4.3,1.82,7.7,4.58,10.2,2.75,2.5,6.52,3.75,11.32,3.75s8.75-1.17,11.55-3.52c2.8-2.35,4.2-5.42,4.2-9.23,0-3.1-.95-5.65-2.85-7.65-1.9-2-4.28-3.57-7.12-4.73-2.85-1.15-6.78-2.42-11.78-3.82-6.8-2-12.33-3.98-16.57-5.93-4.25-1.95-7.9-4.9-10.95-8.85-3.05-3.95-4.57-9.23-4.57-15.83,0-6.2,1.55-11.6,4.65-16.2,3.1-4.6,7.45-8.12,13.05-10.57,5.6-2.45,12-3.68,19.2-3.68,10.8,0,19.57,2.62,26.32,7.88s10.47,12.58,11.18,21.98h-23.1c-.2-3.6-1.73-6.57-4.58-8.92-2.85-2.35-6.63-3.52-11.32-3.52-4.1,0-7.38,1.05-9.83,3.15-2.45,2.1-3.67,5.15-3.67,9.15,0,2.8.92,5.13,2.77,6.98,1.85,1.85,4.15,3.35,6.9,4.5,2.75,1.15,6.62,2.48,11.62,3.98,6.8,2,12.35,4,16.65,6,4.3,2,8,5,11.1,9,3.1,4,4.65,9.25,4.65,15.75,0,5.6-1.45,10.8-4.35,15.6-2.9,4.8-7.15,8.62-12.75,11.48-5.6,2.85-12.25,4.27-19.95,4.27-7.3,0-13.88-1.25-19.73-3.75Z" fill="#fff"/>
      <path d="M963.84,507.3c-5.85-2.5-10.48-6.1-13.88-10.8-3.4-4.7-5.15-10.25-5.25-16.65h22.5c.3,4.3,1.82,7.7,4.58,10.2,2.75,2.5,6.53,3.75,11.32,3.75s8.75-1.17,11.55-3.52c2.8-2.35,4.2-5.42,4.2-9.23,0-3.1-.95-5.65-2.85-7.65-1.9-2-4.28-3.57-7.12-4.73-2.85-1.15-6.78-2.42-11.78-3.82-6.8-2-12.33-3.98-16.57-5.93-4.25-1.95-7.9-4.9-10.95-8.85-3.05-3.95-4.57-9.23-4.57-15.83,0-6.2,1.55-11.6,4.65-16.2,3.1-4.6,7.45-8.12,13.05-10.57,5.6-2.45,12-3.68,19.2-3.68,10.8,0,19.57,2.62,26.32,7.88s10.47,12.58,11.18,21.98h-23.1c-.2-3.6-1.73-6.57-4.58-8.92-2.85-2.35-6.62-3.52-11.32-3.52-4.1,0-7.38,1.05-9.83,3.15-2.45,2.1-3.67,5.15-3.67,9.15,0,2.8.92,5.13,2.78,6.98,1.85,1.85,4.15,3.35,6.9,4.5,2.75,1.15,6.62,2.48,11.62,3.98,6.8,2,12.35,4,16.65,6,4.3,2,8,5,11.1,9,3.1,4,4.65,9.25,4.65,15.75,0,5.6-1.45,10.8-4.35,15.6-2.9,4.8-7.15,8.62-12.75,11.48-5.6,2.85-12.25,4.27-19.95,4.27-7.3,0-13.88-1.25-19.73-3.75Z" fill="#fff"/>
      <path d="M1110.02,405.3v16.95h-27.9v87.75h-21v-87.75h-27.9v-16.95h76.8Z" fill="#fff"/>
      <path d="M821.04,585.3v16.95h-43.65v26.85h33.45v16.65h-33.45v44.25h-21v-104.7h64.65Z" fill="#fff"/>
      <path d="M857.49,684.15c-8.2-4.6-14.7-10.97-19.5-19.12-4.8-8.15-7.2-17.38-7.2-27.68s2.4-19.37,7.2-27.52c4.8-8.15,11.3-14.52,19.5-19.12,8.2-4.6,17.2-6.9,27-6.9s18.92,2.3,27.07,6.9c8.15,4.6,14.6,10.98,19.35,19.12,4.75,8.15,7.12,17.33,7.12,27.52s-2.38,19.53-7.12,27.68c-4.75,8.15-11.23,14.53-19.42,19.12-8.2,4.6-17.2,6.9-27,6.9s-18.8-2.3-27-6.9ZM901.14,668.03c4.8-2.85,8.55-6.92,11.25-12.23,2.7-5.3,4.05-11.45,4.05-18.45s-1.35-13.12-4.05-18.38c-2.7-5.25-6.45-9.27-11.25-12.07-4.8-2.8-10.35-4.2-16.65-4.2s-11.88,1.4-16.73,4.2c-4.85,2.8-8.62,6.82-11.33,12.07-2.7,5.25-4.05,11.38-4.05,18.38s1.35,13.15,4.05,18.45c2.7,5.3,6.47,9.38,11.33,12.23,4.85,2.85,10.42,4.27,16.73,4.27s11.85-1.42,16.65-4.27Z" fill="#fff"/>
      <path d="M1036.89,585.3l-35.4,68.25v36.45h-21v-36.45l-35.55-68.25h23.7l22.5,47.85,22.35-47.85h23.4Z" fill="#fff"/>
      <path d="M1070.04,602.25v26.25h35.25v16.65h-35.25v27.75h39.75v17.1h-60.75v-104.85h60.75v17.1h-39.75Z" fill="#fff"/>
      <path d="M1182.84,690l-23.1-40.8h-9.9v40.8h-21v-104.7h39.3c8.1,0,15,1.42,20.7,4.28,5.7,2.85,9.98,6.7,12.83,11.55,2.85,4.85,4.28,10.28,4.28,16.28,0,6.9-2,13.12-6,18.67-4,5.55-9.95,9.38-17.85,11.47l25.05,42.45h-24.3ZM1149.84,633.45h17.55c5.7,0,9.95-1.37,12.75-4.12,2.8-2.75,4.2-6.57,4.2-11.48s-1.4-8.52-4.2-11.17c-2.8-2.65-7.05-3.97-12.75-3.97h-17.55v30.75Z" fill="#fff"/>
    </g>
    <rect x="1675.5" y="442.5" width="263" height="136" fill="#fed766" stroke="#fff" stroke-miterlimit="10" stroke-width="3"/>
    <rect x="1744" y="578.5" width="190.14" height="187" fill="#71b340" stroke="#fff" stroke-miterlimit="10" stroke-width="3"/>
    <g>
      <path d="M1808.93,658.61l-6.08-10.75h-2.61v10.75h-5.53v-27.57h10.35c2.13,0,3.95.38,5.45,1.12,1.5.75,2.63,1.77,3.38,3.04.75,1.28,1.13,2.71,1.13,4.29,0,1.82-.53,3.46-1.58,4.92-1.05,1.46-2.62,2.47-4.7,3.02l6.6,11.18h-6.4ZM1800.24,643.72h4.62c1.5,0,2.62-.36,3.36-1.09s1.11-1.73,1.11-3.02-.37-2.25-1.11-2.94c-.74-.7-1.86-1.05-3.36-1.05h-4.62v8.1Z" fill="#fff"/>
      <path d="M1825.56,635.5v6.91h9.28v4.38h-9.28v7.31h10.47v4.5h-16v-27.61h16v4.5h-10.47Z" fill="#fff"/>
      <path d="M1845.37,657.9c-1.54-.66-2.76-1.61-3.65-2.84-.9-1.24-1.36-2.7-1.38-4.38h5.93c.08,1.13.48,2.03,1.2,2.69s1.72.99,2.98.99,2.3-.31,3.04-.93,1.11-1.43,1.11-2.43c0-.82-.25-1.49-.75-2.01-.5-.53-1.13-.94-1.88-1.24-.75-.3-1.79-.64-3.1-1.01-1.79-.53-3.25-1.05-4.36-1.56-1.12-.51-2.08-1.29-2.88-2.33-.8-1.04-1.21-2.43-1.21-4.17,0-1.63.41-3.05,1.22-4.27.82-1.21,1.96-2.14,3.44-2.79,1.47-.64,3.16-.97,5.06-.97,2.84,0,5.16.69,6.93,2.07,1.78,1.38,2.76,3.31,2.94,5.79h-6.08c-.05-.95-.45-1.73-1.21-2.35-.75-.62-1.75-.93-2.98-.93-1.08,0-1.94.28-2.59.83-.65.55-.97,1.36-.97,2.41,0,.74.24,1.35.73,1.84s1.09.88,1.82,1.19c.72.3,1.74.65,3.06,1.05,1.79.53,3.25,1.05,4.38,1.58,1.13.53,2.11,1.32,2.92,2.37s1.22,2.44,1.22,4.15c0,1.48-.38,2.84-1.15,4.11-.76,1.26-1.88,2.27-3.36,3.02-1.48.75-3.23,1.13-5.25,1.13-1.92,0-3.65-.33-5.2-.99Z" fill="#fff"/>
      <path d="M1883.86,631.04v4.46h-7.35v23.11h-5.53v-23.11h-7.35v-4.46h20.23Z" fill="#fff"/>
      <path d="M1794.09,706.01l-6.08-10.75h-2.61v10.75h-5.53v-27.57h10.35c2.13,0,3.95.38,5.45,1.13,1.5.75,2.63,1.76,3.38,3.04.75,1.28,1.13,2.71,1.13,4.29,0,1.82-.53,3.46-1.58,4.92-1.05,1.46-2.62,2.47-4.7,3.02l6.6,11.18h-6.4ZM1785.4,691.12h4.62c1.5,0,2.62-.36,3.36-1.09s1.11-1.73,1.11-3.02-.37-2.25-1.11-2.94c-.74-.7-1.86-1.05-3.36-1.05h-4.62v8.1Z" fill="#fff"/>
      <path d="M1810.88,704.47c-2.16-1.21-3.87-2.89-5.14-5.04-1.26-2.15-1.9-4.58-1.9-7.29s.63-5.1,1.9-7.25c1.26-2.15,2.98-3.83,5.14-5.04,2.16-1.21,4.53-1.82,7.11-1.82s4.98.61,7.13,1.82,3.84,2.89,5.1,5.04c1.25,2.15,1.88,4.56,1.88,7.25s-.63,5.14-1.88,7.29c-1.25,2.15-2.96,3.83-5.12,5.04-2.16,1.21-4.53,1.82-7.11,1.82s-4.95-.61-7.11-1.82ZM1822.38,700.23c1.26-.75,2.25-1.82,2.96-3.22.71-1.4,1.07-3.01,1.07-4.86s-.36-3.46-1.07-4.84c-.71-1.38-1.7-2.44-2.96-3.18-1.26-.74-2.73-1.11-4.38-1.11s-3.13.37-4.4,1.11c-1.28.74-2.27,1.8-2.98,3.18-.71,1.38-1.07,3-1.07,4.84s.36,3.46,1.07,4.86c.71,1.4,1.71,2.47,2.98,3.22s2.75,1.13,4.4,1.13,3.12-.38,4.38-1.13Z" fill="#fff"/>
      <path d="M1841.89,704.47c-2.16-1.21-3.87-2.89-5.14-5.04-1.26-2.15-1.9-4.58-1.9-7.29s.63-5.1,1.9-7.25c1.26-2.15,2.98-3.83,5.14-5.04,2.16-1.21,4.53-1.82,7.11-1.82s4.98.61,7.13,1.82,3.84,2.89,5.1,5.04c1.25,2.15,1.88,4.56,1.88,7.25s-.63,5.14-1.88,7.29c-1.25,2.15-2.96,3.83-5.12,5.04-2.16,1.21-4.53,1.82-7.11,1.82s-4.95-.61-7.11-1.82ZM1853.39,700.23c1.26-.75,2.25-1.82,2.96-3.22.71-1.4,1.07-3.01,1.07-4.86s-.36-3.46-1.07-4.84c-.71-1.38-1.7-2.44-2.96-3.18-1.26-.74-2.73-1.11-4.38-1.11s-3.13.37-4.4,1.11c-1.28.74-2.27,1.8-2.98,3.18-.71,1.38-1.07,3-1.07,4.84s.36,3.46,1.07,4.86c.71,1.4,1.71,2.47,2.98,3.22s2.75,1.13,4.4,1.13,3.12-.38,4.38-1.13Z" fill="#fff"/>
      <path d="M1897.27,678.44v27.57h-5.53v-17.93l-7.39,17.93h-4.19l-7.43-17.93v17.93h-5.53v-27.57h6.28l8.77,20.5,8.77-20.5h6.24Z" fill="#fff"/>
    </g>
    <g>
      <path d="M1706.59,530.22c-2.34-1-4.19-2.44-5.55-4.32-1.36-1.88-2.06-4.1-2.1-6.66h9c.12,1.72.73,3.08,1.83,4.08,1.1,1,2.61,1.5,4.53,1.5s3.5-.47,4.62-1.41c1.12-.94,1.68-2.17,1.68-3.69,0-1.24-.38-2.26-1.14-3.06s-1.71-1.43-2.85-1.89c-1.14-.46-2.71-.97-4.71-1.53-2.72-.8-4.93-1.59-6.63-2.37-1.7-.78-3.16-1.96-4.38-3.54s-1.83-3.69-1.83-6.33c0-2.48.62-4.64,1.86-6.48,1.24-1.84,2.98-3.25,5.22-4.23,2.24-.98,4.8-1.47,7.68-1.47,4.32,0,7.83,1.05,10.53,3.15,2.7,2.1,4.19,5.03,4.47,8.79h-9.24c-.08-1.44-.69-2.63-1.83-3.57-1.14-.94-2.65-1.41-4.53-1.41-1.64,0-2.95.42-3.93,1.26-.98.84-1.47,2.06-1.47,3.66,0,1.12.37,2.05,1.11,2.79s1.66,1.34,2.76,1.8c1.1.46,2.65.99,4.65,1.59,2.72.8,4.94,1.6,6.66,2.4s3.2,2,4.44,3.6c1.24,1.6,1.86,3.7,1.86,6.3,0,2.24-.58,4.32-1.74,6.24-1.16,1.92-2.86,3.45-5.1,4.59s-4.9,1.71-7.98,1.71c-2.92,0-5.55-.5-7.89-1.5Z" fill="#fff"/>
      <path d="M1765.06,489.42v6.78h-11.16v35.1h-8.4v-35.1h-11.16v-6.78h30.72Z" fill="#fff"/>
      <path d="M1796.86,523.32h-16.68l-2.76,7.98h-8.82l15.06-41.94h9.78l15.06,41.94h-8.88l-2.76-7.98ZM1794.58,516.6l-6.06-17.52-6.06,17.52h12.12Z" fill="#fff"/>
      <path d="M1822.54,489.42v41.88h-8.4v-41.88h8.4Z" fill="#fff"/>
      <path d="M1852.42,531.3l-9.24-16.32h-3.96v16.32h-8.4v-41.88h15.72c3.24,0,6,.57,8.28,1.71,2.28,1.14,3.99,2.68,5.13,4.62,1.14,1.94,1.71,4.11,1.71,6.51,0,2.76-.8,5.25-2.4,7.47-1.6,2.22-3.98,3.75-7.14,4.59l10.02,16.98h-9.72ZM1839.22,508.68h7.02c2.28,0,3.98-.55,5.1-1.65,1.12-1.1,1.68-2.63,1.68-4.59s-.56-3.41-1.68-4.47c-1.12-1.06-2.82-1.59-5.1-1.59h-7.02v12.3Z" fill="#fff"/>
      <path d="M1875.85,530.22c-2.34-1-4.19-2.44-5.55-4.32-1.36-1.88-2.06-4.1-2.1-6.66h9c.12,1.72.73,3.08,1.83,4.08,1.1,1,2.61,1.5,4.53,1.5s3.5-.47,4.62-1.41c1.12-.94,1.68-2.17,1.68-3.69,0-1.24-.38-2.26-1.14-3.06-.76-.8-1.71-1.43-2.85-1.89-1.14-.46-2.71-.97-4.71-1.53-2.72-.8-4.93-1.59-6.63-2.37-1.7-.78-3.16-1.96-4.38-3.54-1.22-1.58-1.83-3.69-1.83-6.33,0-2.48.62-4.64,1.86-6.48,1.24-1.84,2.98-3.25,5.22-4.23,2.24-.98,4.8-1.47,7.68-1.47,4.32,0,7.83,1.05,10.53,3.15s4.19,5.03,4.47,8.79h-9.24c-.08-1.44-.69-2.63-1.83-3.57-1.14-.94-2.65-1.41-4.53-1.41-1.64,0-2.95.42-3.93,1.26-.98.84-1.47,2.06-1.47,3.66,0,1.12.37,2.05,1.11,2.79.74.74,1.66,1.34,2.76,1.8,1.1.46,2.65.99,4.65,1.59,2.72.8,4.94,1.6,6.66,2.4,1.72.8,3.2,2,4.44,3.6,1.24,1.6,1.86,3.7,1.86,6.3,0,2.24-.58,4.32-1.74,6.24s-2.86,3.45-5.1,4.59c-2.24,1.14-4.9,1.71-7.98,1.71-2.92,0-5.55-.5-7.89-1.5Z" fill="#fff"/>
    </g>
  </g>
</svg>