<?xml version="1.0" encoding="UTF-8"?>
<svg xmlns="http://www.w3.org/2000/svg" viewBox="0 0 1920 1080">
  <g id="Layer_6">
    <rect x="-40" y="-27" width="1992" height="1154" fill="#f9f9f9"/>
  </g>
  <g id="TYD_Ground_Floor">
    <rect x="511.5" y="858.5" width="76" height="166" fill="#ddd" stroke="#999" stroke-miterlimit="10"/>
    <rect x="114.5" y="857.5" width="89" height="180" fill="#ddd" stroke="#999" stroke-miterlimit="10"/>
    <rect x="1571.5" y="936.5" width="362" height="161" fill="#ddd" stroke="#999" stroke-miterlimit="10"/>
    <rect x="1074" y="-12" width="846" height="220.14" fill="#ddd" stroke="#999" stroke-miterlimit="10" stroke-width="2"/>
    <rect x=".5" y="856.5" width="136" height="157" fill="#2e3a6e" stroke="#fff" stroke-miterlimit="10"/>
    <rect x="-6.5" y="-11.5" width="282" height="143.37" fill="#6d4a67" stroke="#fff" stroke-miterlimit="10" stroke-width="3"/>
    <rect x="-9.5" y="202" width="286" height="137.1" fill="#757575" stroke="#fff" stroke-miterlimit="10" stroke-width="3"/>
    <rect x="330.5" y="-11.49" width="81" height="347.71" fill="#6d4a67" stroke="#fff" stroke-miterlimit="10" stroke-width="3"/>
    <rect x="561.5" y="-11.49" width="200" height="347.71" fill="#e55934" stroke="#fff" stroke-miterlimit="10" stroke-width="3"/>
    <rect x="813.5" y="-11.49" width="261" height="470.99" fill="#6d4a67" stroke="#fff" stroke-miterlimit="10" stroke-width="3"/>
    <rect x="1678" y=".5" width="242.5" height="882.5" fill="#ddd" stroke="#999" stroke-miterlimit="10" stroke-width="2"/>
    <rect x="1675.5" y="719.5" width="245" height="150" fill="#2e3a6e" stroke="#fff" stroke-miterlimit="10"/>
    <rect x="1585" y="935.5" width="201.5" height="164" fill="#2e3a6e" stroke="#fff" stroke-miterlimit="10"/>
    <rect x="278.5" y="469.5" width="374" height="280" fill="#ddd" stroke="#999" stroke-miterlimit="10" stroke-width="3"/>
    <rect x="1210.5" y="275.5" width="327" height="191.5" fill="#95efcc" stroke="#6d8c7d" stroke-miterlimit="10" stroke-width="3"/>
    <rect x="1271.5" y="521.5" width="163" height="336" fill="#fed766" stroke="#fff" stroke-miterlimit="10" stroke-width="3"/>
    <rect x="1074.5" y="983.5" width="106" height="114" fill="none" stroke="#fff" stroke-miterlimit="10" stroke-width="3"/>
    <rect x="342.5" y="917" width="101" height="98.5" fill="#fed766" stroke="#fff" stroke-miterlimit="10" stroke-width="3"/>
    <rect x="273.5" y="917" width="69" height="98.5" fill="#71b340" stroke="#fff" stroke-miterlimit="10" stroke-width="3"/>
    <rect x="140.5" y="876.5" width="64" height="137" fill="#2e3a6e" stroke="#fff" stroke-miterlimit="10"/>
    <rect x="411.5" y="-11.49" width="55" height="235.49" fill="#fed766" stroke="#fff" stroke-miterlimit="10" stroke-width="3"/>
    <rect x="466.5" y="-11.49" width="64" height="235.49" fill="#71b340" stroke="#fff" stroke-miterlimit="10" stroke-width="3"/>
    <rect x="1133.5" y="-11.49" width="154" height="222.66" fill="#2e3a6e" stroke="#fff" stroke-miterlimit="10"/>
    <rect x="1448.5" y="-11.49" width="485" height="222.66" fill="#2e3a6e" stroke="#fff" stroke-miterlimit="10"/>
    <rect x="1675.5" y="396.5" width="245" height="237" fill="#2e3a6e" stroke="#fff" stroke-miterlimit="10"/>
    <rect x="1402.5" y="1017" width="166" height="82.5" fill="#71b340" stroke="#fff" stroke-miterlimit="10" stroke-width="3"/>
    <rect x="1297.5" y="1017" width="105" height="81.1" fill="#fed766" stroke="#fff" stroke-miterlimit="10" stroke-width="3"/>
    <rect x="1074.5" y="983.5" width="220" height="114" fill="#ddd" stroke="#999" stroke-miterlimit="10"/>
    <rect x=".5" y="1013.5" width="840" height="114" fill="#ddd" stroke="#999" stroke-miterlimit="10"/>
    <rect x="764.5" y="859.5" width="76" height="154" fill="#ddd" stroke="#999" stroke-miterlimit="10"/>
    <rect x="459.5" y="469.5" width="193" height="280" fill="#95efcc" stroke="#6d8c7d" stroke-miterlimit="10" stroke-width="3"/>
    <rect x=".5" y="380.5" width="204" height="432" fill="#95efcc" stroke="#6d8c7d" stroke-miterlimit="10" stroke-width="3"/>
    <rect x="1160.5" y="525.5" width="111" height="329" fill="#95efcc" stroke="#6d8c7d" stroke-miterlimit="10" stroke-width="3"/>
    <polygon points="910 643 910 525.5 817.5 525.5 817.5 747.5 1074.5 747.5 1074.5 643 910 643" fill="#84d1d3" stroke="#447272" stroke-miterlimit="10" stroke-width="3"/>
    <g>
      <path d="M1614.25,995.51v22.12c0,3.07-.83,5.46-2.49,7.16-1.66,1.7-3.88,2.55-6.65,2.55s-5.08-.87-6.8-2.62c-1.73-1.75-2.59-4.18-2.59-7.31h5.9c.03,1.35.33,2.41.91,3.16.58.75,1.41,1.13,2.51,1.13s1.88-.36,2.44-1.08c.56-.72.84-1.72.84-2.98v-22.12h5.94Z" fill="#fff"/>
      <path d="M1639.14,1021.02h-11.71l-1.94,6h-6.19l10.57-31.56h6.87l10.57,31.56h-6.23l-1.94-6ZM1637.54,1015.96l-4.25-13.18-4.25,13.18h8.51Z" fill="#fff"/>
      <path d="M1657.17,1022.01h9.69v5.01h-15.58v-31.51h5.9v26.5Z" fill="#fff"/>
      <path d="M1676.5,995.51v31.51h-5.9v-31.51h5.9Z" fill="#fff"/>
      <path d="M1707.46,1027.03h-5.9l-13.35-21.63v21.63h-5.9v-31.56h5.9l13.35,21.67v-21.67h5.9v31.56Z" fill="#fff"/>
      <path d="M1733.74,1004.99c-.67-1.32-1.6-2.33-2.78-3.03-1.18-.69-2.56-1.04-4.13-1.04-1.74,0-3.29.42-4.63,1.26-1.35.84-2.4,2.05-3.16,3.61-.76,1.57-1.14,3.37-1.14,5.42s.39,3.94,1.16,5.51,1.85,2.77,3.22,3.61c1.38.84,2.98,1.26,4.8,1.26,2.25,0,4.08-.64,5.52-1.92,1.43-1.28,2.37-3.06,2.82-5.35h-10.11v-4.83h15.92v5.51c-.39,2.2-1.24,4.23-2.53,6.09-1.29,1.87-2.96,3.36-4.99,4.49-2.04,1.13-4.32,1.69-6.84,1.69-2.84,0-5.4-.68-7.69-2.05-2.29-1.37-4.09-3.27-5.39-5.71-1.31-2.44-1.96-5.21-1.96-8.31s.65-5.88,1.96-8.33c1.31-2.45,3.1-4.36,5.39-5.73,2.29-1.37,4.84-2.05,7.64-2.05,3.31,0,6.19.87,8.63,2.6,2.44,1.73,4.13,4.16,5.05,7.29h-6.78Z" fill="#fff"/>
      <path d="M1751.68,1025.27c-2.3-1.38-4.13-3.3-5.48-5.76-1.35-2.45-2.02-5.23-2.02-8.33s.67-5.83,2.02-8.29c1.35-2.45,3.17-4.37,5.48-5.76,2.3-1.38,4.83-2.08,7.58-2.08s5.31.69,7.6,2.08c2.29,1.38,4.1,3.3,5.43,5.76,1.33,2.45,2,5.21,2,8.29s-.67,5.88-2,8.33c-1.33,2.45-3.15,4.37-5.46,5.76-2.3,1.38-4.83,2.08-7.58,2.08s-5.28-.69-7.58-2.08ZM1763.94,1020.41c1.35-.86,2.4-2.08,3.16-3.68.76-1.6,1.14-3.45,1.14-5.55s-.38-3.95-1.14-5.53c-.76-1.58-1.81-2.79-3.16-3.63-1.35-.84-2.91-1.26-4.67-1.26s-3.33.42-4.7,1.26c-1.36.84-2.42,2.05-3.18,3.63-.76,1.58-1.14,3.42-1.14,5.53s.38,3.96,1.14,5.55c.76,1.6,1.82,2.82,3.18,3.68,1.36.86,2.93,1.29,4.7,1.29s3.33-.43,4.67-1.29Z" fill="#fff"/>
    </g>
    <g>
      <path d="M1765.26,773.69v26.95c0,3.74-1.08,6.65-3.25,8.72-2.16,2.07-5.06,3.11-8.69,3.11s-6.63-1.06-8.88-3.19c-2.25-2.13-3.38-5.1-3.38-8.91h7.7c.04,1.65.43,2.93,1.18,3.85.75.92,1.84,1.38,3.27,1.38s2.46-.44,3.19-1.32c.73-.88,1.1-2.09,1.1-3.63v-26.95h7.75Z" fill="#fff"/>
      <path d="M1782.37,809.94c-3.01-1.69-5.39-4.02-7.15-7.01-1.76-2.99-2.64-6.37-2.64-10.15s.88-7.1,2.64-10.09c1.76-2.99,4.14-5.33,7.15-7.01,3.01-1.69,6.31-2.53,9.9-2.53s6.94.84,9.93,2.53c2.99,1.69,5.35,4.02,7.09,7.01,1.74,2.99,2.61,6.35,2.61,10.09s-.87,7.16-2.61,10.15c-1.74,2.99-4.12,5.33-7.12,7.01s-6.31,2.53-9.9,2.53-6.89-.84-9.9-2.53ZM1798.37,804.02c1.76-1.04,3.14-2.54,4.12-4.48.99-1.94,1.49-4.2,1.49-6.76s-.5-4.81-1.49-6.74c-.99-1.92-2.36-3.4-4.12-4.43-1.76-1.03-3.79-1.54-6.1-1.54s-4.35.51-6.13,1.54c-1.78,1.03-3.16,2.5-4.15,4.43-.99,1.93-1.49,4.17-1.49,6.74s.5,4.82,1.49,6.76c.99,1.94,2.37,3.44,4.15,4.48,1.78,1.04,3.82,1.57,6.13,1.57s4.34-.52,6.1-1.57Z" fill="#fff"/>
      <path d="M1823.87,811.09c-2.14-.92-3.84-2.24-5.09-3.96-1.25-1.72-1.89-3.76-1.93-6.1h8.25c.11,1.58.67,2.82,1.68,3.74,1.01.92,2.39,1.38,4.15,1.38s3.21-.43,4.24-1.29c1.03-.86,1.54-1.99,1.54-3.38,0-1.14-.35-2.07-1.04-2.8-.7-.73-1.57-1.31-2.61-1.73-1.05-.42-2.49-.89-4.32-1.4-2.49-.73-4.52-1.46-6.08-2.17s-2.9-1.8-4.01-3.25c-1.12-1.45-1.68-3.38-1.68-5.8,0-2.27.57-4.25,1.71-5.94,1.14-1.69,2.73-2.98,4.79-3.88,2.05-.9,4.4-1.35,7.04-1.35,3.96,0,7.18.96,9.65,2.89,2.47,1.92,3.84,4.61,4.1,8.06h-8.47c-.07-1.32-.63-2.41-1.68-3.27-1.04-.86-2.43-1.29-4.15-1.29-1.5,0-2.7.38-3.6,1.15-.9.77-1.35,1.89-1.35,3.36,0,1.03.34,1.88,1.02,2.56.68.68,1.52,1.23,2.53,1.65,1.01.42,2.43.91,4.26,1.46,2.49.73,4.53,1.47,6.11,2.2,1.58.73,2.93,1.83,4.07,3.3s1.71,3.39,1.71,5.77c0,2.05-.53,3.96-1.59,5.72-1.06,1.76-2.62,3.16-4.67,4.21-2.05,1.04-4.49,1.57-7.32,1.57-2.68,0-5.09-.46-7.23-1.38Z" fill="#fff"/>
    </g>
    <g>
      <path d="M1710.81,489.76v9.62h12.92v6.1h-12.92v10.17h14.58v6.27h-22.28v-38.44h22.28v6.27h-14.58Z" fill="#fff"/>
      <path d="M1765.43,521.94h-7.7l-17.43-26.35v26.35h-7.7v-38.44h7.7l17.43,26.4v-26.4h7.7v38.44Z" fill="#fff"/>
      <path d="M1780.83,483.55v23.76c0,2.6.68,4.59,2.04,5.97s3.26,2.06,5.72,2.06,4.42-.69,5.78-2.06c1.36-1.38,2.04-3.36,2.04-5.97v-23.76h7.75v23.71c0,3.26-.71,6.02-2.12,8.28-1.41,2.26-3.3,3.95-5.67,5.09-2.37,1.14-5,1.7-7.89,1.7s-5.46-.57-7.78-1.7c-2.33-1.14-4.17-2.83-5.53-5.09-1.36-2.25-2.04-5.01-2.04-8.28v-23.71h7.7Z" fill="#fff"/>
      <path d="M1838.52,495.1c-.88-1.61-2.09-2.84-3.63-3.69-1.54-.84-3.34-1.27-5.39-1.27-2.27,0-4.29.51-6.05,1.54-1.76,1.03-3.13,2.49-4.12,4.4-.99,1.91-1.49,4.11-1.49,6.6s.5,4.8,1.51,6.71c1.01,1.91,2.41,3.37,4.21,4.4,1.8,1.03,3.89,1.54,6.27,1.54,2.93,0,5.33-.78,7.21-2.34,1.87-1.56,3.1-3.73,3.68-6.52h-13.2v-5.88h20.79v6.71c-.51,2.68-1.61,5.15-3.3,7.42-1.69,2.27-3.86,4.1-6.52,5.47s-5.64,2.06-8.94,2.06c-3.7,0-7.05-.83-10.04-2.5-2.99-1.67-5.33-3.99-7.04-6.96-1.71-2.97-2.56-6.34-2.56-10.12s.85-7.16,2.56-10.15c1.71-2.99,4.05-5.32,7.04-6.98,2.99-1.67,6.32-2.5,9.98-2.5,4.33,0,8.08,1.05,11.28,3.16,3.19,2.11,5.39,5.07,6.6,8.88h-8.85Z" fill="#fff"/>
      <path d="M1861.84,483.55v23.76c0,2.6.68,4.59,2.04,5.97s3.26,2.06,5.72,2.06,4.42-.69,5.78-2.06c1.36-1.38,2.04-3.36,2.04-5.97v-23.76h7.75v23.71c0,3.26-.71,6.02-2.12,8.28-1.41,2.26-3.3,3.95-5.67,5.09-2.37,1.14-5,1.7-7.89,1.7s-5.46-.57-7.78-1.7c-2.33-1.14-4.17-2.83-5.53-5.09-1.36-2.25-2.04-5.01-2.04-8.28v-23.71h7.7Z" fill="#fff"/>
    </g>
    <g>
      <path d="M1629.02,72.39h-15.29l-2.53,7.31h-8.08l13.81-38.44h8.96l13.8,38.44h-8.14l-2.53-7.31ZM1626.93,66.23l-5.55-16.06-5.56,16.06h11.11Z" fill="#fff"/>
      <path d="M1672.19,63.26c1.39,1.76,2.09,3.78,2.09,6.05,0,2.05-.5,3.86-1.51,5.42-1.01,1.56-2.47,2.78-4.37,3.66-1.91.88-4.16,1.32-6.77,1.32h-16.55v-38.39h15.84c2.6,0,4.85.42,6.74,1.27,1.89.84,3.32,2.02,4.29,3.52.97,1.5,1.46,3.21,1.46,5.11,0,2.24-.6,4.11-1.79,5.61-1.19,1.5-2.78,2.57-4.76,3.19,2.16.4,3.94,1.48,5.33,3.25ZM1652.78,57.15h7.04c1.83,0,3.25-.41,4.23-1.24.99-.82,1.49-2.01,1.49-3.55s-.5-2.73-1.49-3.58c-.99-.84-2.4-1.26-4.23-1.26h-7.04v9.62ZM1664.9,72.11c1.05-.88,1.57-2.13,1.57-3.74s-.55-2.94-1.65-3.88-2.58-1.4-4.46-1.4h-7.59v10.34h7.75c1.87,0,3.33-.44,4.37-1.32Z" fill="#fff"/>
      <path d="M1688.25,41.31v23.76c0,2.6.68,4.59,2.04,5.97s3.26,2.06,5.72,2.06,4.42-.69,5.78-2.06c1.36-1.38,2.04-3.36,2.04-5.97v-23.76h7.75v23.71c0,3.26-.71,6.02-2.12,8.28-1.41,2.26-3.3,3.95-5.67,5.09-2.37,1.14-5,1.7-7.89,1.7s-5.46-.57-7.78-1.7c-2.33-1.14-4.17-2.83-5.53-5.09-1.36-2.25-2.04-5.01-2.04-8.28v-23.71h7.7Z" fill="#fff"/>
      <path d="M1741.6,41.31v26.95c0,3.74-1.08,6.65-3.25,8.72-2.16,2.07-5.06,3.11-8.69,3.11s-6.63-1.06-8.88-3.19c-2.25-2.13-3.38-5.1-3.38-8.91h7.7c.04,1.65.43,2.93,1.18,3.85.75.92,1.84,1.38,3.27,1.38s2.46-.44,3.19-1.32c.73-.88,1.1-2.09,1.1-3.63v-26.95h7.75Z" fill="#fff"/>
      <path d="M1774.32,72.39h-15.29l-2.53,7.31h-8.08l13.81-38.44h8.96l13.8,38.44h-8.14l-2.53-7.31ZM1772.23,66.23l-5.55-16.06-5.56,16.06h11.11Z" fill="#fff"/>
      <path d="M1663.94,107.31v38.39h-7.7v-16.33h-16.45v16.33h-7.7v-38.39h7.7v15.79h16.45v-15.79h7.7Z" fill="#fff"/>
      <path d="M1695.29,138.39h-15.29l-2.53,7.31h-8.08l13.81-38.44h8.96l13.8,38.44h-8.14l-2.53-7.31ZM1693.2,132.23l-5.55-16.06-5.56,16.06h11.11Z" fill="#fff"/>
      <path d="M1719.05,139.6h12.65v6.1h-20.35v-38.39h7.7v32.29Z" fill="#fff"/>
      <path d="M1744.51,139.6h12.65v6.1h-20.35v-38.39h7.7v32.29Z" fill="#fff"/>
    </g>
    <g>
      <path d="M1287.72,696.42c-1.53-.65-2.74-1.59-3.62-2.82-.89-1.23-1.34-2.68-1.37-4.35h5.88c.08,1.12.48,2.01,1.2,2.66.72.65,1.7.98,2.96.98s2.29-.31,3.02-.92c.73-.61,1.1-1.42,1.1-2.41,0-.81-.25-1.48-.74-2-.5-.52-1.12-.93-1.86-1.23-.74-.3-1.77-.63-3.08-1-1.78-.52-3.22-1.04-4.33-1.55-1.11-.51-2.06-1.28-2.86-2.31-.8-1.03-1.2-2.41-1.2-4.13,0-1.62.41-3.03,1.21-4.23.81-1.2,1.95-2.12,3.41-2.76,1.46-.64,3.13-.96,5.01-.96,2.82,0,5.11.69,6.88,2.06,1.76,1.37,2.74,3.29,2.92,5.74h-6.03c-.05-.94-.45-1.72-1.2-2.33-.74-.61-1.73-.92-2.96-.92-1.07,0-1.93.27-2.57.82-.64.55-.96,1.35-.96,2.39,0,.73.24,1.34.72,1.82s1.08.88,1.8,1.17c.72.3,1.73.65,3.04,1.04,1.78.52,3.23,1.05,4.35,1.57,1.12.52,2.09,1.31,2.9,2.35s1.21,2.42,1.21,4.11c0,1.46-.38,2.82-1.14,4.08s-1.87,2.25-3.33,3c-1.46.75-3.2,1.12-5.21,1.12-1.91,0-3.62-.33-5.15-.98Z" fill="#fff"/>
      <path d="M1326.06,669.78v4.43h-7.29v22.92h-5.49v-22.92h-7.29v-4.43h20.06Z" fill="#fff"/>
      <path d="M1346.98,691.92h-10.89l-1.8,5.21h-5.76l9.83-27.39h6.39l9.83,27.39h-5.8l-1.8-5.21ZM1345.5,687.53l-3.96-11.44-3.96,11.44h7.92Z" fill="#fff"/>
      <path d="M1363.91,669.78v27.35h-5.49v-27.35h5.49Z" fill="#fff"/>
      <path d="M1383.58,697.13l-6.03-10.66h-2.59v10.66h-5.49v-27.35h10.27c2.12,0,3.92.37,5.41,1.12,1.49.74,2.61,1.75,3.35,3.02.75,1.27,1.12,2.68,1.12,4.25,0,1.8-.52,3.43-1.57,4.88-1.04,1.45-2.6,2.45-4.66,3l6.54,11.09h-6.35ZM1374.96,682.36h4.58c1.49,0,2.6-.36,3.33-1.08s1.1-1.72,1.1-3-.37-2.23-1.1-2.92c-.73-.69-1.84-1.04-3.33-1.04h-4.58v8.03Z" fill="#fff"/>
      <path d="M1399.04,696.42c-1.53-.65-2.74-1.59-3.62-2.82-.89-1.23-1.34-2.68-1.37-4.35h5.88c.08,1.12.48,2.01,1.2,2.66.72.65,1.7.98,2.96.98s2.29-.31,3.02-.92c.73-.61,1.1-1.42,1.1-2.41,0-.81-.25-1.48-.74-2-.5-.52-1.12-.93-1.86-1.23-.74-.3-1.77-.63-3.08-1-1.78-.52-3.22-1.04-4.33-1.55-1.11-.51-2.06-1.28-2.86-2.31-.8-1.03-1.2-2.41-1.2-4.13,0-1.62.41-3.03,1.21-4.23.81-1.2,1.95-2.12,3.41-2.76,1.46-.64,3.13-.96,5.01-.96,2.82,0,5.11.69,6.88,2.06,1.76,1.37,2.74,3.29,2.92,5.74h-6.03c-.05-.94-.45-1.72-1.2-2.33-.74-.61-1.73-.92-2.96-.92-1.07,0-1.93.27-2.57.82-.64.55-.96,1.35-.96,2.39,0,.73.24,1.34.72,1.82s1.08.88,1.8,1.17c.72.3,1.73.65,3.04,1.04,1.78.52,3.23,1.05,4.35,1.57,1.12.52,2.09,1.31,2.9,2.35s1.21,2.42,1.21,4.11c0,1.46-.38,2.82-1.14,4.08s-1.87,2.25-3.33,3c-1.46.75-3.2,1.12-5.21,1.12-1.91,0-3.62-.33-5.15-.98Z" fill="#fff"/>
    </g>
    <g>
      <path d="M1316.96,1061.05c-.85-.36-1.51-.88-2.01-1.56-.49-.68-.75-1.48-.76-2.41h3.25c.04.62.26,1.11.66,1.47.4.36.94.54,1.64.54s1.26-.17,1.67-.51c.4-.34.61-.78.61-1.33,0-.45-.14-.82-.41-1.11-.27-.29-.62-.52-1.03-.68s-.98-.35-1.7-.55c-.98-.29-1.78-.58-2.4-.86-.61-.28-1.14-.71-1.58-1.28-.44-.57-.66-1.33-.66-2.29,0-.9.22-1.68.67-2.34s1.08-1.17,1.89-1.53c.81-.35,1.74-.53,2.78-.53,1.56,0,2.83.38,3.81,1.14.98.76,1.51,1.82,1.62,3.18h-3.34c-.03-.52-.25-.95-.66-1.29-.41-.34-.96-.51-1.64-.51-.59,0-1.07.15-1.42.46s-.53.74-.53,1.32c0,.41.13.74.4,1.01s.6.48,1,.65c.4.17.96.36,1.68.58.98.29,1.79.58,2.41.87.62.29,1.16.72,1.6,1.3.45.58.67,1.34.67,2.28,0,.81-.21,1.56-.63,2.26-.42.69-1.03,1.25-1.84,1.66-.81.41-1.77.62-2.88.62-1.06,0-2.01-.18-2.85-.54Z" fill="#fff"/>
      <path d="M1338.18,1046.31v2.45h-4.03v12.69h-3.04v-12.69h-4.03v-2.45h11.1Z" fill="#fff"/>
      <path d="M1349.76,1058.56h-6.03l-1,2.88h-3.19l5.44-15.16h3.54l5.44,15.16h-3.21l-1-2.88ZM1348.93,1056.13l-2.19-6.33-2.19,6.33h4.38Z" fill="#fff"/>
      <path d="M1359.12,1046.31v15.14h-3.04v-15.14h3.04Z" fill="#fff"/>
      <path d="M1370.01,1061.45l-3.34-5.9h-1.43v5.9h-3.04v-15.14h5.68c1.17,0,2.17.21,2.99.62s1.44.97,1.85,1.67.62,1.49.62,2.35c0,1-.29,1.9-.87,2.7-.58.8-1.44,1.36-2.58,1.66l3.62,6.14h-3.51ZM1365.24,1053.27h2.54c.82,0,1.44-.2,1.84-.6.4-.4.61-.95.61-1.66s-.2-1.23-.61-1.62-1.02-.58-1.84-.58h-2.54v4.45Z" fill="#fff"/>
      <path d="M1378.57,1061.05c-.85-.36-1.51-.88-2.01-1.56-.49-.68-.75-1.48-.76-2.41h3.25c.04.62.26,1.11.66,1.47.4.36.94.54,1.64.54s1.26-.17,1.67-.51c.4-.34.61-.78.61-1.33,0-.45-.14-.82-.41-1.11-.27-.29-.62-.52-1.03-.68s-.98-.35-1.7-.55c-.98-.29-1.78-.58-2.4-.86-.61-.28-1.14-.71-1.58-1.28-.44-.57-.66-1.33-.66-2.29,0-.9.22-1.68.67-2.34s1.08-1.17,1.89-1.53c.81-.35,1.74-.53,2.78-.53,1.56,0,2.83.38,3.81,1.14.98.76,1.51,1.82,1.62,3.18h-3.34c-.03-.52-.25-.95-.66-1.29-.41-.34-.96-.51-1.64-.51-.59,0-1.07.15-1.42.46s-.53.74-.53,1.32c0,.41.13.74.4,1.01s.6.48,1,.65c.4.17.96.36,1.68.58.98.29,1.79.58,2.41.87.62.29,1.16.72,1.6,1.3.45.58.67,1.34.67,2.28,0,.81-.21,1.56-.63,2.26-.42.69-1.03,1.25-1.84,1.66-.81.41-1.77.62-2.88.62-1.06,0-2.01-.18-2.85-.54Z" fill="#fff"/>
    </g>
    <g>
      <path d="M1464.12,1046.51l-3.7-6.53h-1.58v6.53h-3.36v-16.75h6.29c1.3,0,2.4.23,3.31.68s1.6,1.07,2.05,1.85.68,1.64.68,2.6c0,1.1-.32,2.1-.96,2.99-.64.89-1.59,1.5-2.86,1.84l4.01,6.79h-3.89ZM1458.84,1037.46h2.81c.91,0,1.59-.22,2.04-.66.45-.44.67-1.05.67-1.84s-.22-1.36-.67-1.79c-.45-.42-1.13-.64-2.04-.64h-2.81v4.92Z" fill="#fff"/>
      <path d="M1474.32,1032.47v4.2h5.64v2.66h-5.64v4.44h6.36v2.74h-9.72v-16.78h9.72v2.74h-6.36Z" fill="#fff"/>
      <path d="M1486.45,1046.08c-.94-.4-1.68-.98-2.22-1.73-.54-.75-.82-1.64-.84-2.66h3.6c.05.69.29,1.23.73,1.63.44.4,1.04.6,1.81.6s1.4-.19,1.85-.56.67-.87.67-1.48c0-.5-.15-.9-.46-1.22-.3-.32-.68-.57-1.14-.76-.46-.18-1.08-.39-1.88-.61-1.09-.32-1.97-.64-2.65-.95-.68-.31-1.26-.78-1.75-1.42s-.73-1.48-.73-2.53c0-.99.25-1.86.74-2.59.5-.74,1.19-1.3,2.09-1.69.9-.39,1.92-.59,3.07-.59,1.73,0,3.13.42,4.21,1.26,1.08.84,1.68,2.01,1.79,3.52h-3.7c-.03-.58-.28-1.05-.73-1.43s-1.06-.56-1.81-.56c-.66,0-1.18.17-1.57.5-.39.34-.59.82-.59,1.46,0,.45.15.82.44,1.12s.66.54,1.1.72c.44.18,1.06.4,1.86.64,1.09.32,1.98.64,2.66.96.69.32,1.28.8,1.78,1.44.5.64.74,1.48.74,2.52,0,.9-.23,1.73-.7,2.5-.46.77-1.14,1.38-2.04,1.84s-1.96.68-3.19.68-2.22-.2-3.16-.6Z" fill="#fff"/>
      <path d="M1509.94,1029.76v2.71h-4.46v14.04h-3.36v-14.04h-4.46v-2.71h12.29Z" fill="#fff"/>
      <path d="M1455.11,1075.31l-3.7-6.53h-1.58v6.53h-3.36v-16.75h6.29c1.3,0,2.4.23,3.31.68s1.6,1.07,2.05,1.85.68,1.64.68,2.6c0,1.1-.32,2.1-.96,2.99-.64.89-1.59,1.5-2.86,1.84l4.01,6.79h-3.89ZM1449.83,1066.26h2.81c.91,0,1.59-.22,2.04-.66.45-.44.67-1.05.67-1.84s-.22-1.36-.67-1.79c-.45-.42-1.13-.64-2.04-.64h-2.81v4.92Z" fill="#fff"/>
      <path d="M1465.4,1074.38c-1.31-.74-2.35-1.76-3.12-3.06-.77-1.3-1.15-2.78-1.15-4.43s.38-3.1,1.15-4.4c.77-1.3,1.81-2.32,3.12-3.06,1.31-.74,2.75-1.1,4.32-1.1s3.03.37,4.33,1.1c1.3.74,2.34,1.76,3.1,3.06.76,1.3,1.14,2.77,1.14,4.4s-.38,3.12-1.14,4.43c-.76,1.3-1.8,2.32-3.11,3.06-1.31.74-2.75,1.1-4.32,1.1s-3.01-.37-4.32-1.1ZM1472.39,1071.79c.77-.46,1.37-1.11,1.8-1.96.43-.85.65-1.83.65-2.95s-.22-2.1-.65-2.94c-.43-.84-1.03-1.48-1.8-1.93-.77-.45-1.66-.67-2.66-.67s-1.9.22-2.68.67-1.38,1.09-1.81,1.93c-.43.84-.65,1.82-.65,2.94s.22,2.1.65,2.95c.43.85,1.04,1.5,1.81,1.96s1.67.68,2.68.68,1.9-.23,2.66-.68Z" fill="#fff"/>
      <path d="M1484.34,1074.38c-1.31-.74-2.35-1.76-3.12-3.06-.77-1.3-1.15-2.78-1.15-4.43s.38-3.1,1.15-4.4c.77-1.3,1.81-2.32,3.12-3.06,1.31-.74,2.75-1.1,4.32-1.1s3.03.37,4.33,1.1c1.3.74,2.34,1.76,3.1,3.06.76,1.3,1.14,2.77,1.14,4.4s-.38,3.12-1.14,4.43c-.76,1.3-1.8,2.32-3.11,3.06-1.31.74-2.75,1.1-4.32,1.1s-3.01-.37-4.32-1.1ZM1491.32,1071.79c.77-.46,1.37-1.11,1.8-1.96.43-.85.65-1.83.65-2.95s-.22-2.1-.65-2.94c-.43-.84-1.03-1.48-1.8-1.93-.77-.45-1.66-.67-2.66-.67s-1.9.22-2.68.67-1.38,1.09-1.81,1.93c-.43.84-.65,1.82-.65,2.94s.22,2.1.65,2.95c.43.85,1.04,1.5,1.81,1.96s1.67.68,2.68.68,1.9-.23,2.66-.68Z" fill="#fff"/>
      <path d="M1518.08,1058.56v16.75h-3.36v-10.9l-4.49,10.9h-2.54l-4.51-10.9v10.9h-3.36v-16.75h3.82l5.33,12.46,5.33-12.46h3.79Z" fill="#fff"/>
    </g>
    <g>
      <path d="M1172.11,680.34c-.99-.42-1.77-1.03-2.34-1.82-.58-.79-.87-1.73-.89-2.81h3.8c.05.73.31,1.3.77,1.72s1.1.63,1.91.63,1.48-.2,1.95-.6c.47-.4.71-.92.71-1.56,0-.52-.16-.95-.48-1.29-.32-.34-.72-.6-1.2-.8s-1.14-.41-1.99-.65c-1.15-.34-2.08-.67-2.8-1s-1.33-.83-1.85-1.49c-.52-.67-.77-1.56-.77-2.67,0-1.05.26-1.96.79-2.74.52-.78,1.26-1.37,2.2-1.79s2.03-.62,3.24-.62c1.82,0,3.31.44,4.45,1.33s1.77,2.12,1.89,3.71h-3.9c-.03-.61-.29-1.11-.77-1.51-.48-.4-1.12-.59-1.91-.59-.69,0-1.25.18-1.66.53-.41.36-.62.87-.62,1.55,0,.47.16.87.47,1.18s.7.57,1.17.76,1.12.42,1.96.67c1.15.34,2.08.68,2.81,1.01.73.34,1.35.84,1.87,1.52.52.67.79,1.56.79,2.66,0,.95-.24,1.82-.73,2.63-.49.81-1.21,1.46-2.15,1.94-.95.48-2.07.72-3.37.72-1.23,0-2.34-.21-3.33-.63Z" fill="#fff"/>
      <path d="M1188.41,663.12v17.68h-3.55v-17.68h3.55Z" fill="#fff"/>
      <path d="M1204.04,663.12v2.86h-4.71v14.82h-3.55v-14.82h-4.71v-2.86h12.97Z" fill="#fff"/>
      <path d="M1218.75,663.12v2.86h-4.71v14.82h-3.55v-14.82h-4.71v-2.86h12.97Z" fill="#fff"/>
      <path d="M1224.98,663.12v17.68h-3.55v-17.68h3.55Z" fill="#fff"/>
      <path d="M1243.7,680.79h-3.55l-8.03-12.13v12.13h-3.55v-17.7h3.55l8.03,12.16v-12.16h3.55v17.7Z" fill="#fff"/>
      <path d="M1259.61,668.43c-.41-.74-.96-1.31-1.67-1.7-.71-.39-1.54-.58-2.48-.58-1.05,0-1.98.24-2.79.71s-1.44,1.15-1.9,2.03-.68,1.89-.68,3.04.23,2.21.7,3.09c.46.88,1.11,1.55,1.94,2.03.83.47,1.79.71,2.89.71,1.35,0,2.46-.36,3.32-1.08.86-.72,1.43-1.72,1.7-3h-6.08v-2.71h9.57v3.09c-.24,1.23-.74,2.37-1.52,3.42-.78,1.05-1.78,1.89-3,2.52-1.22.63-2.6.95-4.12.95-1.71,0-3.25-.38-4.62-1.15-1.38-.77-2.46-1.84-3.24-3.2-.79-1.37-1.18-2.92-1.18-4.66s.39-3.3,1.18-4.67c.79-1.38,1.87-2.45,3.24-3.22,1.38-.77,2.91-1.15,4.6-1.15,1.99,0,3.72.49,5.19,1.46,1.47.97,2.48,2.33,3.04,4.09h-4.08Z" fill="#fff"/>
      <path d="M1195.74,707.82h-7.04l-1.17,3.37h-3.72l6.36-17.7h4.13l6.36,17.7h-3.75l-1.17-3.37ZM1194.78,704.98l-2.56-7.4-2.56,7.4h5.12Z" fill="#fff"/>
      <path d="M1212.26,711.19l-3.9-6.89h-1.67v6.89h-3.55v-17.68h6.64c1.37,0,2.53.24,3.5.72s1.68,1.13,2.17,1.95c.48.82.72,1.73.72,2.75,0,1.17-.34,2.22-1.01,3.15-.67.94-1.68,1.58-3.01,1.94l4.23,7.17h-4.1ZM1206.68,701.64h2.96c.96,0,1.68-.23,2.15-.7.47-.46.71-1.11.71-1.94s-.24-1.44-.71-1.89c-.47-.45-1.19-.67-2.15-.67h-2.96v5.19Z" fill="#fff"/>
      <path d="M1223.02,696.37v4.43h5.95v2.81h-5.95v4.69h6.71v2.89h-10.26v-17.7h10.26v2.89h-6.71Z" fill="#fff"/>
      <path d="M1243.89,707.82h-7.04l-1.17,3.37h-3.72l6.36-17.7h4.13l6.36,17.7h-3.75l-1.17-3.37ZM1242.93,704.98l-2.56-7.4-2.56,7.4h5.12Z" fill="#fff"/>
    </g>
    <g>
      <path d="M1274.26,356.97c-2.15-.92-3.86-2.25-5.11-3.98-1.25-1.73-1.9-3.77-1.93-6.13h8.28c.11,1.58.67,2.84,1.69,3.76,1.01.92,2.4,1.38,4.17,1.38s3.22-.43,4.25-1.3c1.03-.86,1.55-2,1.55-3.4,0-1.14-.35-2.08-1.05-2.82-.7-.74-1.57-1.32-2.62-1.74-1.05-.42-2.5-.89-4.34-1.41-2.5-.74-4.54-1.46-6.1-2.18-1.57-.72-2.91-1.8-4.03-3.26-1.12-1.45-1.68-3.4-1.68-5.83,0-2.28.57-4.27,1.71-5.97,1.14-1.69,2.74-2.99,4.81-3.89,2.06-.9,4.42-1.35,7.07-1.35,3.98,0,7.21.97,9.69,2.9,2.49,1.93,3.86,4.63,4.11,8.09h-8.51c-.07-1.33-.63-2.42-1.68-3.29-1.05-.86-2.44-1.3-4.17-1.3-1.51,0-2.72.39-3.62,1.16s-1.35,1.9-1.35,3.37c0,1.03.34,1.89,1.02,2.57.68.68,1.53,1.23,2.54,1.66,1.01.42,2.44.91,4.28,1.46,2.5.74,4.55,1.47,6.13,2.21,1.58.74,2.95,1.84,4.09,3.31,1.14,1.47,1.71,3.41,1.71,5.8,0,2.06-.53,3.98-1.6,5.74-1.07,1.77-2.63,3.18-4.69,4.23-2.06,1.05-4.51,1.57-7.35,1.57-2.69,0-5.11-.46-7.26-1.38Z" fill="#fff"/>
      <path d="M1309.8,319.41v38.55h-7.73v-38.55h7.73Z" fill="#fff"/>
      <path d="M1343.88,319.41v6.24h-10.27v32.31h-7.73v-32.31h-10.27v-6.24h28.28Z" fill="#fff"/>
      <path d="M1375.97,319.41v6.24h-10.27v32.31h-7.73v-32.31h-10.27v-6.24h28.28Z" fill="#fff"/>
      <path d="M1389.56,319.41v38.55h-7.73v-38.55h7.73Z" fill="#fff"/>
      <path d="M1430.38,357.97h-7.73l-17.51-26.46v26.46h-7.73v-38.61h7.73l17.51,26.51v-26.51h7.73v38.61Z" fill="#fff"/>
      <path d="M1465.06,331.01c-.88-1.62-2.1-2.85-3.65-3.7-1.55-.85-3.35-1.27-5.41-1.27-2.28,0-4.31.52-6.08,1.55-1.77,1.03-3.15,2.5-4.14,4.42-.99,1.92-1.49,4.12-1.49,6.63s.51,4.82,1.52,6.74c1.01,1.92,2.42,3.39,4.22,4.42,1.8,1.03,3.9,1.55,6.3,1.55,2.95,0,5.36-.78,7.24-2.35,1.88-1.56,3.11-3.75,3.7-6.54h-13.26v-5.91h20.88v6.74c-.52,2.69-1.62,5.17-3.31,7.46-1.69,2.28-3.88,4.12-6.55,5.5s-5.66,2.07-8.98,2.07c-3.72,0-7.08-.84-10.08-2.51-3-1.68-5.36-4-7.07-6.99-1.71-2.98-2.57-6.37-2.57-10.16s.86-7.19,2.57-10.19c1.71-3,4.07-5.34,7.07-7.01,3-1.68,6.34-2.51,10.03-2.51,4.34,0,8.12,1.06,11.32,3.18,3.2,2.12,5.41,5.09,6.63,8.92h-8.89Z" fill="#fff"/>
      <path d="M1325.79,416.9h-15.35l-2.54,7.35h-8.12l13.86-38.61h9l13.86,38.61h-8.17l-2.54-7.35ZM1323.69,410.72l-5.58-16.13-5.58,16.13h11.16Z" fill="#fff"/>
      <path d="M1361.8,424.25l-8.51-15.02h-3.65v15.02h-7.73v-38.55h14.47c2.98,0,5.52.52,7.62,1.57,2.1,1.05,3.67,2.47,4.72,4.25,1.05,1.79,1.57,3.78,1.57,5.99,0,2.54-.74,4.83-2.21,6.88-1.47,2.04-3.67,3.45-6.57,4.23l9.22,15.63h-8.95ZM1349.65,403.42h6.46c2.1,0,3.66-.51,4.7-1.52,1.03-1.01,1.55-2.42,1.55-4.23s-.52-3.14-1.55-4.12c-1.03-.98-2.6-1.46-4.7-1.46h-6.46v11.32Z" fill="#fff"/>
      <path d="M1385.28,391.94v9.67h12.98v6.13h-12.98v10.22h14.64v6.3h-22.37v-38.61h22.37v6.3h-14.64Z" fill="#fff"/>
      <path d="M1430.79,416.9h-15.35l-2.54,7.35h-8.12l13.86-38.61h9l13.86,38.61h-8.17l-2.54-7.35ZM1428.69,410.72l-5.58-16.13-5.58,16.13h11.16Z" fill="#fff"/>
    </g>
    <g>
      <path d="M489.81,595.75c-1.47-.63-2.63-1.53-3.49-2.71-.85-1.18-1.29-2.57-1.32-4.18h5.65c.08,1.08.46,1.93,1.15,2.56.69.63,1.64.94,2.84.94s2.2-.29,2.9-.89c.7-.59,1.05-1.36,1.05-2.32,0-.78-.24-1.42-.72-1.92-.48-.5-1.07-.9-1.79-1.19-.72-.29-1.7-.61-2.96-.96-1.71-.5-3.1-1-4.16-1.49-1.07-.49-1.98-1.23-2.75-2.22-.77-.99-1.15-2.32-1.15-3.98,0-1.56.39-2.91,1.17-4.07.78-1.15,1.87-2.04,3.28-2.66,1.41-.62,3.01-.92,4.82-.92,2.71,0,4.92.66,6.61,1.98,1.7,1.32,2.63,3.16,2.81,5.52h-5.8c-.05-.9-.43-1.65-1.15-2.24-.72-.59-1.66-.89-2.85-.89-1.03,0-1.85.26-2.47.79-.62.53-.92,1.29-.92,2.3,0,.7.23,1.29.7,1.75.46.46,1.04.84,1.73,1.13.69.29,1.66.62,2.92,1,1.71.5,3.1,1,4.18,1.51,1.08.5,2.01,1.26,2.79,2.26.78,1,1.17,2.32,1.17,3.96,0,1.41-.36,2.71-1.09,3.92-.73,1.21-1.8,2.17-3.2,2.88-1.41.72-3.08,1.07-5.01,1.07-1.83,0-3.49-.31-4.96-.94Z" fill="#fff"/>
      <path d="M514.05,570.12v26.3h-5.28v-26.3h5.28Z" fill="#fff"/>
      <path d="M537.3,570.12v4.26h-7.01v22.04h-5.28v-22.04h-7.01v-4.26h19.29Z" fill="#fff"/>
      <path d="M559.2,570.12v4.26h-7.01v22.04h-5.28v-22.04h-7.01v-4.26h19.29Z" fill="#fff"/>
      <path d="M568.46,570.12v26.3h-5.28v-26.3h5.28Z" fill="#fff"/>
      <path d="M596.31,596.42h-5.28l-11.94-18.05v18.05h-5.28v-26.34h5.28l11.94,18.09v-18.09h5.28v26.34Z" fill="#fff"/>
      <path d="M619.97,578.04c-.6-1.1-1.43-1.95-2.49-2.52-1.06-.58-2.29-.87-3.69-.87-1.56,0-2.94.35-4.15,1.06-1.21.7-2.15,1.71-2.83,3.01-.68,1.31-1.02,2.81-1.02,4.52s.34,3.29,1.04,4.6c.69,1.31,1.65,2.31,2.88,3.01,1.23.7,2.66,1.06,4.3,1.06,2.01,0,3.65-.53,4.94-1.6,1.28-1.07,2.12-2.56,2.52-4.46h-9.04v-4.03h14.24v4.6c-.35,1.83-1.11,3.53-2.26,5.09-1.16,1.56-2.64,2.81-4.47,3.75-1.82.94-3.86,1.41-6.12,1.41-2.54,0-4.83-.57-6.88-1.71-2.05-1.14-3.65-2.73-4.82-4.77-1.17-2.04-1.75-4.35-1.75-6.93s.58-4.9,1.75-6.95c1.17-2.05,2.78-3.64,4.82-4.79s4.33-1.71,6.84-1.71c2.96,0,5.54.72,7.72,2.17,2.19,1.45,3.69,3.47,4.52,6.08h-6.07Z" fill="#fff"/>
      <path d="M524.96,636.63h-10.48l-1.73,5.01h-5.54l9.46-26.34h6.14l9.46,26.34h-5.58l-1.73-5.01ZM523.53,632.41l-3.81-11-3.81,11h7.61Z" fill="#fff"/>
      <path d="M549.53,641.64l-5.8-10.25h-2.49v10.25h-5.28v-26.3h9.87c2.03,0,3.77.36,5.2,1.07,1.43.72,2.51,1.68,3.22,2.9.72,1.22,1.07,2.58,1.07,4.09,0,1.73-.5,3.3-1.51,4.69-1.01,1.39-2.5,2.35-4.48,2.88l6.29,10.66h-6.1ZM541.24,627.44h4.41c1.43,0,2.5-.34,3.2-1.04.7-.69,1.06-1.65,1.06-2.88s-.35-2.14-1.06-2.81c-.7-.67-1.77-1-3.2-1h-4.41v7.72Z" fill="#fff"/>
      <path d="M565.54,619.6v6.59h8.85v4.18h-8.85v6.97h9.99v4.3h-15.26v-26.34h15.26v4.3h-9.99Z" fill="#fff"/>
      <path d="M596.59,636.63h-10.48l-1.73,5.01h-5.54l9.46-26.34h6.14l9.46,26.34h-5.58l-1.73-5.01ZM595.16,632.41l-3.81-11-3.81,11h7.61Z" fill="#fff"/>
    </g>
    <g>
      <path d="M64.08,567.58v8.57h11.51v5.43h-11.51v9.06h12.97v5.58h-19.83v-34.22h19.83v5.58h-12.97Z" fill="#fff"/>
      <path d="M102.76,596.22l-12.44-15.23v15.23h-6.85v-34.17h6.85v15.32l12.44-15.32h8.27l-14.1,16.94,14.49,17.23h-8.67Z" fill="#fff"/>
      <path d="M123.17,594.31c-2.68-1.5-4.8-3.58-6.36-6.24-1.57-2.66-2.35-5.67-2.35-9.03s.78-6.32,2.35-8.98c1.57-2.66,3.69-4.74,6.36-6.24,2.68-1.5,5.61-2.25,8.81-2.25s6.18.75,8.84,2.25c2.66,1.5,4.76,3.58,6.32,6.24,1.55,2.66,2.33,5.66,2.33,8.98s-.78,6.37-2.33,9.03c-1.55,2.66-3.66,4.74-6.34,6.24s-5.61,2.25-8.81,2.25-6.14-.75-8.81-2.25ZM137.42,589.05c1.57-.93,2.79-2.26,3.67-3.99.88-1.73,1.32-3.74,1.32-6.02s-.44-4.28-1.32-6c-.88-1.71-2.1-3.03-3.67-3.94s-3.38-1.37-5.43-1.37-3.88.46-5.46,1.37c-1.58.91-2.81,2.23-3.7,3.94-.88,1.71-1.32,3.71-1.32,6s.44,4.29,1.32,6.02c.88,1.73,2.11,3.06,3.7,3.99,1.58.93,3.4,1.4,5.46,1.4s3.87-.46,5.43-1.4Z" fill="#fff"/>
      <path d="M50.13,620.8v5.53h-14.25v8.76h10.92v5.43h-10.92v14.44h-6.85v-34.17h21.1Z" fill="#fff"/>
      <path d="M62.22,653.06c-2.68-1.5-4.8-3.58-6.36-6.24-1.57-2.66-2.35-5.67-2.35-9.03s.78-6.32,2.35-8.98c1.57-2.66,3.69-4.74,6.36-6.24,2.68-1.5,5.61-2.25,8.81-2.25s6.18.75,8.84,2.25c2.66,1.5,4.76,3.58,6.32,6.24,1.55,2.66,2.33,5.66,2.33,8.98s-.78,6.37-2.33,9.03c-1.55,2.66-3.66,4.74-6.34,6.24s-5.61,2.25-8.81,2.25-6.14-.75-8.81-2.25ZM76.47,647.8c1.57-.93,2.79-2.26,3.67-3.99.88-1.73,1.32-3.74,1.32-6.02s-.44-4.28-1.32-6c-.88-1.71-2.1-3.03-3.67-3.94s-3.38-1.37-5.43-1.37-3.88.46-5.46,1.37c-1.58.91-2.81,2.23-3.7,3.94-.88,1.71-1.32,3.71-1.32,6s.44,4.29,1.32,6.02c.88,1.73,2.11,3.06,3.7,3.99,1.58.93,3.4,1.4,5.46,1.4s3.87-.46,5.43-1.4Z" fill="#fff"/>
      <path d="M120.97,620.8l-11.55,22.28v11.9h-6.85v-11.9l-11.6-22.28h7.74l7.34,15.62,7.29-15.62h7.64Z" fill="#fff"/>
      <path d="M131.98,626.33v8.57h11.51v5.43h-11.51v9.06h12.97v5.58h-19.83v-34.22h19.83v5.58h-12.97Z" fill="#fff"/>
      <path d="M169,654.97l-7.54-13.32h-3.23v13.32h-6.85v-34.17h12.83c2.64,0,4.9.46,6.76,1.39,1.86.93,3.26,2.19,4.19,3.77.93,1.58,1.4,3.35,1.4,5.31,0,2.25-.65,4.28-1.96,6.1-1.31,1.81-3.25,3.06-5.83,3.75l8.18,13.86h-7.93ZM158.23,636.51h5.73c1.86,0,3.25-.45,4.16-1.35.91-.9,1.37-2.15,1.37-3.75s-.46-2.78-1.37-3.65c-.91-.87-2.3-1.3-4.16-1.3h-5.73v10.04Z" fill="#fff"/>
    </g>
    <g>
      <path d="M358.34,974.85c-.85-.36-1.51-.88-2.01-1.56-.49-.68-.75-1.48-.76-2.41h3.25c.04.62.26,1.11.66,1.47.4.36.94.54,1.64.54s1.26-.17,1.67-.51c.4-.34.61-.78.61-1.33,0-.45-.14-.82-.41-1.11-.27-.29-.62-.52-1.03-.68s-.98-.35-1.7-.55c-.98-.29-1.78-.58-2.4-.86-.61-.28-1.14-.71-1.58-1.28-.44-.57-.66-1.33-.66-2.29,0-.9.22-1.68.67-2.34s1.08-1.17,1.89-1.53c.81-.35,1.74-.53,2.78-.53,1.56,0,2.83.38,3.81,1.14.98.76,1.51,1.82,1.62,3.18h-3.34c-.03-.52-.25-.95-.66-1.29-.41-.34-.96-.51-1.64-.51-.59,0-1.07.15-1.42.46s-.53.74-.53,1.32c0,.41.13.74.4,1.01s.6.48,1,.65c.4.17.96.36,1.68.58.98.29,1.79.58,2.41.87.62.29,1.16.72,1.6,1.3.45.58.67,1.34.67,2.28,0,.81-.21,1.56-.63,2.26-.42.69-1.03,1.25-1.84,1.66-.81.41-1.77.62-2.88.62-1.06,0-2.01-.18-2.85-.54Z" fill="#fff"/>
      <path d="M379.56,960.1v2.45h-4.03v12.69h-3.04v-12.69h-4.03v-2.45h11.1Z" fill="#fff"/>
      <path d="M391.14,972.35h-6.03l-1,2.88h-3.19l5.44-15.16h3.54l5.44,15.16h-3.21l-1-2.88ZM390.32,969.93l-2.19-6.33-2.19,6.33h4.38Z" fill="#fff"/>
      <path d="M400.51,960.1v15.14h-3.04v-15.14h3.04Z" fill="#fff"/>
      <path d="M411.4,975.24l-3.34-5.9h-1.43v5.9h-3.04v-15.14h5.68c1.17,0,2.17.21,2.99.62s1.44.97,1.85,1.67.62,1.49.62,2.35c0,1-.29,1.9-.87,2.7-.58.8-1.44,1.36-2.58,1.66l3.62,6.14h-3.51ZM406.63,967.06h2.54c.82,0,1.44-.2,1.84-.6.4-.4.61-.95.61-1.66s-.2-1.23-.61-1.62-1.02-.58-1.84-.58h-2.54v4.45Z" fill="#fff"/>
      <path d="M419.95,974.85c-.85-.36-1.51-.88-2.01-1.56-.49-.68-.75-1.48-.76-2.41h3.25c.04.62.26,1.11.66,1.47.4.36.94.54,1.64.54s1.26-.17,1.67-.51c.4-.34.61-.78.61-1.33,0-.45-.14-.82-.41-1.11-.27-.29-.62-.52-1.03-.68s-.98-.35-1.7-.55c-.98-.29-1.78-.58-2.4-.86-.61-.28-1.14-.71-1.58-1.28-.44-.57-.66-1.33-.66-2.29,0-.9.22-1.68.67-2.34s1.08-1.17,1.89-1.53c.81-.35,1.74-.53,2.78-.53,1.56,0,2.83.38,3.81,1.14.98.76,1.51,1.82,1.62,3.18h-3.34c-.03-.52-.25-.95-.66-1.29-.41-.34-.96-.51-1.64-.51-.59,0-1.07.15-1.42.46s-.53.74-.53,1.32c0,.41.13.74.4,1.01s.6.48,1,.65c.4.17.96.36,1.68.58.98.29,1.79.58,2.41.87.62.29,1.16.72,1.6,1.3.45.58.67,1.34.67,2.28,0,.81-.21,1.56-.63,2.26-.42.69-1.03,1.25-1.84,1.66-.81.41-1.77.62-2.88.62-1.06,0-2.01-.18-2.85-.54Z" fill="#fff"/>
    </g>
    <g>
      <path d="M294.02,964.5l-2.86-5.04h-1.22v5.04h-2.6v-12.95h4.86c1,0,1.85.18,2.56.53.71.35,1.23.83,1.59,1.43.35.6.53,1.27.53,2.01,0,.85-.25,1.62-.74,2.31-.49.69-1.23,1.16-2.21,1.42l3.1,5.25h-3ZM289.94,957.51h2.17c.7,0,1.23-.17,1.58-.51s.52-.81.52-1.42-.17-1.05-.52-1.38c-.35-.33-.87-.49-1.58-.49h-2.17v3.8Z" fill="#fff"/>
      <path d="M301.9,953.65v3.25h4.36v2.06h-4.36v3.43h4.91v2.11h-7.51v-12.96h7.51v2.11h-4.91Z" fill="#fff"/>
      <path d="M311.28,964.16c-.72-.31-1.3-.75-1.72-1.33-.42-.58-.64-1.27-.65-2.06h2.78c.04.53.23.95.57,1.26.34.31.81.46,1.4.46s1.08-.15,1.43-.44c.35-.29.52-.67.52-1.14,0-.38-.12-.7-.35-.95s-.53-.44-.88-.58c-.35-.14-.84-.3-1.46-.47-.84-.25-1.52-.49-2.05-.73s-.98-.61-1.35-1.09c-.38-.49-.57-1.14-.57-1.96,0-.77.19-1.43.58-2,.38-.57.92-1,1.61-1.31.69-.3,1.48-.45,2.37-.45,1.34,0,2.42.32,3.25.97s1.29,1.55,1.38,2.72h-2.86c-.02-.45-.21-.81-.57-1.1-.35-.29-.82-.44-1.4-.44-.51,0-.91.13-1.21.39-.3.26-.45.64-.45,1.13,0,.35.11.63.34.86.23.23.51.42.85.56.34.14.82.31,1.44.49.84.25,1.53.5,2.06.74s.99.62,1.37,1.11c.38.49.58,1.14.58,1.95,0,.69-.18,1.33-.54,1.93-.36.59-.88,1.07-1.58,1.42-.69.35-1.52.53-2.47.53s-1.72-.15-2.44-.46Z" fill="#fff"/>
      <path d="M329.42,951.55v2.1h-3.45v10.85h-2.6v-10.85h-3.45v-2.1h9.5Z" fill="#fff"/>
      <path d="M287.06,986.75l-2.86-5.04h-1.22v5.04h-2.6v-12.95h4.86c1,0,1.85.18,2.56.53.71.35,1.23.83,1.59,1.43.35.6.53,1.27.53,2.01,0,.85-.25,1.62-.74,2.31-.49.69-1.23,1.16-2.21,1.42l3.1,5.25h-3ZM282.98,979.76h2.17c.7,0,1.23-.17,1.58-.51s.52-.81.52-1.42-.17-1.05-.52-1.38c-.35-.33-.87-.49-1.58-.49h-2.17v3.8Z" fill="#fff"/>
      <path d="M295.01,986.03c-1.01-.57-1.82-1.36-2.41-2.36-.59-1.01-.89-2.15-.89-3.42s.3-2.4.89-3.4c.59-1.01,1.4-1.8,2.41-2.36,1.01-.57,2.13-.85,3.34-.85s2.34.28,3.35.85c1.01.57,1.81,1.36,2.39,2.36s.88,2.14.88,3.4-.29,2.41-.88,3.42-1.39,1.8-2.4,2.36c-1.01.57-2.13.85-3.34.85s-2.32-.28-3.34-.85ZM300.41,984.04c.59-.35,1.06-.86,1.39-1.51.33-.66.5-1.42.5-2.28s-.17-1.62-.5-2.27c-.33-.65-.8-1.15-1.39-1.49-.59-.35-1.28-.52-2.06-.52s-1.47.17-2.07.52c-.6.35-1.07.84-1.4,1.49-.33.65-.5,1.41-.5,2.27s.17,1.63.5,2.28c.33.66.8,1.16,1.4,1.51s1.29.53,2.07.53,1.47-.18,2.06-.53Z" fill="#fff"/>
      <path d="M309.64,986.03c-1.01-.57-1.82-1.36-2.41-2.36-.59-1.01-.89-2.15-.89-3.42s.3-2.4.89-3.4c.59-1.01,1.4-1.8,2.41-2.36,1.01-.57,2.13-.85,3.34-.85s2.34.28,3.35.85c1.01.57,1.81,1.36,2.39,2.36s.88,2.14.88,3.4-.29,2.41-.88,3.42-1.39,1.8-2.4,2.36c-1.01.57-2.13.85-3.34.85s-2.32-.28-3.34-.85ZM315.04,984.04c.59-.35,1.06-.86,1.39-1.51.33-.66.5-1.42.5-2.28s-.17-1.62-.5-2.27c-.33-.65-.8-1.15-1.39-1.49-.59-.35-1.28-.52-2.06-.52s-1.47.17-2.07.52c-.6.35-1.07.84-1.4,1.49-.33.65-.5,1.41-.5,2.27s.17,1.63.5,2.28c.33.66.8,1.16,1.4,1.51s1.29.53,2.07.53,1.47-.18,2.06-.53Z" fill="#fff"/>
      <path d="M335.72,973.81v12.95h-2.6v-8.42l-3.47,8.42h-1.97l-3.49-8.42v8.42h-2.6v-12.95h2.95l4.12,9.62,4.12-9.62h2.93Z" fill="#fff"/>
    </g>
    <g>
      <path d="M163.19,981.77h12.81v2.57h-8.33l8.33,3.43v1.94l-8.33,3.45h8.33v2.57h-12.81v-2.92l9.52-4.07-9.52-4.07v-2.9Z" fill="#fff"/>
      <path d="M173.55,971.32v5.1l2.44.84v2.7l-12.83-4.61v-2.99l12.83-4.61v2.72l-2.44.84ZM171.5,972.01l-5.36,1.85,5.36,1.85v-3.71Z" fill="#fff"/>
      <path d="M163.19,963.39h12.81v2.57h-12.81v-2.57Z" fill="#fff"/>
      <path d="M163.98,952.76c.53-1.02,1.27-1.81,2.25-2.37.97-.56,2.1-.83,3.39-.83s2.41.28,3.37.83,1.7,1.35,2.23,2.37c.53,1.02.79,2.21.79,3.55v4.48h-12.81v-4.48c0-1.34.26-2.53.79-3.55ZM172.71,953.28c-.73-.73-1.77-1.1-3.1-1.1s-2.38.37-3.13,1.1c-.75.73-1.13,1.77-1.13,3.12v1.82h8.46v-1.82c0-1.34-.37-2.38-1.1-3.12Z" fill="#fff"/>
      <path d="M163.19,945.02h7.93c.87,0,1.53-.23,1.99-.68.46-.45.69-1.09.69-1.91s-.23-1.47-.69-1.93c-.46-.45-1.12-.68-1.99-.68h-7.93v-2.59h7.91c1.09,0,2.01.24,2.76.71.75.47,1.32,1.1,1.7,1.89.38.79.57,1.67.57,2.63s-.19,1.82-.57,2.6c-.38.78-.94,1.39-1.7,1.84-.75.45-1.67.68-2.76.68h-7.91v-2.57Z" fill="#fff"/>
      <path d="M167.04,925.78c-.54.29-.95.7-1.23,1.21-.28.51-.42,1.11-.42,1.8,0,.76.17,1.43.51,2.02.34.59.83,1.04,1.47,1.38.64.33,1.37.5,2.2.5s1.6-.17,2.24-.5c.64-.34,1.13-.8,1.47-1.4s.51-1.3.51-2.09c0-.98-.26-1.78-.78-2.4s-1.24-1.03-2.17-1.23v4.4h-1.96v-6.94h2.24c.89.17,1.72.54,2.48,1.1s1.37,1.29,1.83,2.17c.46.89.69,1.88.69,2.98,0,1.24-.28,2.35-.83,3.35s-1.33,1.78-2.32,2.35c-.99.57-2.12.85-3.38.85s-2.39-.28-3.38-.85c-1-.57-1.77-1.35-2.33-2.35-.56-1-.83-2.11-.83-3.33,0-1.44.35-2.7,1.05-3.76.7-1.06,1.69-1.8,2.96-2.2v2.95Z" fill="#fff"/>
      <path d="M163.19,918h7.93c.87,0,1.53-.23,1.99-.68.46-.45.69-1.09.69-1.91s-.23-1.47-.69-1.93c-.46-.45-1.12-.68-1.99-.68h-7.93v-2.59h7.91c1.09,0,2.01.24,2.76.71.75.47,1.32,1.1,1.7,1.89.38.79.57,1.67.57,2.63s-.19,1.82-.57,2.6c-.38.78-.94,1.39-1.7,1.84-.75.45-1.67.68-2.76.68h-7.91v-2.57Z" fill="#fff"/>
      <path d="M175.99,901.06l-4.99,2.83v1.21h4.99v2.57h-12.81v-4.81c0-.99.17-1.83.52-2.53s.82-1.22,1.41-1.57c.59-.35,1.26-.52,1.99-.52.84,0,1.61.24,2.28.73.68.49,1.15,1.22,1.4,2.18l5.19-3.06v2.97ZM169.08,905.1v-2.15c0-.7-.17-1.22-.5-1.56-.34-.34-.8-.51-1.4-.51s-1.04.17-1.37.51c-.32.34-.49.86-.49,1.56v2.15h3.76Z" fill="#fff"/>
      <path d="M163.19,893.26h12.81v2.57h-12.81v-2.57Z" fill="#fff"/>
    </g>
    <g>
      <path d="M20.96,939.83h-7.08l-1.17,3.39h-3.75l6.4-17.81h4.15l6.4,17.81h-3.77l-1.17-3.39ZM19.99,936.98l-2.57-7.44-2.57,7.44h5.15Z" fill="#fff"/>
      <path d="M39.54,926.53c1.42.73,2.51,1.77,3.29,3.12.77,1.35,1.16,2.92,1.16,4.7s-.39,3.34-1.16,4.67c-.77,1.33-1.87,2.37-3.29,3.1-1.42.73-3.06,1.1-4.93,1.1h-6.22v-17.78h6.22c1.87,0,3.51.37,4.93,1.1ZM38.82,938.66c1.02-1.02,1.53-2.45,1.53-4.31s-.51-3.3-1.53-4.34c-1.02-1.04-2.46-1.57-4.33-1.57h-2.52v11.75h2.52c1.87,0,3.31-.51,4.33-1.53Z" fill="#fff"/>
      <path d="M50.44,942.23c-1.39-.78-2.5-1.86-3.31-3.25-.82-1.38-1.22-2.95-1.22-4.7s.41-3.29,1.22-4.67,1.92-2.47,3.31-3.25c1.39-.78,2.92-1.17,4.59-1.17s3.21.39,4.6,1.17c1.38.78,2.48,1.86,3.29,3.25.81,1.38,1.21,2.94,1.21,4.67s-.4,3.32-1.21,4.7c-.81,1.38-1.91,2.47-3.3,3.25-1.39.78-2.92,1.17-4.59,1.17s-3.19-.39-4.59-1.17ZM57.85,939.49c.82-.48,1.45-1.18,1.91-2.08.46-.9.69-1.94.69-3.13s-.23-2.23-.69-3.12c-.46-.89-1.1-1.58-1.91-2.05s-1.76-.71-2.83-.71-2.02.24-2.84.71c-.82.48-1.47,1.16-1.92,2.05s-.69,1.93-.69,3.12.23,2.23.69,3.13c.46.9,1.1,1.59,1.92,2.08.82.48,1.77.73,2.84.73s2.01-.24,2.83-.73Z" fill="#fff"/>
      <path d="M76.6,928.32v4.46h5.99v2.83h-5.99v4.71h6.75v2.9h-10.32v-17.81h10.32v2.9h-6.75Z" fill="#fff"/>
      <path d="M96.73,943.22l-6.47-7.92v7.92h-3.57v-17.78h3.57v7.97l6.47-7.97h4.31l-7.34,8.82,7.54,8.97h-4.51Z" fill="#fff"/>
      <path d="M107.25,925.44v17.78h-3.57v-17.78h3.57Z" fill="#fff"/>
      <path d="M122.97,925.44v2.88h-4.74v14.91h-3.57v-14.91h-4.74v-2.88h13.04Z" fill="#fff"/>
      <path d="M129.24,925.44v17.78h-3.57v-17.78h3.57Z" fill="#fff"/>
    </g>
    <g>
      <path d="M47.33,293.22c-2.34-1-4.19-2.44-5.55-4.32-1.36-1.88-2.06-4.1-2.1-6.66h9c.12,1.72.73,3.08,1.83,4.08,1.1,1,2.61,1.5,4.53,1.5s3.5-.47,4.62-1.41c1.12-.94,1.68-2.17,1.68-3.69,0-1.24-.38-2.26-1.14-3.06-.76-.8-1.71-1.43-2.85-1.89-1.14-.46-2.71-.97-4.71-1.53-2.72-.8-4.93-1.59-6.63-2.37-1.7-.78-3.16-1.96-4.38-3.54-1.22-1.58-1.83-3.69-1.83-6.33,0-2.48.62-4.64,1.86-6.48,1.24-1.84,2.98-3.25,5.22-4.23,2.24-.98,4.8-1.47,7.68-1.47,4.32,0,7.83,1.05,10.53,3.15s4.19,5.03,4.47,8.79h-9.24c-.08-1.44-.69-2.63-1.83-3.57-1.14-.94-2.65-1.41-4.53-1.41-1.64,0-2.95.42-3.93,1.26-.98.84-1.47,2.06-1.47,3.66,0,1.12.37,2.05,1.11,2.79s1.66,1.34,2.76,1.8,2.65.99,4.65,1.59c2.72.8,4.94,1.6,6.66,2.4,1.72.8,3.2,2,4.44,3.6,1.24,1.6,1.86,3.7,1.86,6.3,0,2.24-.58,4.32-1.74,6.24s-2.86,3.45-5.1,4.59c-2.24,1.14-4.9,1.71-7.98,1.71-2.92,0-5.55-.5-7.89-1.5Z" fill="#fff"/>
      <path d="M105.8,252.42v6.78h-11.16v35.1h-8.4v-35.1h-11.16v-6.78h30.72Z" fill="#fff"/>
      <path d="M137.6,286.32h-16.68l-2.76,7.98h-8.82l15.06-41.94h9.78l15.06,41.94h-8.88l-2.76-7.98ZM135.32,279.6l-6.06-17.52-6.06,17.52h12.12Z" fill="#fff"/>
      <path d="M180.74,252.42v6.78h-17.46v10.74h13.38v6.66h-13.38v17.7h-8.4v-41.88h25.86Z" fill="#fff"/>
      <path d="M212.54,252.42v6.78h-17.46v10.74h13.38v6.66h-13.38v17.7h-8.4v-41.88h25.86Z" fill="#fff"/>
    </g>
    <g>
      <path d="M352.29,218.08h34.93v7.01h-22.72l22.72,9.36v5.3l-22.72,9.41h22.72v7.01h-34.93v-7.96l25.97-11.11-25.97-11.11v-7.91Z" fill="#fff"/>
      <path d="M385.26,203.77c-1.53,2.74-3.66,4.9-6.38,6.5-2.72,1.6-5.8,2.4-9.23,2.4s-6.46-.8-9.18-2.4c-2.72-1.6-4.84-3.77-6.38-6.5-1.53-2.73-2.3-5.74-2.3-9.01s.77-6.31,2.3-9.03c1.53-2.72,3.66-4.87,6.38-6.46,2.72-1.58,5.78-2.38,9.18-2.38s6.51.79,9.23,2.38c2.72,1.58,4.85,3.75,6.38,6.48,1.54,2.74,2.3,5.74,2.3,9.01s-.77,6.27-2.3,9.01ZM379.88,189.21c-.95-1.6-2.31-2.85-4.08-3.75-1.77-.9-3.82-1.35-6.15-1.35s-4.38.45-6.13,1.35c-1.75.9-3.09,2.15-4.03,3.75-.93,1.6-1.4,3.45-1.4,5.55s.47,3.96,1.4,5.58c.93,1.62,2.28,2.88,4.03,3.78,1.75.9,3.79,1.35,6.13,1.35s4.39-.45,6.15-1.35c1.77-.9,3.13-2.16,4.08-3.78.95-1.62,1.43-3.48,1.43-5.58s-.48-3.95-1.43-5.55Z" fill="#fff"/>
      <path d="M386.31,166.02c-.83,1.95-2.03,3.49-3.6,4.63-1.57,1.13-3.42,1.72-5.55,1.75v-7.51c1.43-.1,2.57-.61,3.4-1.53.83-.92,1.25-2.18,1.25-3.78s-.39-2.92-1.18-3.85c-.78-.93-1.81-1.4-3.08-1.4-1.03,0-1.88.32-2.55.95-.67.63-1.19,1.43-1.58,2.38-.38.95-.81,2.26-1.28,3.93-.67,2.27-1.33,4.11-1.98,5.53-.65,1.42-1.63,2.64-2.95,3.65-1.32,1.02-3.08,1.53-5.28,1.53-2.07,0-3.87-.52-5.4-1.55-1.53-1.03-2.71-2.48-3.53-4.35-.82-1.87-1.23-4-1.23-6.4,0-3.6.88-6.53,2.63-8.78,1.75-2.25,4.2-3.49,7.33-3.73v7.71c-1.2.07-2.19.58-2.98,1.53-.78.95-1.18,2.21-1.18,3.78,0,1.37.35,2.46,1.05,3.28.7.82,1.72,1.23,3.05,1.23.93,0,1.71-.31,2.33-.93.62-.62,1.12-1.38,1.5-2.3.38-.92.83-2.21,1.33-3.88.67-2.27,1.33-4.12,2-5.55.67-1.43,1.67-2.67,3-3.7,1.33-1.03,3.09-1.55,5.25-1.55,1.87,0,3.6.48,5.2,1.45,1.6.97,2.88,2.39,3.83,4.25.95,1.87,1.43,4.09,1.43,6.66,0,2.44-.42,4.63-1.25,6.58Z" fill="#fff"/>
      <path d="M393.37,114.8l-6.35,5.3c.37,1.47.55,2.97.55,4.5,0,3.27-.77,6.27-2.3,9.01-1.53,2.74-3.66,4.9-6.38,6.5-2.72,1.6-5.8,2.4-9.23,2.4s-6.46-.8-9.18-2.4c-2.72-1.6-4.84-3.77-6.38-6.5-1.53-2.73-2.3-5.74-2.3-9.01s.77-6.31,2.3-9.03c1.53-2.72,3.66-4.87,6.38-6.46,2.72-1.58,5.78-2.38,9.18-2.38,3.1,0,5.93.66,8.48,1.98,2.55,1.32,4.63,3.11,6.23,5.38l9.01-8.01v8.71ZM375.8,133.97c1.77-.9,3.13-2.16,4.08-3.78.95-1.62,1.43-3.48,1.43-5.58s-.48-3.95-1.43-5.55-2.31-2.85-4.08-3.75c-1.77-.9-3.82-1.35-6.15-1.35s-4.38.45-6.13,1.35c-1.75.9-3.09,2.15-4.03,3.75-.93,1.6-1.4,3.45-1.4,5.55s.47,3.96,1.4,5.58c.93,1.62,2.28,2.88,4.03,3.78,1.75.9,3.79,1.35,6.13,1.35s4.39-.45,6.15-1.35Z" fill="#fff"/>
      <path d="M352.29,94.34h21.62c2.37,0,4.18-.62,5.43-1.85,1.25-1.23,1.88-2.97,1.88-5.2s-.63-4.02-1.88-5.25c-1.25-1.23-3.06-1.85-5.43-1.85h-21.62v-7.06h21.57c2.97,0,5.48.64,7.53,1.93,2.05,1.28,3.6,3,4.63,5.15,1.03,2.15,1.55,4.55,1.55,7.18s-.52,4.96-1.55,7.08c-1.03,2.12-2.58,3.8-4.63,5.03-2.05,1.23-4.56,1.85-7.53,1.85h-21.57v-7.01Z" fill="#fff"/>
      <path d="M357.94,59.16h8.76v-11.76h5.55v11.76h9.26v-13.26h5.7v20.27h-34.98v-20.27h5.7v13.26Z" fill="#fff"/>
    </g>
    <g>
      <path d="M41.63,55.64h-9.73l-1.61,4.65h-5.15l8.78-24.46h5.71l8.79,24.46h-5.18l-1.61-4.65ZM40.3,51.72l-3.54-10.22-3.53,10.22h7.07Z" fill="#fff"/>
      <path d="M67.16,37.37c1.95,1,3.45,2.43,4.52,4.29,1.06,1.85,1.59,4.01,1.59,6.46s-.53,4.59-1.59,6.42c-1.06,1.83-2.57,3.25-4.52,4.25-1.95,1-4.21,1.5-6.77,1.5h-8.54v-24.43h8.54c2.57,0,4.82.5,6.77,1.51ZM66.17,54.03c1.4-1.4,2.1-3.37,2.1-5.92s-.7-4.53-2.1-5.97-3.38-2.15-5.95-2.15h-3.46v16.13h3.46c2.57,0,4.55-.7,5.95-2.1Z" fill="#fff"/>
      <path d="M103.72,35.87v24.43h-4.9v-15.89l-6.54,15.89h-3.71l-6.58-15.89v15.89h-4.9v-24.43h5.56l7.77,18.17,7.77-18.17h5.53Z" fill="#fff"/>
      <path d="M113.59,35.87v24.43h-4.9v-24.43h4.9Z" fill="#fff"/>
      <path d="M122.39,59.67c-1.37-.58-2.44-1.42-3.24-2.52-.79-1.1-1.2-2.39-1.22-3.89h5.25c.07,1,.43,1.8,1.07,2.38.64.58,1.52.88,2.64.88s2.04-.27,2.69-.82c.65-.55.98-1.27.98-2.15,0-.72-.22-1.32-.67-1.79-.44-.47-1-.83-1.66-1.1-.66-.27-1.58-.57-2.75-.89-1.59-.47-2.88-.93-3.87-1.38-.99-.46-1.84-1.14-2.56-2.06-.71-.92-1.07-2.15-1.07-3.69,0-1.45.36-2.71,1.08-3.78.72-1.07,1.74-1.9,3.04-2.47,1.31-.57,2.8-.86,4.48-.86,2.52,0,4.57.61,6.14,1.84,1.58,1.23,2.44,2.93,2.61,5.13h-5.39c-.05-.84-.4-1.53-1.07-2.08-.67-.55-1.55-.82-2.64-.82-.96,0-1.72.25-2.29.74-.57.49-.86,1.2-.86,2.13,0,.65.22,1.2.65,1.63.43.43.97.78,1.61,1.05.64.27,1.55.58,2.71.93,1.59.47,2.88.93,3.88,1.4,1,.47,1.87,1.17,2.59,2.1.72.93,1.08,2.16,1.08,3.68,0,1.31-.34,2.52-1.02,3.64-.68,1.12-1.67,2.01-2.98,2.68-1.31.67-2.86,1-4.65,1-1.7,0-3.24-.29-4.6-.88Z" fill="#fff"/>
      <path d="M143.85,59.67c-1.37-.58-2.44-1.42-3.24-2.52-.79-1.1-1.2-2.39-1.22-3.89h5.25c.07,1,.43,1.8,1.07,2.38.64.58,1.52.88,2.64.88s2.04-.27,2.69-.82c.65-.55.98-1.27.98-2.15,0-.72-.22-1.32-.67-1.79-.44-.47-1-.83-1.66-1.1-.66-.27-1.58-.57-2.75-.89-1.59-.47-2.88-.93-3.87-1.38-.99-.46-1.84-1.14-2.56-2.06-.71-.92-1.07-2.15-1.07-3.69,0-1.45.36-2.71,1.08-3.78.72-1.07,1.74-1.9,3.04-2.47,1.31-.57,2.8-.86,4.48-.86,2.52,0,4.57.61,6.14,1.84,1.58,1.23,2.44,2.93,2.61,5.13h-5.39c-.05-.84-.4-1.53-1.07-2.08-.67-.55-1.55-.82-2.64-.82-.96,0-1.72.25-2.29.74-.57.49-.86,1.2-.86,2.13,0,.65.22,1.2.65,1.63.43.43.97.78,1.61,1.05.64.27,1.55.58,2.71.93,1.59.47,2.88.93,3.88,1.4,1,.47,1.87,1.17,2.59,2.1.72.93,1.08,2.16,1.08,3.68,0,1.31-.34,2.52-1.02,3.64-.68,1.12-1.67,2.01-2.98,2.68-1.31.67-2.86,1-4.65,1-1.7,0-3.24-.29-4.6-.88Z" fill="#fff"/>
      <path d="M166.37,35.87v24.43h-4.9v-24.43h4.9Z" fill="#fff"/>
      <path d="M176.38,58.93c-1.91-1.07-3.43-2.56-4.55-4.46-1.12-1.9-1.68-4.05-1.68-6.46s.56-4.52,1.68-6.42c1.12-1.9,2.64-3.39,4.55-4.46,1.91-1.07,4.01-1.61,6.3-1.61s4.42.54,6.32,1.61,3.41,2.56,4.52,4.46c1.11,1.9,1.66,4.04,1.66,6.42s-.55,4.56-1.66,6.46c-1.11,1.9-2.62,3.39-4.53,4.46-1.91,1.07-4.01,1.61-6.3,1.61s-4.39-.54-6.3-1.61ZM186.57,55.17c1.12-.67,1.99-1.62,2.62-2.85.63-1.24.94-2.67.94-4.31s-.31-3.06-.94-4.29c-.63-1.23-1.51-2.16-2.62-2.82-1.12-.65-2.42-.98-3.89-.98s-2.77.33-3.9.98c-1.13.65-2.01,1.59-2.64,2.82-.63,1.22-.94,2.65-.94,4.29s.31,3.07.94,4.31c.63,1.24,1.51,2.19,2.64,2.85,1.13.67,2.43,1,3.9,1s2.77-.33,3.89-1Z" fill="#fff"/>
      <path d="M219.85,60.3h-4.9l-11.1-16.77v16.77h-4.9v-24.46h4.9l11.1,16.8v-16.8h4.9v24.46Z" fill="#fff"/>
      <path d="M228.65,59.67c-1.37-.58-2.44-1.42-3.24-2.52-.79-1.1-1.2-2.39-1.22-3.89h5.25c.07,1,.43,1.8,1.07,2.38.64.58,1.52.88,2.64.88s2.04-.27,2.69-.82c.65-.55.98-1.27.98-2.15,0-.72-.22-1.32-.67-1.79-.44-.47-1-.83-1.66-1.1-.66-.27-1.58-.57-2.75-.89-1.59-.47-2.88-.93-3.87-1.38-.99-.46-1.84-1.14-2.56-2.06-.71-.92-1.07-2.15-1.07-3.69,0-1.45.36-2.71,1.08-3.78.72-1.07,1.74-1.9,3.04-2.47,1.31-.57,2.8-.86,4.48-.86,2.52,0,4.57.61,6.14,1.84,1.58,1.23,2.44,2.93,2.61,5.13h-5.39c-.05-.84-.4-1.53-1.07-2.08-.67-.55-1.55-.82-2.64-.82-.96,0-1.72.25-2.29.74-.57.49-.86,1.2-.86,2.13,0,.65.22,1.2.65,1.63.43.43.97.78,1.61,1.05.64.27,1.55.58,2.71.93,1.59.47,2.88.93,3.88,1.4,1,.47,1.87,1.17,2.59,2.1.72.93,1.08,2.16,1.08,3.68,0,1.31-.34,2.52-1.02,3.64-.68,1.12-1.67,2.01-2.98,2.68-1.31.67-2.86,1-4.65,1-1.7,0-3.24-.29-4.6-.88Z" fill="#fff"/>
      <path d="M81.18,100.93c-1.91-1.07-3.43-2.56-4.55-4.46-1.12-1.9-1.68-4.05-1.68-6.46s.56-4.52,1.68-6.42c1.12-1.9,2.64-3.39,4.55-4.46,1.91-1.07,4.01-1.61,6.3-1.61s4.42.54,6.32,1.61,3.41,2.56,4.52,4.46c1.11,1.9,1.66,4.04,1.66,6.42s-.55,4.56-1.66,6.46c-1.11,1.9-2.62,3.39-4.53,4.46-1.91,1.07-4.01,1.61-6.3,1.61s-4.39-.54-6.3-1.61ZM91.37,97.17c1.12-.67,1.99-1.62,2.62-2.85.63-1.24.94-2.67.94-4.31s-.31-3.06-.94-4.29c-.63-1.23-1.51-2.16-2.62-2.82-1.12-.65-2.42-.98-3.89-.98s-2.77.33-3.9.98c-1.13.65-2.01,1.59-2.64,2.82-.63,1.22-.94,2.65-.94,4.29s.31,3.07.94,4.31c.63,1.24,1.51,2.19,2.64,2.85,1.13.67,2.43,1,3.9,1s2.77-.33,3.89-1Z" fill="#fff"/>
      <path d="M118.84,77.87v3.96h-10.19v6.27h7.81v3.88h-7.81v10.33h-4.9v-24.43h15.08Z" fill="#fff"/>
      <path d="M137.53,77.87v3.96h-10.19v6.27h7.81v3.88h-7.81v10.33h-4.9v-24.43h15.08Z" fill="#fff"/>
      <path d="M146.04,77.87v24.43h-4.9v-24.43h4.9Z" fill="#fff"/>
      <path d="M151.44,83.59c1.08-1.9,2.57-3.38,4.44-4.44,1.88-1.06,3.98-1.59,6.32-1.59,2.73,0,5.12.7,7.17,2.1,2.05,1.4,3.49,3.34,4.31,5.81h-5.64c-.56-1.17-1.35-2.04-2.36-2.62-1.02-.58-2.19-.88-3.52-.88-1.42,0-2.69.33-3.8,1-1.11.67-1.97,1.6-2.59,2.82-.62,1.21-.93,2.64-.93,4.27s.31,3.03.93,4.25,1.48,2.17,2.59,2.83c1.11.67,2.37,1,3.8,1,1.33,0,2.5-.3,3.52-.89,1.01-.59,1.8-1.48,2.36-2.64h5.64c-.82,2.5-2.25,4.44-4.29,5.83-2.04,1.39-4.44,2.08-7.19,2.08-2.33,0-4.44-.53-6.32-1.59-1.88-1.06-3.36-2.54-4.44-4.43s-1.63-4.04-1.63-6.44.54-4.56,1.63-6.46Z" fill="#fff"/>
      <path d="M182.93,81.82v6.12h8.23v3.89h-8.23v6.47h9.27v3.99h-14.17v-24.46h14.17v3.99h-9.27Z" fill="#fff"/>
    </g>
    <g>
      <path d="M449.56,157.1c-.49,1.15-1.19,2.05-2.11,2.72-.92.67-2.01,1.01-3.26,1.03v-4.41c.84-.06,1.51-.36,2-.9.49-.54.73-1.28.73-2.22s-.23-1.71-.69-2.26c-.46-.55-1.06-.82-1.81-.82-.61,0-1.11.19-1.5.56-.39.37-.7.84-.93,1.4s-.47,1.33-.75,2.31c-.39,1.33-.78,2.41-1.16,3.25-.38.83-.96,1.55-1.73,2.14-.77.6-1.81.9-3.1.9-1.21,0-2.27-.3-3.17-.91-.9-.61-1.59-1.46-2.07-2.56-.48-1.1-.72-2.35-.72-3.76,0-2.12.51-3.83,1.54-5.16,1.03-1.32,2.46-2.05,4.3-2.19v4.52c-.71.04-1.29.34-1.75.9s-.69,1.3-.69,2.22c0,.8.21,1.44.62,1.92.41.48,1.01.72,1.79.72.55,0,1-.18,1.37-.54.36-.36.66-.81.88-1.35.23-.54.48-1.3.78-2.28.39-1.33.78-2.42,1.17-3.26.39-.84.98-1.57,1.76-2.17.78-.61,1.81-.91,3.08-.91,1.1,0,2.12.28,3.06.85.94.57,1.69,1.4,2.25,2.5.56,1.1.84,2.4.84,3.91,0,1.43-.24,2.72-.73,3.86Z" fill="#fff"/>
      <path d="M429.58,128.36h3.32v5.46h17.18v4.11h-17.18v5.46h-3.32v-15.04Z" fill="#fff"/>
      <path d="M446.18,112.67v8.17l3.91,1.35v4.32l-20.53-7.37v-4.79l20.53-7.37v4.35l-3.91,1.35ZM442.89,113.79l-8.58,2.97,8.58,2.97v-5.93Z" fill="#fff"/>
      <path d="M429.58,99.98h20.5v4.11h-20.5v-4.11Z" fill="#fff"/>
      <path d="M450.08,85.23l-7.99,4.52v1.94h7.99v4.11h-20.5v-7.7c0-1.59.28-2.94.84-4.05.56-1.12,1.31-1.95,2.26-2.51s2.01-.84,3.19-.84c1.35,0,2.57.39,3.66,1.18s1.84,1.95,2.25,3.5l8.31-4.91v4.76ZM439.01,91.7v-3.44c0-1.12-.27-1.95-.81-2.5s-1.29-.82-2.25-.82-1.67.27-2.19.82-.78,1.38-.78,2.5v3.44h6.02Z" fill="#fff"/>
      <path d="M449.56,73.65c-.49,1.15-1.19,2.05-2.11,2.72-.92.67-2.01,1.01-3.26,1.03v-4.41c.84-.06,1.51-.36,2-.9.49-.54.73-1.28.73-2.22s-.23-1.71-.69-2.26c-.46-.55-1.06-.82-1.81-.82-.61,0-1.11.19-1.5.56-.39.37-.7.84-.93,1.4s-.47,1.33-.75,2.31c-.39,1.33-.78,2.41-1.16,3.25-.38.83-.96,1.55-1.73,2.14-.77.6-1.81.9-3.1.9-1.21,0-2.27-.3-3.17-.91-.9-.61-1.59-1.46-2.07-2.56-.48-1.1-.72-2.35-.72-3.76,0-2.12.51-3.83,1.54-5.16,1.03-1.32,2.46-2.05,4.3-2.19v4.52c-.71.04-1.29.34-1.75.9s-.69,1.3-.69,2.22c0,.8.21,1.44.62,1.92.41.48,1.01.72,1.79.72.55,0,1-.18,1.37-.54.36-.36.66-.81.88-1.35.23-.54.48-1.3.78-2.28.39-1.33.78-2.42,1.17-3.26.39-.84.98-1.57,1.76-2.17.78-.61,1.81-.91,3.08-.91,1.1,0,2.12.28,3.06.85.94.57,1.69,1.4,2.25,2.5.56,1.1.84,2.4.84,3.91,0,1.43-.24,2.72-.73,3.86Z" fill="#fff"/>
    </g>
    <g>
      <path d="M493.3,125.8l-5.04,2.86v1.22h5.04v2.6h-12.95v-4.86c0-1,.18-1.85.53-2.56.35-.71.83-1.23,1.43-1.59.6-.35,1.27-.53,2.01-.53.85,0,1.62.25,2.31.74.69.49,1.16,1.23,1.42,2.21l5.25-3.1v3ZM486.3,129.88v-2.17c0-.7-.17-1.23-.51-1.58s-.81-.52-1.42-.52-1.05.17-1.38.52c-.33.35-.49.87-.49,1.58v2.17h3.8Z" fill="#fff"/>
      <path d="M482.45,117.91h3.25v-4.36h2.06v4.36h3.43v-4.91h2.11v7.51h-12.96v-7.51h2.11v4.91Z" fill="#fff"/>
      <path d="M492.96,108.54c-.31.72-.75,1.3-1.33,1.72-.58.42-1.27.64-2.06.65v-2.78c.53-.04.95-.23,1.26-.57.31-.34.46-.81.46-1.4s-.15-1.08-.44-1.43c-.29-.35-.67-.52-1.14-.52-.38,0-.7.12-.95.35s-.44.53-.58.88c-.14.35-.3.84-.47,1.46-.25.84-.49,1.52-.73,2.05s-.61.98-1.09,1.35c-.49.38-1.14.57-1.96.57-.77,0-1.43-.19-2-.58-.57-.38-1-.92-1.31-1.61-.3-.69-.45-1.48-.45-2.37,0-1.34.32-2.42.97-3.25s1.55-1.29,2.72-1.38v2.86c-.45.02-.81.21-1.1.57-.29.35-.44.82-.44,1.4,0,.51.13.91.39,1.21.26.3.64.45,1.13.45.35,0,.63-.11.86-.34.23-.23.42-.51.56-.85.14-.34.31-.82.49-1.44.25-.84.5-1.53.74-2.06s.62-.99,1.11-1.37c.49-.38,1.14-.58,1.95-.58.69,0,1.33.18,1.93.54.59.36,1.07.88,1.42,1.58.35.69.53,1.52.53,2.47s-.15,1.72-.46,2.44Z" fill="#fff"/>
      <path d="M480.35,90.39h2.1v3.45h10.85v2.6h-10.85v3.45h-2.1v-9.5Z" fill="#fff"/>
      <path d="M515.55,132.76l-5.04,2.86v1.22h5.04v2.6h-12.95v-4.86c0-1,.18-1.85.53-2.56.35-.71.83-1.23,1.43-1.59.6-.35,1.27-.53,2.01-.53.85,0,1.62.25,2.31.74.69.49,1.16,1.23,1.42,2.21l5.25-3.1v3ZM508.56,136.84v-2.17c0-.7-.17-1.23-.51-1.58s-.81-.52-1.42-.52-1.05.17-1.38.52c-.33.35-.49.87-.49,1.58v2.17h3.8Z" fill="#fff"/>
      <path d="M514.83,124.8c-.57,1.01-1.36,1.82-2.36,2.41-1.01.59-2.15.89-3.42.89s-2.4-.3-3.4-.89c-1.01-.59-1.8-1.4-2.36-2.41-.57-1.01-.85-2.13-.85-3.34s.28-2.34.85-3.35c.57-1.01,1.36-1.81,2.36-2.39s2.14-.88,3.4-.88,2.41.29,3.42.88,1.8,1.39,2.36,2.4c.57,1.01.85,2.13.85,3.34s-.28,2.32-.85,3.34ZM512.83,119.41c-.35-.59-.86-1.06-1.51-1.39-.66-.33-1.42-.5-2.28-.5s-1.62.17-2.27.5c-.65.33-1.15.8-1.49,1.39-.35.59-.52,1.28-.52,2.06s.17,1.47.52,2.07c.35.6.84,1.07,1.49,1.4.65.33,1.41.5,2.27.5s1.63-.17,2.28-.5c.66-.33,1.16-.8,1.51-1.4s.53-1.29.53-2.07-.18-1.47-.53-2.06Z" fill="#fff"/>
      <path d="M514.83,110.17c-.57,1.01-1.36,1.82-2.36,2.41-1.01.59-2.15.89-3.42.89s-2.4-.3-3.4-.89c-1.01-.59-1.8-1.4-2.36-2.41-.57-1.01-.85-2.13-.85-3.34s.28-2.34.85-3.35c.57-1.01,1.36-1.81,2.36-2.39s2.14-.88,3.4-.88,2.41.29,3.42.88,1.8,1.39,2.36,2.4c.57,1.01.85,2.13.85,3.34s-.28,2.32-.85,3.34ZM512.83,104.77c-.35-.59-.86-1.06-1.51-1.39-.66-.33-1.42-.5-2.28-.5s-1.62.17-2.27.5c-.65.33-1.15.8-1.49,1.39-.35.59-.52,1.28-.52,2.06s.17,1.47.52,2.07c.35.6.84,1.07,1.49,1.4.65.33,1.41.5,2.27.5s1.63-.17,2.28-.5c.66-.33,1.16-.8,1.51-1.4s.53-1.29.53-2.07-.18-1.47-.53-2.06Z" fill="#fff"/>
      <path d="M502.61,84.1h12.95v2.6h-8.42l8.42,3.47v1.97l-8.42,3.49h8.42v2.6h-12.95v-2.95l9.62-4.12-9.62-4.12v-2.93Z" fill="#fff"/>
    </g>
    <g>
      <path d="M578.84,161.85c.99-1.74,2.35-3.1,4.07-4.07,1.72-.97,3.65-1.46,5.79-1.46,2.5,0,4.69.64,6.57,1.92,1.88,1.28,3.19,3.06,3.94,5.32h-5.16c-.51-1.07-1.23-1.87-2.16-2.4-.93-.53-2-.8-3.22-.8-1.3,0-2.46.3-3.48.91-1.02.61-1.81,1.47-2.37,2.58-.57,1.11-.85,2.42-.85,3.91s.28,2.77.85,3.9c.57,1.12,1.36,1.99,2.37,2.6,1.01.61,2.17.91,3.48.91,1.22,0,2.29-.27,3.22-.82.93-.54,1.65-1.35,2.16-2.42h5.16c-.75,2.29-2.06,4.07-3.93,5.34-1.87,1.27-4.07,1.91-6.59,1.91-2.14,0-4.07-.49-5.79-1.46-1.72-.97-3.08-2.32-4.07-4.06-.99-1.73-1.49-3.7-1.49-5.9s.5-4.17,1.49-5.92Z" fill="#fff"/>
      <path d="M616.91,174.72h-8.91l-1.47,4.26h-4.71l8.05-22.41h5.23l8.05,22.41h-4.74l-1.48-4.26ZM615.69,171.13l-3.24-9.36-3.24,9.36h6.48Z" fill="#fff"/>
      <path d="M640.09,156.61v3.62h-9.33v5.74h7.15v3.56h-7.15v9.46h-4.49v-22.38h13.82Z" fill="#fff"/>
      <path d="M647.88,160.23v5.61h7.53v3.56h-7.53v5.93h8.5v3.65h-12.98v-22.41h12.98v3.65h-8.5Z" fill="#fff"/>
      <path d="M675.8,156.61v3.62h-5.96v18.75h-4.49v-18.75h-5.96v-3.62h16.41Z" fill="#fff"/>
      <path d="M683.69,160.23v5.61h7.53v3.56h-7.53v5.93h8.5v3.65h-12.98v-22.41h12.98v3.65h-8.5Z" fill="#fff"/>
      <path d="M707.93,178.99l-4.94-8.72h-2.12v8.72h-4.49v-22.38h8.4c1.73,0,3.21.3,4.42.91,1.22.61,2.13,1.43,2.74,2.47.61,1.04.91,2.2.91,3.48,0,1.48-.43,2.81-1.28,3.99-.86,1.19-2.13,2-3.82,2.45l5.35,9.07h-5.19ZM700.88,166.9h3.75c1.22,0,2.13-.29,2.73-.88.6-.59.9-1.41.9-2.45s-.3-1.82-.9-2.39c-.6-.57-1.51-.85-2.73-.85h-3.75v6.57Z" fill="#fff"/>
      <path d="M721.55,156.61v22.38h-4.49v-22.38h4.49Z" fill="#fff"/>
      <path d="M739.83,174.72h-8.91l-1.47,4.26h-4.71l8.05-22.41h5.23l8.05,22.41h-4.74l-1.48-4.26ZM738.61,171.13l-3.24-9.36-3.24,9.36h6.48Z" fill="#fff"/>
    </g>
    <g>
      <path d="M838.05,232.27c-1.91-.82-3.42-1.99-4.53-3.53-1.11-1.54-1.68-3.35-1.71-5.44h7.35c.1,1.41.6,2.52,1.49,3.33.9.82,2.13,1.23,3.7,1.23s2.86-.38,3.77-1.15c.91-.77,1.37-1.77,1.37-3.01,0-1.01-.31-1.85-.93-2.5-.62-.65-1.4-1.17-2.33-1.54-.93-.38-2.21-.79-3.85-1.25-2.22-.65-4.03-1.3-5.41-1.94-1.39-.64-2.58-1.6-3.58-2.89-1-1.29-1.49-3.01-1.49-5.17,0-2.02.51-3.79,1.52-5.29,1.01-1.5,2.43-2.65,4.26-3.45,1.83-.8,3.92-1.2,6.27-1.2,3.53,0,6.39.86,8.6,2.57,2.21,1.72,3.42,4.11,3.65,7.18h-7.55c-.07-1.18-.56-2.15-1.49-2.92-.93-.77-2.16-1.15-3.7-1.15-1.34,0-2.41.34-3.21,1.03-.8.69-1.2,1.68-1.2,2.99,0,.92.3,1.67.91,2.28.6.6,1.35,1.09,2.25,1.47.9.38,2.16.81,3.8,1.3,2.22.65,4.03,1.31,5.44,1.96,1.4.65,2.61,1.63,3.63,2.94,1.01,1.31,1.52,3.02,1.52,5.15,0,1.83-.47,3.53-1.42,5.1-.95,1.57-2.34,2.82-4.17,3.75-1.83.93-4,1.4-6.52,1.4-2.38,0-4.53-.41-6.44-1.22Z" fill="#fff"/>
      <path d="M883.69,226.64h-13.62l-2.25,6.52h-7.2l12.3-34.25h7.99l12.3,34.25h-7.25l-2.25-6.52ZM881.83,221.15l-4.95-14.31-4.95,14.31h9.9Z" fill="#fff"/>
      <path d="M921.64,214.68c-.87,1.6-2.22,2.89-4.07,3.87-1.85.98-4.17,1.47-6.98,1.47h-5.73v13.13h-6.86v-34.2h12.59c2.65,0,4.9.46,6.76,1.37,1.86.92,3.26,2.17,4.19,3.77.93,1.6,1.4,3.41,1.4,5.44,0,1.83-.43,3.54-1.3,5.15ZM914.51,213.19c.91-.87,1.37-2.08,1.37-3.65,0-3.33-1.86-5-5.59-5h-5.44v9.95h5.44c1.89,0,3.3-.43,4.21-1.3Z" fill="#fff"/>
      <path d="M934.85,204.49v8.58h11.51v5.44h-11.51v9.06h12.98v5.59h-19.85v-34.25h19.85v5.59h-12.98Z" fill="#fff"/>
      <path d="M977.53,198.95v5.54h-9.11v28.67h-6.86v-28.67h-9.11v-5.54h25.09Z" fill="#fff"/>
      <path d="M1000.36,233.16l-7.55-13.33h-3.23v13.33h-6.86v-34.2h12.84c2.65,0,4.9.47,6.76,1.4,1.86.93,3.26,2.19,4.19,3.77.93,1.58,1.4,3.36,1.4,5.32,0,2.25-.65,4.29-1.96,6.1s-3.25,3.06-5.83,3.75l8.18,13.87h-7.94ZM989.58,214.68h5.73c1.86,0,3.25-.45,4.16-1.35s1.37-2.15,1.37-3.75-.46-2.78-1.37-3.65c-.91-.86-2.3-1.3-4.16-1.3h-5.73v10.04Z" fill="#fff"/>
      <path d="M1021.38,231.25c-2.68-1.5-4.8-3.58-6.37-6.25-1.57-2.66-2.35-5.68-2.35-9.04s.78-6.33,2.35-8.99c1.57-2.66,3.69-4.74,6.37-6.25,2.68-1.5,5.62-2.25,8.82-2.25s6.18.75,8.84,2.25c2.66,1.5,4.77,3.59,6.32,6.25,1.55,2.66,2.33,5.66,2.33,8.99s-.78,6.38-2.33,9.04c-1.55,2.66-3.67,4.75-6.35,6.25-2.68,1.5-5.62,2.25-8.82,2.25s-6.14-.75-8.82-2.25ZM1035.64,225.98c1.57-.93,2.79-2.26,3.67-3.99.88-1.73,1.32-3.74,1.32-6.03s-.44-4.29-1.32-6c-.88-1.71-2.11-3.03-3.67-3.94-1.57-.91-3.38-1.37-5.44-1.37s-3.88.46-5.46,1.37c-1.58.92-2.82,2.23-3.7,3.94-.88,1.72-1.32,3.72-1.32,6s.44,4.3,1.32,6.03c.88,1.73,2.12,3.06,3.7,3.99,1.58.93,3.41,1.4,5.46,1.4s3.87-.47,5.44-1.4Z" fill="#fff"/>
      <path d="M891.14,277.31c1.24,1.57,1.86,3.36,1.86,5.39,0,1.83-.45,3.44-1.35,4.83-.9,1.39-2.2,2.47-3.9,3.26-1.7.78-3.71,1.18-6.03,1.18h-14.75v-34.2h14.11c2.32,0,4.32.38,6,1.13,1.68.75,2.96,1.8,3.82,3.14.87,1.34,1.3,2.86,1.3,4.56,0,1.99-.53,3.66-1.59,5-1.06,1.34-2.47,2.29-4.24,2.84,1.93.36,3.51,1.32,4.75,2.89ZM873.84,271.87h6.27c1.63,0,2.89-.37,3.77-1.1.88-.74,1.32-1.79,1.32-3.16s-.44-2.43-1.32-3.19c-.88-.75-2.14-1.13-3.77-1.13h-6.27v8.58ZM884.65,285.19c.93-.78,1.4-1.89,1.4-3.33s-.49-2.62-1.47-3.45-2.3-1.25-3.97-1.25h-6.76v9.21h6.91c1.67,0,2.96-.39,3.9-1.18Z" fill="#fff"/>
      <path d="M905.55,286.52h11.27v5.44h-18.13v-34.2h6.86v28.76Z" fill="#fff"/>
      <path d="M928.43,290.04c-2.68-1.5-4.8-3.58-6.37-6.25-1.57-2.66-2.35-5.68-2.35-9.04s.78-6.33,2.35-8.99c1.57-2.66,3.69-4.74,6.37-6.25,2.68-1.5,5.62-2.25,8.82-2.25s6.18.75,8.84,2.25c2.66,1.5,4.77,3.59,6.32,6.25,1.55,2.66,2.33,5.66,2.33,8.99s-.78,6.38-2.33,9.04c-1.55,2.66-3.67,4.75-6.35,6.25-2.68,1.5-5.62,2.25-8.82,2.25s-6.14-.75-8.82-2.25ZM942.69,284.78c1.57-.93,2.79-2.26,3.68-3.99.88-1.73,1.32-3.74,1.32-6.03s-.44-4.29-1.32-6c-.88-1.71-2.11-3.03-3.68-3.94-1.57-.91-3.38-1.37-5.44-1.37s-3.88.46-5.46,1.37c-1.58.92-2.82,2.23-3.7,3.94-.88,1.72-1.32,3.72-1.32,6s.44,4.3,1.32,6.03c.88,1.73,2.11,3.06,3.7,3.99,1.58.93,3.41,1.4,5.46,1.4s3.87-.47,5.44-1.4Z" fill="#fff"/>
      <path d="M960.65,265.77c1.52-2.66,3.59-4.74,6.22-6.22,2.63-1.49,5.58-2.23,8.84-2.23,3.82,0,7.17.98,10.04,2.94s4.88,4.67,6.03,8.13h-7.89c-.79-1.63-1.89-2.86-3.31-3.68-1.42-.82-3.06-1.23-4.92-1.23-1.99,0-3.77.47-5.32,1.4-1.55.93-2.76,2.25-3.63,3.94-.87,1.7-1.3,3.69-1.3,5.98s.43,4.24,1.3,5.95c.87,1.71,2.07,3.04,3.63,3.97,1.55.93,3.32,1.4,5.32,1.4,1.86,0,3.5-.42,4.92-1.25,1.42-.83,2.52-2.07,3.31-3.7h7.89c-1.14,3.5-3.14,6.22-6,8.16-2.86,1.94-6.22,2.92-10.07,2.92-3.27,0-6.21-.74-8.84-2.23-2.63-1.49-4.7-3.55-6.22-6.2-1.52-2.65-2.28-5.65-2.28-9.02s.76-6.38,2.28-9.04Z" fill="#fff"/>
      <path d="M1017.17,291.96l-12.45-15.24v15.24h-6.86v-34.2h6.86v15.34l12.45-15.34h8.28l-14.11,16.95,14.5,17.25h-8.67Z" fill="#fff"/>
    </g>
    <g>
      <path d="M1156.41,107.88h14.44v5.66h-21.89v-5.18l14.35-22.65h-14.35v-5.66h21.89v5.18l-14.44,22.65Z" fill="#fff"/>
      <path d="M1196.19,107.16h-12.79l-2.12,6.38h-6.76l11.54-33.54h7.5l11.54,33.54h-6.81l-2.12-6.38ZM1194.44,101.79l-4.64-14.01-4.64,14.01h9.29Z" fill="#fff"/>
      <path d="M1226.17,113.54l-7.08-13.05h-3.04v13.05h-6.44v-33.49h12.05c2.48,0,4.6.46,6.35,1.37s3.06,2.14,3.93,3.69c.87,1.55,1.31,3.29,1.31,5.21,0,2.21-.61,4.2-1.84,5.97-1.23,1.78-3.05,3-5.47,3.67l7.68,13.58h-7.45ZM1216.05,95.45h5.38c1.75,0,3.05-.44,3.91-1.32.86-.88,1.29-2.1,1.29-3.67s-.43-2.73-1.29-3.57c-.86-.85-2.16-1.27-3.91-1.27h-5.38v9.84Z" fill="#fff"/>
      <path d="M1245.72,80.05v33.49h-6.44v-33.49h6.44Z" fill="#fff"/>
      <path d="M1271.93,107.16h-12.79l-2.12,6.38h-6.76l11.54-33.54h7.5l11.54,33.54h-6.81l-2.12-6.38ZM1270.18,101.79l-4.64-14.01-4.64,14.01h9.29Z" fill="#fff"/>
    </g>
    <rect x="737.5" y="983.5" width="102" height="68" fill="#ddd"/>
    <rect x="622.5" y="857.5" width="142" height="157" fill="#6d4a67" stroke="#fff" stroke-miterlimit="10"/>
    <g>
      <path d="M629.82,924.48c1.11-1.95,2.63-3.47,4.56-4.56,1.93-1.09,4.09-1.63,6.48-1.63,2.8,0,5.25.72,7.36,2.15,2.11,1.44,3.58,3.42,4.42,5.96h-5.78c-.57-1.2-1.38-2.09-2.42-2.69-1.04-.6-2.24-.9-3.61-.9-1.46,0-2.76.34-3.89,1.02-1.14.68-2.02,1.65-2.66,2.89-.63,1.25-.95,2.7-.95,4.38s.32,3.1.95,4.36c.63,1.26,1.52,2.23,2.66,2.91,1.14.68,2.43,1.02,3.89,1.02,1.36,0,2.57-.3,3.61-.92,1.04-.61,1.85-1.51,2.42-2.71h5.78c-.84,2.56-2.3,4.55-4.4,5.98-2.09,1.42-4.55,2.14-7.38,2.14-2.39,0-4.55-.54-6.48-1.63-1.93-1.09-3.45-2.6-4.56-4.54s-1.67-4.14-1.67-6.6.56-4.67,1.67-6.62Z" fill="#fff"/>
      <path d="M677.86,918.61v25.05h-5.02v-10.66h-10.73v10.66h-5.02v-25.05h5.02v10.3h10.73v-10.3h5.02Z" fill="#fff"/>
      <path d="M698.32,938.89h-9.98l-1.65,4.77h-5.28l9.01-25.09h5.85l9.01,25.09h-5.31l-1.65-4.77ZM696.95,934.87l-3.62-10.48-3.63,10.48h7.25Z" fill="#fff"/>
      <path d="M726.12,930.13c-.63,1.17-1.63,2.12-2.98,2.83-1.35.72-3.06,1.08-5.11,1.08h-4.2v9.62h-5.02v-25.05h9.22c1.94,0,3.59.33,4.95,1,1.36.67,2.39,1.59,3.07,2.76.68,1.17,1.02,2.5,1.02,3.98,0,1.34-.32,2.6-.95,3.77ZM720.89,929.04c.67-.63,1-1.53,1-2.67,0-2.44-1.36-3.66-4.09-3.66h-3.98v7.29h3.98c1.39,0,2.42-.32,3.09-.95Z" fill="#fff"/>
      <path d="M735.79,922.67v6.28h8.43v3.98h-8.43v6.64h9.51v4.09h-14.54v-25.09h14.54v4.09h-9.51Z" fill="#fff"/>
      <path d="M755.03,939.68h8.26v3.98h-13.28v-25.05h5.02v21.07Z" fill="#fff"/>
    </g>
    <rect x="557.5" y="1010.5" width="29" height="14" fill="#ddd"/>
    <rect x="445.5" y="857.5" width="125" height="156" fill="#2e3a6e" stroke="#fff" stroke-miterlimit="10"/>
    <g>
      <path d="M460.49,933.05h-4.22l-.7,2.02h-2.23l3.81-10.62h2.48l3.81,10.62h-2.25l-.7-2.02ZM459.92,931.35l-1.53-4.43-1.53,4.43h3.07Z" fill="#fff"/>
      <path d="M466.96,924.47v6.56c0,.72.19,1.27.56,1.65.37.38.9.57,1.58.57s1.22-.19,1.59-.57c.37-.38.56-.93.56-1.65v-6.56h2.14v6.55c0,.9-.2,1.66-.58,2.29s-.91,1.09-1.56,1.41c-.65.31-1.38.47-2.18.47s-1.51-.16-2.15-.47c-.64-.31-1.15-.78-1.53-1.41s-.56-1.38-.56-2.29v-6.55h2.13Z" fill="#fff"/>
      <path d="M482.1,925.12c.85.44,1.5,1.06,1.96,1.86.46.8.69,1.74.69,2.8s-.23,1.99-.69,2.79c-.46.79-1.11,1.41-1.96,1.84-.85.44-1.83.65-2.94.65h-3.71v-10.6h3.71c1.11,0,2.09.22,2.94.65ZM481.67,932.35c.61-.61.91-1.46.91-2.57s-.3-1.97-.91-2.59c-.61-.62-1.47-.93-2.58-.93h-1.5v7h1.5c1.11,0,1.97-.3,2.58-.91Z" fill="#fff"/>
      <path d="M488.47,924.47v10.6h-2.13v-10.6h2.13Z" fill="#fff"/>
      <path d="M492.75,934.48c-.83-.46-1.49-1.11-1.97-1.94-.49-.83-.73-1.76-.73-2.8s.24-1.96.73-2.79c.49-.83,1.14-1.47,1.97-1.94.83-.47,1.74-.7,2.73-.7s1.92.23,2.74.7,1.48,1.11,1.96,1.94.72,1.75.72,2.79-.24,1.98-.72,2.8c-.48.83-1.14,1.47-1.97,1.94-.83.47-1.74.7-2.73.7s-1.9-.23-2.73-.7ZM497.17,932.84c.49-.29.87-.7,1.14-1.24.27-.54.41-1.16.41-1.87s-.14-1.33-.41-1.86c-.27-.53-.65-.94-1.14-1.22-.49-.28-1.05-.43-1.69-.43s-1.2.14-1.69.43c-.49.28-.87.69-1.15,1.22-.27.53-.41,1.15-.41,1.86s.14,1.33.41,1.87.66.95,1.15,1.24c.49.29,1.06.43,1.69.43s1.2-.14,1.69-.43Z" fill="#fff"/>
      <path d="M508.96,928.75v1.79h-6.44v-1.79h6.44Z" fill="#fff"/>
      <path d="M520.87,924.47l-3.89,10.6h-2.58l-3.89-10.6h2.28l2.92,8.43,2.9-8.43h2.26Z" fill="#fff"/>
      <path d="M524.27,924.47v10.6h-2.13v-10.6h2.13Z" fill="#fff"/>
      <path d="M528.03,934.79c-.59-.25-1.06-.62-1.4-1.09-.34-.48-.52-1.04-.53-1.69h2.28c.03.44.18.78.46,1.03.28.25.66.38,1.15.38s.89-.12,1.17-.36c.28-.24.43-.55.43-.93,0-.31-.1-.57-.29-.77-.19-.2-.43-.36-.72-.48s-.69-.25-1.19-.39c-.69-.2-1.25-.4-1.68-.6-.43-.2-.8-.5-1.11-.9-.31-.4-.46-.93-.46-1.6,0-.63.16-1.17.47-1.64.31-.47.75-.82,1.32-1.07.57-.25,1.22-.37,1.94-.37,1.09,0,1.98.27,2.67.8s1.06,1.27,1.13,2.22h-2.34c-.02-.36-.17-.67-.46-.9-.29-.24-.67-.36-1.15-.36-.42,0-.75.11-1,.32s-.37.52-.37.93c0,.28.09.52.28.71.19.19.42.34.7.46.28.12.67.25,1.18.4.69.2,1.25.41,1.69.61.44.2.81.51,1.12.91.31.41.47.94.47,1.59,0,.57-.15,1.09-.44,1.58-.29.49-.72.87-1.29,1.16-.57.29-1.24.43-2.02.43-.74,0-1.4-.13-2-.38Z" fill="#fff"/>
      <path d="M537.71,924.47v6.56c0,.72.19,1.27.56,1.65.37.38.9.57,1.58.57s1.22-.19,1.59-.57c.37-.38.56-.93.56-1.65v-6.56h2.14v6.55c0,.9-.2,1.66-.58,2.29s-.91,1.09-1.56,1.41c-.65.31-1.38.47-2.18.47s-1.51-.16-2.15-.47c-.64-.31-1.15-.78-1.53-1.41s-.56-1.38-.56-2.29v-6.55h2.13Z" fill="#fff"/>
      <path d="M552.7,933.05h-4.22l-.7,2.02h-2.23l3.81-10.62h2.48l3.81,10.62h-2.25l-.7-2.02ZM552.13,931.35l-1.53-4.43-1.53,4.43h3.07Z" fill="#fff"/>
      <path d="M559.2,933.38h3.49v1.69h-5.62v-10.6h2.13v8.92Z" fill="#fff"/>
      <path d="M482.87,953.02c-.59-.25-1.06-.62-1.4-1.09-.34-.48-.52-1.04-.53-1.69h2.28c.03.44.18.78.46,1.03.28.25.66.38,1.15.38s.89-.12,1.17-.36c.28-.24.43-.55.43-.93,0-.31-.1-.57-.29-.77-.19-.2-.43-.36-.72-.48s-.69-.25-1.19-.39c-.69-.2-1.25-.4-1.68-.6-.43-.2-.8-.5-1.11-.9-.31-.4-.46-.93-.46-1.6,0-.63.16-1.17.47-1.64.31-.47.75-.82,1.32-1.07.57-.25,1.22-.37,1.94-.37,1.09,0,1.98.27,2.67.8s1.06,1.27,1.13,2.22h-2.34c-.02-.36-.17-.67-.46-.9-.29-.24-.67-.36-1.15-.36-.42,0-.75.11-1,.32s-.37.52-.37.93c0,.28.09.52.28.71.19.19.42.34.7.46.28.12.67.25,1.18.4.69.2,1.25.41,1.69.61.44.2.81.51,1.12.91.31.41.47.94.47,1.59,0,.57-.15,1.09-.44,1.58-.29.49-.72.87-1.29,1.16-.57.29-1.24.43-2.02.43-.74,0-1.4-.13-2-.38Z" fill="#fff"/>
      <path d="M497.67,942.69v1.72h-2.83v8.89h-2.13v-8.89h-2.83v-1.72h7.78Z" fill="#fff"/>
      <path d="M501.31,942.69v6.56c0,.72.19,1.27.56,1.65.37.38.9.57,1.58.57s1.22-.19,1.59-.57c.37-.38.56-.93.56-1.65v-6.56h2.14v6.55c0,.9-.2,1.66-.58,2.29s-.91,1.09-1.56,1.41c-.65.31-1.38.47-2.18.47s-1.51-.16-2.15-.47c-.64-.31-1.15-.78-1.53-1.41s-.56-1.38-.56-2.29v-6.55h2.13Z" fill="#fff"/>
      <path d="M516.45,943.35c.85.44,1.5,1.06,1.96,1.86.46.8.69,1.74.69,2.8s-.23,1.99-.69,2.79c-.46.79-1.11,1.41-1.96,1.84-.85.44-1.83.65-2.94.65h-3.71v-10.6h3.71c1.11,0,2.09.22,2.94.65ZM516.02,950.58c.61-.61.91-1.46.91-2.57s-.3-1.97-.91-2.59c-.61-.62-1.47-.93-2.58-.93h-1.5v7h1.5c1.11,0,1.97-.3,2.58-.91Z" fill="#fff"/>
      <path d="M522.82,942.69v10.6h-2.13v-10.6h2.13Z" fill="#fff"/>
      <path d="M527.1,952.7c-.83-.46-1.49-1.11-1.97-1.94-.49-.83-.73-1.76-.73-2.8s.24-1.96.73-2.79c.49-.83,1.14-1.47,1.97-1.94.83-.47,1.74-.7,2.73-.7s1.92.23,2.74.7,1.48,1.11,1.96,1.94.72,1.75.72,2.79-.24,1.98-.72,2.8c-.48.83-1.14,1.47-1.97,1.94-.83.47-1.74.7-2.73.7s-1.9-.23-2.73-.7ZM531.52,951.07c.49-.29.87-.7,1.14-1.24.27-.54.41-1.16.41-1.87s-.14-1.33-.41-1.86c-.27-.53-.65-.94-1.14-1.22-.49-.28-1.05-.43-1.69-.43s-1.2.14-1.69.43c-.49.28-.87.69-1.15,1.22-.27.53-.41,1.15-.41,1.86s.14,1.33.41,1.87.66.95,1.15,1.24c.49.29,1.06.43,1.69.43s1.2-.14,1.69-.43Z" fill="#fff"/>
    </g>
  </g>
</svg>